<?xml version="1.0" standalone="no"?>
<!DOCTYPE svg PUBLIC "-//W3C//DTD SVG 1.1//EN" "http://www.w3.org/Graphics/SVG/1.1/DTD/svg11.dtd" >
<svg>
<metadata>
Created by FontForge 20090622 at Fri Dec  4 11:01:25 2015
 By deploy user
Copyright (c) 2011, Pablo Impallari (www.impallari.com|impallari@gmail.com),Copyright (c) 2011, Igino Marini. (www.ikern.com|mail@iginomarini.com),Copyright (c) 2011, Brenda Gallo. (gbrenda1987@gmail.com),with Reserved Font Name Quattrocento.
</metadata>
<defs>
<font id="Quattrocento" horiz-adv-x="763" >
  <font-face 
    font-family="Quattrocento"
    font-weight="400"
    font-stretch="normal"
    units-per-em="1000"
    panose-1="2 2 5 2 3 0 0 0 4 4"
    ascent="800"
    descent="-200"
    x-height="459"
    cap-height="660"
    bbox="-30 -260 1116 849"
    underline-thickness="48"
    underline-position="-47"
    unicode-range="U+000D-U+FB02"
  />
<missing-glyph horiz-adv-x="266" 
d="M65 243q0 27 19.5 48t48.5 21q13 0 25.5 -5.5t22 -15.5t15 -22.5t5.5 -25.5q0 -29 -21 -48t-47 -19q-29 0 -48.5 19t-19.5 48z" />
    <glyph glyph-name="f_i" unicode="fi" horiz-adv-x="610" 
d="M586 -4q-7 0 -21 1t-30 1.5t-30 1t-21 0.5h-14q-7 0 -21.5 -0.5l-30 -1t-30 -1.5t-21.5 -1l-1 4l1 14l4 4q16 0 31.5 1.5t23.5 9.5q8 7 10.5 18t4.5 31l2 32.5t1 52.5v123v35.5t-0.5 25.5t-1 20t-1.5 19q-1 4 -2.5 9t-6 9t-13.5 6.5t-24 2.5h-217v-155v-70.5t0.5 -48
t1.5 -33.5l2 -28q2 -15 4.5 -28.5t10.5 -20.5q5 -4 14.5 -6t20 -3t20.5 -1.5t16 -0.5l5 -5l2 -13l-2 -4q-7 0 -22.5 1t-32.5 1.5l-32.5 1t-22.5 0.5h-24q-7 0 -21.5 -0.5t-30.5 -1t-30.5 -1.5t-21.5 -1l-1 4l1 14l4 4q16 0 31.5 1.5t23.5 9.5q6 6 10 15.5t5.5 31.5t2 59
t0.5 99v179h-74l-4 5v18l4 4l74 15v31q0 59 11 107t35 81.5t62 52t92 18.5q45 0 84 -11.5t65 -29.5l5 -10l-12 -77h-26q-8 38 -39 58.5t-91 20.5q-41 0 -64.5 -13.5t-36 -36t-16 -51.5t-3.5 -60v-80q112 0 196.5 2t138.5 7l6 -9q-2 -4 -3.5 -14t-2 -21.5l-1 -22.5t-0.5 -17
q0 -8 -0.5 -15.5t-0.5 -17.5t-0.5 -24t-0.5 -36v-112q0 -22 0.5 -36t1 -24t1 -18.5t1.5 -18.5q2 -21 4.5 -31.5t10.5 -17.5t22.5 -9t29.5 -2l5 -5l2 -13z" />
    <glyph glyph-name="f_l" unicode="fl" horiz-adv-x="606" 
d="M438 600q0 54 -32.5 75t-91.5 21q-47 0 -74 -13.5t-40.5 -36t-17.5 -51.5t-4 -60v-80l127 6l5 -4v-39l-5 -5h-127v-155v-70.5t0.5 -48t1.5 -33.5l2 -28q2 -15 4.5 -28.5t10.5 -20.5q5 -4 14.5 -6t20 -3t20.5 -1.5t16 -0.5l5 -5l2 -13l-2 -4q-7 0 -22.5 1t-32.5 1.5
l-32.5 1t-22.5 0.5h-24q-7 0 -21.5 -0.5t-30.5 -1t-30.5 -1.5t-21.5 -1l-1 4l1 14l4 4q16 0 31.5 1.5t23.5 9.5q6 6 10 15.5t5.5 31.5t2 59t0.5 99v179h-74l-4 5v18l4 4l74 15v31q0 59 11 107t35.5 81.5t64.5 52t98 18.5q38 0 69.5 -6.5t60.5 -6.5q7 0 17 1t40 7l6 -9
q-2 -4 -3 -14.5t-2 -22.5t-1.5 -23t-0.5 -17q-1 -16 -1.5 -30t-1 -33t-0.5 -46v-69v-218v-69t1 -46t1.5 -33t2.5 -32q2 -21 4 -31.5t10 -17.5t22.5 -9t29.5 -2l5 -5l2 -13l-2 -4q-7 0 -21 1t-30 1.5t-30 1t-21 0.5h-14q-7 0 -21.5 -0.5l-30 -1t-30 -1.5t-21.5 -1l-1 4l1 14
l4 4q16 0 31.5 1.5t23.5 9.5q8 7 10.5 18t4.5 31q1 13 1.5 26t1 30.5t0.5 41v58.5v366z" />
    <glyph glyph-name=".notdef" horiz-adv-x="266" 
d="M65 243q0 27 19.5 48t48.5 21q13 0 25.5 -5.5t22 -15.5t15 -22.5t5.5 -25.5q0 -29 -21 -48t-47 -19q-29 0 -48.5 19t-19.5 48z" />
    <glyph glyph-name="A" unicode="A" horiz-adv-x="675" 
d="M372 665l164 -454q10 -30 17.5 -50l13 -34l9.5 -23.5l7 -16.5q11 -25 22.5 -38.5t23.5 -20t24.5 -7.5t25.5 -1l5 -4l3 -18l-2 -4q-7 0 -21 1l-29 2t-28.5 2t-20.5 1h-33q-7 0 -23 -1l-33.5 -2l-33.5 -2t-23 -1l-2 4l3 18l4 4q29 0 45 6.5t16 35.5q0 23 -15.5 64.5
l-38.5 104.5l-17 48h-224l-17 -48l-38.5 -104.5t-15.5 -64.5q0 -29 16 -35.5t45 -6.5l5 -4l3 -18l-2 -4q-7 0 -22 1l-31.5 2l-31.5 2t-22 1h-19q-7 0 -21 -1l-29 -2t-28.5 -2t-20.5 -1l-1 4l2 18l5 4q13 0 25 1t24 7.5t23.5 20t23.5 38.5q3 5 5.5 11.5t8 19.5l14 34.5l22 56
l33 84.5l47.5 121l27 69.5l26 64.5l21.5 53t13.5 34l59 30h11zM228 322h191l-95 257z" />
    <glyph glyph-name="AE" unicode="&#xc6;" horiz-adv-x="868" 
d="M359 520l27 46.5t12 35.5q0 14 -7 21t-36 11l-4 4l-3 18l2 4q7 -1 26 -2t41.5 -2t43 -1.5t31.5 -0.5h136q13 0 39.5 0.5t53.5 1.5t49 1.5t27 0.5l4 -10l-4 -109h-25l-4 4q-2 23 -5.5 36t-20 19t-49.5 7t-93 1h-67q-5 -59 -5.5 -118t-0.5 -122q61 2 100 2.5t51 14.5
q7 8 13.5 21t6.5 28l4 4l18 2l3 -2q-2 -22 -3 -44t-1 -44q0 -24 1 -44.5t3 -44.5l-3 -2l-19 2l-3 3q0 16 -6 29.5t-14 22.5q-12 13 -49.5 13t-101.5 1v-114.5t0.5 -69t1.5 -42.5t3 -35q1 -19 21 -19h56q60 0 94.5 2.5t53 10.5t26 24.5t14.5 43.5l3 4h26l-18 -127l-8 -10
q-5 0 -23 0.5t-40.5 1.5t-45 1.5t-35.5 0.5h-173q-7 0 -23 -1l-33 -2l-33 -2t-23 -1l-2 4l3 18l4 4q16 0 30.5 1.5t23.5 8.5q8 7 15 18t9 39q1 7 1.5 18.5t1 36t0.5 68.5v118h-159l-77.5 -131t-45 -80t-20.5 -44.5t-5 -23.5q0 -20 16.5 -24.5t40.5 -4.5l5 -4l3 -18l-3 -4
q-7 0 -24.5 1t-37 2t-37 2t-24.5 1h-19q-7 0 -21 -1l-29 -2l-29 -2t-21 -1v4l2 18l5 4q18 2 41.5 5.5t37.5 13.5q10 7 20.5 19.5t21.5 28.5q3 5 17.5 27.5l35.5 57.5l47.5 78.5l54.5 90l55.5 93zM322 366h135v88.5v64.5t-0.5 44.5t-0.5 29.5z" />
    <glyph glyph-name="Aacute" unicode="&#xc1;" horiz-adv-x="675" 
d="M230 721l-6 20l3 7l180 100q17 -1 26 -10.5t9 -23.5q0 -5 -0.5 -9.5t-2.5 -9.5l-202 -77zM372 665l164 -454q10 -30 17.5 -50l13 -34l9.5 -23.5l7 -16.5q11 -25 22.5 -38.5t23.5 -20t24.5 -7.5t25.5 -1l5 -4l3 -18l-2 -4q-7 0 -21 1l-29 2t-28.5 2t-20.5 1h-33
q-7 0 -23 -1l-33.5 -2l-33.5 -2t-23 -1l-2 4l3 18l4 4q29 0 45 6.5t16 35.5q0 23 -15.5 64.5l-38.5 104.5l-17 48h-224l-17 -48l-38.5 -104.5t-15.5 -64.5q0 -29 16 -35.5t45 -6.5l5 -4l3 -18l-2 -4q-7 0 -22 1l-31.5 2l-31.5 2t-22 1h-19q-7 0 -21 -1l-29 -2t-28.5 -2
t-20.5 -1l-1 4l2 18l5 4q13 0 25 1t24 7.5t23.5 20t23.5 38.5q3 5 5.5 11.5t8 19.5l14 34.5l22 56l33 84.5l47.5 121l27 69.5l26 64.5l21.5 53t13.5 34l59 30h11zM228 322h191l-95 257z" />
    <glyph glyph-name="Acircumflex" unicode="&#xc2;" horiz-adv-x="675" 
d="M340 842l110 -99l3 -7l-6 -20l-7 -3l-104 62l-104 -62l-7 3l-6 20l3 7l110 99h8zM372 665l164 -454q10 -30 17.5 -50l13 -34l9.5 -23.5l7 -16.5q11 -25 22.5 -38.5t23.5 -20t24.5 -7.5t25.5 -1l5 -4l3 -18l-2 -4q-7 0 -21 1l-29 2t-28.5 2t-20.5 1h-33q-7 0 -23 -1
l-33.5 -2l-33.5 -2t-23 -1l-2 4l3 18l4 4q29 0 45 6.5t16 35.5q0 23 -15.5 64.5l-38.5 104.5l-17 48h-224l-17 -48l-38.5 -104.5t-15.5 -64.5q0 -29 16 -35.5t45 -6.5l5 -4l3 -18l-2 -4q-7 0 -22 1l-31.5 2l-31.5 2t-22 1h-19q-7 0 -21 -1l-29 -2t-28.5 -2t-20.5 -1l-1 4
l2 18l5 4q13 0 25 1t24 7.5t23.5 20t23.5 38.5q3 5 5.5 11.5t8 19.5l14 34.5l22 56l33 84.5l47.5 121l27 69.5l26 64.5l21.5 53t13.5 34l59 30h11zM228 322h191l-95 257z" />
    <glyph glyph-name="Adieresis" unicode="&#xc4;" horiz-adv-x="675" 
d="M372 665l164 -454q10 -30 17.5 -50l13 -34l9.5 -23.5l7 -16.5q11 -25 22.5 -38.5t23.5 -20t24.5 -7.5t25.5 -1l5 -4l3 -18l-2 -4q-7 0 -21 1l-29 2t-28.5 2t-20.5 1h-33q-7 0 -23 -1l-33.5 -2l-33.5 -2t-23 -1l-2 4l3 18l4 4q29 0 45 6.5t16 35.5q0 23 -15.5 64.5
l-38.5 104.5l-17 48h-224l-17 -48l-38.5 -104.5t-15.5 -64.5q0 -29 16 -35.5t45 -6.5l5 -4l3 -18l-2 -4q-7 0 -22 1l-31.5 2l-31.5 2t-22 1h-19q-7 0 -21 -1l-29 -2t-28.5 -2t-20.5 -1l-1 4l2 18l5 4q13 0 25 1t24 7.5t23.5 20t23.5 38.5q3 5 5.5 11.5t8 19.5l14 34.5l22 56
l33 84.5l47.5 121l27 69.5l26 64.5l21.5 53t13.5 34l59 30h11zM228 322h191l-95 257zM214 794q0 18 12 31.5t29 13.5t29.5 -13.5t12.5 -31.5q0 -19 -12.5 -31.5t-29.5 -12.5t-29 12.5t-12 31.5zM371 794q0 18 12 31.5t29 13.5q16 0 28.5 -13.5t12.5 -31.5q0 -19 -12.5 -31.5
t-28.5 -12.5q-17 0 -29 12.5t-12 31.5z" />
    <glyph glyph-name="Agrave" unicode="&#xc0;" horiz-adv-x="675" 
d="M429 718l-201 77q-4 9 -4 19q0 14 9 23.5t26 10.5l181 -100l2 -7l-5 -20zM372 665l164 -454q10 -30 17.5 -50l13 -34l9.5 -23.5l7 -16.5q11 -25 22.5 -38.5t23.5 -20t24.5 -7.5t25.5 -1l5 -4l3 -18l-2 -4q-7 0 -21 1l-29 2t-28.5 2t-20.5 1h-33q-7 0 -23 -1l-33.5 -2
l-33.5 -2t-23 -1l-2 4l3 18l4 4q29 0 45 6.5t16 35.5q0 23 -15.5 64.5l-38.5 104.5l-17 48h-224l-17 -48l-38.5 -104.5t-15.5 -64.5q0 -29 16 -35.5t45 -6.5l5 -4l3 -18l-2 -4q-7 0 -22 1l-31.5 2l-31.5 2t-22 1h-19q-7 0 -21 -1l-29 -2t-28.5 -2t-20.5 -1l-1 4l2 18l5 4
q13 0 25 1t24 7.5t23.5 20t23.5 38.5q3 5 5.5 11.5t8 19.5l14 34.5l22 56l33 84.5l47.5 121l27 69.5l26 64.5l21.5 53t13.5 34l59 30h11zM228 322h191l-95 257z" />
    <glyph glyph-name="Aring" unicode="&#xc5;" horiz-adv-x="676" 
d="M333 778q39 0 61 -23.5t22 -51.5q0 -17 -9.5 -33t-27.5 -26l157 -433q10 -30 17.5 -50l13 -34l9.5 -23.5l7 -16.5q11 -25 22.5 -38.5t23.5 -20t24.5 -7.5t25.5 -1l5 -4l3 -18l-2 -4q-7 0 -21 1l-29 2t-28.5 2t-20.5 1h-33q-7 0 -23 -1l-33.5 -2l-33.5 -2t-23 -1l-2 4
l3 18l4 4q29 0 45 6.5t16 35.5q0 23 -15.5 64.5l-38.5 104.5l-17 48h-224l-17 -48l-38.5 -104.5t-15.5 -64.5q0 -29 16 -35.5t45 -6.5l5 -4l3 -18l-2 -4q-7 0 -22 1l-31.5 2l-31.5 2t-22 1h-19q-7 0 -21 -1l-29 -2t-28.5 -2t-20.5 -1l-1 4l2 18l5 4q13 0 25 1t24 7.5
t23.5 20t23.5 38.5q3 5 5.5 11.5t8 19.5l14 34.5l22 56l33 84.5l47.5 121l25.5 66l25.5 64l22 54.5l16 38.5q-26 8 -39 28t-13 40q0 28 22 50.5t60 22.5zM228 322h191l-95 257zM334 656q20 0 32 15t12 32q0 18 -12.5 34t-33.5 16t-32.5 -15t-11.5 -32q0 -19 13 -34.5
t33 -15.5z" />
    <glyph glyph-name="Atilde" unicode="&#xc3;" horiz-adv-x="675" 
d="M372 665l164 -454q10 -30 17.5 -50l13 -34l9.5 -23.5l7 -16.5q11 -25 22.5 -38.5t23.5 -20t24.5 -7.5t25.5 -1l5 -4l3 -18l-2 -4q-7 0 -21 1l-29 2t-28.5 2t-20.5 1h-33q-7 0 -23 -1l-33.5 -2l-33.5 -2t-23 -1l-2 4l3 18l4 4q29 0 45 6.5t16 35.5q0 23 -15.5 64.5
l-38.5 104.5l-17 48h-224l-17 -48l-38.5 -104.5t-15.5 -64.5q0 -29 16 -35.5t45 -6.5l5 -4l3 -18l-2 -4q-7 0 -22 1l-31.5 2l-31.5 2t-22 1h-19q-7 0 -21 -1l-29 -2t-28.5 -2t-20.5 -1l-1 4l2 18l5 4q13 0 25 1t24 7.5t23.5 20t23.5 38.5q3 5 5.5 11.5t8 19.5l14 34.5l22 56
l33 84.5l47.5 121l27 69.5l26 64.5l21.5 53t13.5 34l59 30h11zM228 322h191l-95 257zM489 832q-3 -14 -9.5 -27.5t-17 -24.5t-25.5 -18t-36 -7q-40 0 -81.5 7t-73.5 7q-25 0 -35 -6.5t-20 -18.5l-13 8q4 13 11 27t17.5 24.5t26 17.5t36.5 7q25 0 43.5 -2t34.5 -5t31 -5
t34 -2q17 0 34 4t31 22z" />
    <glyph glyph-name="B" unicode="B" horiz-adv-x="587" 
d="M157 0q-7 0 -23 -1l-33 -2l-33 -2t-23 -1l-2 4l3 18l5 4q12 0 28 1.5t25 7.5q8 6 15 19t10 39q1 15 1.5 45t0.5 89v250v45.5t-2 50.5q-2 27 -9.5 39t-15.5 18q-9 5 -18.5 7.5t-34.5 2.5l-5 4l-3 18l2 4q7 0 18.5 -1l24 -2l25.5 -2t24 -1h36h25t28.5 0.5t26.5 0.5h19
q108 0 155 -41.5t47 -109.5q0 -30 -7.5 -53t-20.5 -40.5t-29 -30t-34 -21.5q73 -13 112.5 -55t39.5 -116q0 -50 -18 -85.5t-50.5 -58t-77.5 -33.5t-99 -11h-133zM202 332v-66t0.5 -74.5t1 -65.5t1.5 -39q2 -27 11 -33t24 -6h61q24 0 52.5 6t53.5 21t42 42t17 69
q0 36 -13 63.5t-36 45.5t-53.5 27.5t-66.5 9.5h-95zM249 369q32 0 61 4t52 21q22 14 36 40.5t14 62.5q0 53 -30 81t-85 28h-90q-2 -29 -2.5 -49t-1.5 -35t-1 -27v-23v-62q0 -23 2 -32t15 -9h30z" />
    <glyph glyph-name="C" unicode="C" horiz-adv-x="650" 
d="M551 535q-3 22 -19 37t-39.5 24t-52 12.5t-56.5 3.5q-99 0 -156 -45q-47 -38 -70.5 -101t-23.5 -138q0 -71 20.5 -124.5t56.5 -89.5t85.5 -54.5t107.5 -18.5q41 0 94.5 11.5t101.5 44.5l10 -11l-22 -45q-50 -27 -99.5 -39.5t-102.5 -12.5q-75 0 -136 24t-104.5 68.5
t-67.5 106t-24 136.5q0 70 21.5 132.5t64 108.5t105 73t145.5 27q18 0 42.5 -1.5t51.5 -5.5t55 -10.5t54 -16.5l3 -9l-13 -91h-29z" />
    <glyph glyph-name="Ccedilla" unicode="&#xc7;" horiz-adv-x="651" 
d="M276 -178l13 23h7q12 -5 31 -8.5t38 -3.5q22 0 38 8.5t16 31.5q0 27 -15.5 36.5t-36.5 9.5q-12 0 -24.5 -2t-23.5 -5l-9 11l44 67q-68 5 -123.5 31.5t-94.5 70t-60 102.5t-21 130q0 70 21.5 132.5t64 108.5t105 73t145.5 27q18 0 42.5 -1.5t51.5 -5.5t55 -10.5t54 -16.5
l3 -9l-13 -91h-29l-3 4q-3 22 -19 37t-39.5 24t-52 12.5t-56.5 3.5q-99 0 -156 -45q-47 -38 -70.5 -101t-23.5 -138q0 -71 20.5 -124.5t56.5 -89.5t85.5 -54.5t107.5 -18.5q41 0 94.5 11.5t101.5 44.5l10 -11l-22 -45q-48 -26 -96.5 -38.5t-98.5 -13.5l-23 -40q8 3 14 3.5
t14 0.5q35 0 57 -20.5t22 -51.5q0 -17 -8.5 -32t-23 -26.5t-34.5 -18.5t-44 -7t-47.5 5.5t-43.5 13.5z" />
    <glyph glyph-name="D" unicode="D" horiz-adv-x="734" 
d="M129 567q-2 25 -9 37.5t-16 19.5q-9 5 -18.5 7.5t-34.5 2.5l-5 4l-3 18l2 4q7 0 20 -1t28 -2l29.5 -2t25.5 -1h57q13 0 32.5 0.5t40 1.5t40 1.5t31.5 0.5q78 0 139.5 -26.5t103.5 -71.5t64.5 -105t22.5 -127q0 -66 -21.5 -125.5t-63.5 -105t-105 -72.5t-146 -27
q-9 0 -27 0.5t-38 0.5t-38.5 0.5t-29.5 0.5h-53q-7 0 -23 -1l-33 -2l-33 -2t-23 -1l-2 4l3 18l5 4q12 0 28 1.5t25 7.5q8 6 15 19t10 39q0 7 0.5 16.5t1 23.5t0.5 34v50v203v30.5v43.5t-0.5 45t-1.5 34zM350 48q60 0 106 22t77.5 59.5t48 88.5t16.5 110q0 60 -17 111
t-49.5 88t-79.5 58t-107 21h-138q-2 -29 -2.5 -48.5t-1.5 -39.5t-1 -43.5v-59.5v-184q0 -60 0.5 -93.5t2.5 -50.5q3 -26 13 -32.5t36 -6.5h96z" />
    <glyph glyph-name="E" unicode="E" horiz-adv-x="571" 
d="M331 654q13 0 39.5 0.5t53.5 1.5t48.5 1.5t26.5 0.5l5 -10l-4 -109h-25l-4 4q-2 23 -5.5 36t-20 19t-49.5 7t-93 1h-96l-2 -39q-1 -16 -1.5 -27t-1 -27t-0.5 -38.5v-108.5q30 1 60 1t54.5 1t41.5 4.5t23 10.5q8 8 14 16t6 23l5 5l17 2l4 -2l-3.5 -40t-1.5 -39
q0 -24 1.5 -44.5t3.5 -44.5l-4 -2l-18 2l-4 3q0 16 -6 29.5t-14 22.5q-6 6 -23 9t-41 4t-54 1h-61v-97v-58.5t0.5 -40t1.5 -32t3 -33.5q0 -19 20 -19h85q60 0 94.5 2.5t52.5 10.5t25.5 24.5t14.5 43.5l4 4h26l-18 -127l-8 -10q-5 0 -23 0.5t-40.5 1.5t-45 1.5t-35.5 0.5
h-202q-7 0 -23 -1l-33 -2l-33 -2t-23 -1l-2 4l3 18l5 4q16 0 30 1.5t23 8.5q8 7 15.5 18t9.5 39q0 7 0.5 16.5t1 23.5t0.5 34v50v203v59v41t-0.5 29t-1.5 24q-2 27 -9.5 38.5t-15.5 18.5q-9 7 -23 8.5t-30 1.5l-5 4l-3 18l2 4q7 0 23 -1t34.5 -2l36 -2t28.5 -1h164z" />
    <glyph glyph-name="Eacute" unicode="&#xc9;" horiz-adv-x="571" 
d="M182 721l-6 20l3 7l181 100q17 -1 26 -10.5t9 -23.5q0 -10 -4 -19l-202 -77zM331 654q13 0 39.5 0.5t53.5 1.5t48.5 1.5t26.5 0.5l5 -10l-4 -109h-25l-4 4q-2 23 -5.5 36t-20 19t-49.5 7t-93 1h-96l-2 -39q-1 -14 -1.5 -26t-1 -28t-0.5 -39v-108q30 1 60 1t54.5 1
t41.5 4.5t23 10.5q8 8 14 16t6 23l5 5l17 2l4 -2l-3.5 -40t-1.5 -39q0 -24 1.5 -44.5t3.5 -44.5l-4 -2l-18 2l-4 3q0 16 -6 29.5t-14 22.5q-6 6 -23 9t-41 4t-54 1h-61v-97v-58.5t0.5 -40t1.5 -32t3 -33.5q0 -19 20 -19h85q60 0 94.5 2.5t52.5 10.5t25.5 24.5t14.5 43.5l4 4
h26l-18 -127l-8 -10q-5 0 -23 0.5t-40.5 1.5t-45 1.5t-35.5 0.5h-202q-7 0 -23 -1l-33 -2l-33 -2t-23 -1l-2 4l3 18l5 4q16 0 30 1.5t23 8.5q8 7 15.5 18t9.5 39q0 7 0.5 16.5t1 23.5t0.5 34v50v203v59v41t-0.5 29t-1.5 24q-2 27 -9.5 38.5t-15.5 18.5q-9 7 -23 8.5t-30 1.5
l-5 4l-3 18l2 4q7 0 23 -1t34.5 -2l36 -2t28.5 -1h164z" />
    <glyph glyph-name="Ecircumflex" unicode="&#xca;" horiz-adv-x="571" 
d="M299 842l110 -99l3 -7l-6 -20l-7 -3l-104 62l-104 -62l-7 3l-6 20l3 7l110 99h8zM331 654q13 0 39.5 0.5t53.5 1.5t48.5 1.5t26.5 0.5l5 -10l-4 -109h-25l-4 4q-2 23 -5.5 36t-20 19t-49.5 7t-93 1h-96l-2 -39q-1 -14 -1.5 -26t-1 -28t-0.5 -39v-108q30 1 60 1t54.5 1
t41.5 4.5t23 10.5q8 8 14 16t6 23l5 5l17 2l4 -2l-3.5 -40t-1.5 -39q0 -24 1.5 -44.5t3.5 -44.5l-4 -2l-18 2l-4 3q0 16 -6 29.5t-14 22.5q-6 6 -23 9t-41 4t-54 1h-61v-97v-58.5t0.5 -40t1.5 -32t3 -33.5q0 -19 20 -19h85q60 0 94.5 2.5t52.5 10.5t25.5 24.5t14.5 43.5l4 4
h26l-18 -127l-8 -10q-5 0 -23 0.5t-40.5 1.5t-45 1.5t-35.5 0.5h-202q-7 0 -23 -1l-33 -2l-33 -2t-23 -1l-2 4l3 18l5 4q16 0 30 1.5t23 8.5q8 7 15.5 18t9.5 39q0 7 0.5 16.5t1 23.5t0.5 34v50v203v59v41t-0.5 29t-1.5 24q-2 27 -9.5 38.5t-15.5 18.5q-9 7 -23 8.5t-30 1.5
l-5 4l-3 18l2 4q7 0 23 -1t34.5 -2l36 -2t28.5 -1h164z" />
    <glyph glyph-name="Edieresis" unicode="&#xcb;" horiz-adv-x="571" 
d="M331 654q13 0 39.5 0.5t53.5 1.5t48.5 1.5t26.5 0.5l5 -10l-4 -109h-25l-4 4q-2 23 -5.5 36t-20 19t-49.5 7t-93 1h-96l-2 -39q-1 -14 -1.5 -26t-1 -28t-0.5 -39v-108q30 1 60 1t54.5 1t41.5 4.5t23 10.5q8 8 14 16t6 23l5 5l17 2l4 -2l-3.5 -40t-1.5 -39
q0 -24 1.5 -44.5t3.5 -44.5l-4 -2l-18 2l-4 3q0 16 -6 29.5t-14 22.5q-6 6 -23 9t-41 4t-54 1h-61v-97v-58.5t0.5 -40t1.5 -32t3 -33.5q0 -19 20 -19h85q60 0 94.5 2.5t52.5 10.5t25.5 24.5t14.5 43.5l4 4h26l-18 -127l-8 -10q-5 0 -23 0.5t-40.5 1.5t-45 1.5t-35.5 0.5
h-202q-7 0 -23 -1l-33 -2l-33 -2t-23 -1l-2 4l3 18l5 4q16 0 30 1.5t23 8.5q8 7 15.5 18t9.5 39q0 7 0.5 16.5t1 23.5t0.5 34v50v203v59v41t-0.5 29t-1.5 24q-2 27 -9.5 38.5t-15.5 18.5q-9 7 -23 8.5t-30 1.5l-5 4l-3 18l2 4q7 0 23 -1t34.5 -2l36 -2t28.5 -1h164zM166 794
q0 18 12 31.5t29 13.5t29.5 -13.5t12.5 -31.5q0 -19 -12.5 -31.5t-29.5 -12.5t-29 12.5t-12 31.5zM323 794q0 18 12 31.5t29 13.5t29.5 -13.5t12.5 -31.5q0 -19 -12.5 -31.5t-29.5 -12.5t-29 12.5t-12 31.5z" />
    <glyph glyph-name="Egrave" unicode="&#xc8;" horiz-adv-x="571" 
d="M381 718l-201 77q-4 9 -4 19q0 14 9 23.5t26 10.5l181 -100l3 -7l-6 -20zM331 654q13 0 39.5 0.5t53.5 1.5t48.5 1.5t26.5 0.5l5 -10l-4 -109h-25l-4 4q-2 23 -5.5 36t-20 19t-49.5 7t-93 1h-96l-2 -39q-1 -14 -1.5 -26t-1 -28t-0.5 -39v-108q30 1 60 1t54.5 1t41.5 4.5
t23 10.5q8 8 14 16t6 23l5 5l17 2l4 -2l-3.5 -40t-1.5 -39q0 -24 1.5 -44.5t3.5 -44.5l-4 -2l-18 2l-4 3q0 16 -6 29.5t-14 22.5q-6 6 -23 9t-41 4t-54 1h-61v-97v-58.5t0.5 -40t1.5 -32t3 -33.5q0 -19 20 -19h85q60 0 94.5 2.5t52.5 10.5t25.5 24.5t14.5 43.5l4 4h26
l-18 -127l-8 -10q-5 0 -23 0.5t-40.5 1.5t-45 1.5t-35.5 0.5h-202q-7 0 -23 -1l-33 -2l-33 -2t-23 -1l-2 4l3 18l5 4q16 0 30 1.5t23 8.5q8 7 15.5 18t9.5 39q0 7 0.5 16.5t1 23.5t0.5 34v50v203v59v41t-0.5 29t-1.5 24q-2 27 -9.5 38.5t-15.5 18.5q-9 7 -23 8.5t-30 1.5
l-5 4l-3 18l2 4q7 0 23 -1t34.5 -2l36 -2t28.5 -1h164z" />
    <glyph glyph-name="Eth" unicode="&#xd0;" horiz-adv-x="735" 
d="M52 370h80v44v30.5v43.5t-0.5 45t-1.5 34q-2 25 -9 37.5t-16 19.5q-9 5 -18.5 7.5t-34.5 2.5l-5 4l-3 18l2 4q7 0 20 -1t28 -2l29.5 -2t25.5 -1h57q13 0 32.5 0.5t40 1.5t40 1.5t31.5 0.5q78 0 139.5 -26.5t103.5 -71.5t64.5 -105t22.5 -127q0 -66 -21.5 -125.5
t-63.5 -105t-105 -72.5t-146 -27q-9 0 -27 0.5t-38 0.5t-38.5 0.5t-29.5 0.5h-53q-7 0 -23 -1l-33 -2l-33 -2t-23 -1l-2 4l3 18l5 4q12 0 28 1.5t25 7.5q8 6 15 19t10 39q0 7 0.5 16.5t1 23.5t0.5 34v50v115h-88zM351 48q60 0 106 22t77.5 59.5t48 88.5t16.5 110
q0 60 -17 111t-49.5 88t-79.5 58t-107 21h-138q-2 -29 -2.5 -48.5t-1.5 -39.5t-1 -43.5v-59.5v-45h178l-8 -44h-170v-95q0 -60 0.5 -93.5t2.5 -50.5q3 -26 13 -32.5t36 -6.5h96z" />
    <glyph glyph-name="Euro" unicode="&#x20ac;" horiz-adv-x="631" 
d="M449 263h-253q7 -55 26 -96.5t46.5 -69.5t63 -42t76.5 -14q16 0 36.5 2.5t42 9t43 17t40.5 27.5l8 -11l-20 -45q-39 -27 -80.5 -39.5t-83.5 -12.5q-54 0 -101 19.5t-83 55.5t-59.5 86.5t-31.5 112.5h-80l7 44h70v53h-77l8 44h75q10 56 33 104t58.5 83t81.5 54.5t102 19.5
q15 0 34.5 -1.5t41 -5.5t44 -10.5t43.5 -16.5l2 -9l-15 -91h-28l-3 4q-3 25 -14 40t-27.5 23t-37 11t-40.5 3q-47 0 -76 -11t-52 -34q-29 -29 -46.5 -70.5t-25.5 -92.5h277l-8 -44h-274v-53h265z" />
    <glyph glyph-name="F" unicode="F" horiz-adv-x="529" 
d="M129 567q-2 28 -9.5 39t-15.5 18q-9 7 -23 8.5t-30 1.5l-5 4l-3 18l2 4q7 0 23 -1l33 -2l33 -2t23 -1h174q13 0 39.5 0.5t53.5 1.5t48.5 1.5t26.5 0.5l5 -10l-4 -109h-25l-4 4q-2 23 -5.5 36t-20 19t-49.5 7t-93 1h-96l-2 -39q-1 -14 -1.5 -26t-1 -28t-0.5 -39v-108
q30 1 60 1t54.5 1t41.5 4.5t23 10.5q8 8 14 16t6 23l5 5l17 2l4 -2l-3.5 -40t-1.5 -39q0 -24 1.5 -44.5t3.5 -44.5l-4 -2l-18 2l-4 3q0 16 -6 29.5t-14 22.5q-6 6 -23 9t-41 4t-54 1h-61v-97v-58.5t0.5 -37.5t1 -25.5t1.5 -22.5q2 -28 10.5 -39t16.5 -18q9 -7 26.5 -8.5
t33.5 -1.5l5 -4l3 -18l-2 -4q-7 0 -24.5 1l-36.5 2l-36.5 2t-24.5 1h-19q-7 0 -23 -1l-33 -2l-33 -2t-23 -1l-2 4l3 18l5 4q16 0 30 1.5t23 8.5q8 7 15.5 18t9.5 39q0 7 0.5 16.5t1 23.5t0.5 34v50v203v59t-0.5 41t-1 29t-0.5 24z" />
    <glyph glyph-name="G" unicode="G" horiz-adv-x="708" 
d="M607 25q-48 -15 -100.5 -25.5t-109.5 -10.5q-87 0 -151.5 26.5t-107 72.5t-63.5 107t-21 129q0 72 22.5 134t66.5 108t109 72.5t151 26.5q18 0 43.5 -1.5t53.5 -5.5t57 -10.5t55 -16.5l2 -9l-17 -97h-28l-4 3q-7 40 -46.5 62t-120.5 22q-113 0 -172 -47q-24 -19 -41 -45
t-28.5 -57t-17 -65.5t-5.5 -68.5q0 -67 19.5 -120t53.5 -89.5t81 -56t102 -19.5q17 0 38.5 1.5t42 4.5t36.5 7t22 8q8 5 8 21v19v25.5t-0.5 27t-1.5 23.5q-2 26 -10.5 39.5t-14.5 17.5q-9 7 -27 8.5t-34 1.5l-5 4l-3 22l2 4q7 0 22.5 -1l32 -2l32 -2t22.5 -1h30q7 0 19 1
l25 2l25 2t19 1l2 -4l-2 -24l-5 -4q-29 0 -40.5 -16.5t-13.5 -48.5q-2 -25 -2.5 -53.5t-0.5 -42.5q0 -15 0.5 -32.5t2.5 -22.5z" />
    <glyph glyph-name="H" unicode="H" horiz-adv-x="760" 
d="M715 -6q-7 0 -23 1l-33 2l-33 2t-23 1h-19q-7 0 -23 -1l-33 -2l-33 -2t-23 -1l-2 4l3 18l4 4q16 0 30.5 1.5t23.5 8.5q8 7 14.5 18t9.5 39q1 7 1.5 16.5t1 23.5t0.5 34v50v115h-356v-95v-58.5t0.5 -37.5t1 -25.5t1.5 -22.5q2 -28 9 -39t15 -18q9 -7 23.5 -8.5t30.5 -1.5
l4 -4l3 -18l-2 -4q-7 0 -23 1l-33 2l-33 2t-23 1h-19q-7 0 -23 -1l-33 -2l-33 -2t-23 -1l-2 4l3 18l5 4q16 0 30 1.5t23 8.5q8 7 15.5 18t9.5 39q0 7 0.5 16.5t1 23.5t0.5 34v50v203v59t-0.5 41t-1 29t-1.5 24q-2 27 -9 38.5t-15 18.5q-9 7 -23 8.5t-30 1.5l-5 4l-3 18l2 4
q7 0 23 -1l33 -2l33 -2t23 -1h19q7 0 23 1l33 2l33 2t23 1l2 -4l-3 -18l-4 -4q-16 0 -30.5 -1.5t-23.5 -8.5q-8 -7 -15 -18t-9 -39q-1 -14 -1.5 -26t-1 -28t-0.5 -39v-59v-45h356v44v59t-0.5 41t-1 29t-1.5 24q-2 28 -9 39t-15 18q-9 7 -23.5 8.5t-30.5 1.5l-4 4l-3 18l2 4
q7 0 23 -1l33 -2l33 -2t23 -1h19q7 0 23 1l33 2l33 2t23 1l2 -4l-3 -18l-5 -4q-16 0 -30 -1.5t-23 -8.5q-8 -7 -15.5 -18t-9.5 -39q-1 -14 -1.5 -26t-0.5 -28v-39v-59v-184v-58.5v-37.5t0.5 -25.5t1.5 -22.5q2 -28 9.5 -39t15.5 -18q9 -7 23 -8.5t30 -1.5l5 -4l3 -18z" />
    <glyph glyph-name="I" unicode="I" horiz-adv-x="333" 
d="M290 656l-3 -18l-4 -4q-16 0 -30.5 -1.5t-23.5 -8.5q-8 -7 -15 -18t-9 -39q-1 -14 -1.5 -26t-1 -28t-0.5 -39v-59v-184v-58.5t0.5 -37.5t1 -25.5t1.5 -22.5q2 -28 9 -39t15 -18q9 -7 23.5 -8.5t30.5 -1.5l4 -4l3 -18l-2 -4q-7 0 -23 1l-33 2l-33 2t-23 1h-19q-7 0 -23 -1
l-33 -2l-33 -2t-23 -1l-2 4l3 18l5 4q16 0 30 1.5t23 8.5q8 7 15.5 18t9.5 39q0 7 0.5 16.5t1 23.5t0.5 34v50v203v59t-0.5 41t-1 29t-1.5 24q-2 26 -9 38t-15 19q-9 7 -23 8.5t-30 1.5l-5 4l-3 18l2 4q7 0 23 -1l33 -2l33 -2t23 -1h19q7 0 23 1l33 2l33 2t23 1z" />
    <glyph glyph-name="Iacute" unicode="&#xcd;" horiz-adv-x="333" 
d="M63 721l-6 20l3 7l181 100q17 -1 26 -10.5t9 -23.5q0 -10 -4 -19l-201 -77zM290 656l-3 -18l-4 -4q-16 0 -30.5 -1.5t-23.5 -8.5q-8 -7 -15 -18t-9 -39q-1 -14 -1.5 -26t-1 -28t-0.5 -39v-59v-184v-58.5t0.5 -37.5t1 -25.5t1.5 -22.5q2 -28 9 -39t15 -18q9 -7 23.5 -8.5
t30.5 -1.5l4 -4l3 -18l-2 -4q-7 0 -23 1l-33 2l-33 2t-23 1h-19q-7 0 -23 -1l-33 -2l-33 -2t-23 -1l-2 4l3 18l5 4q16 0 30 1.5t23 8.5q8 7 15.5 18t9.5 39q0 7 0.5 16.5t1 23.5t0.5 34v50v203v59t-0.5 41t-1 29t-1.5 24q-2 26 -9 38t-15 19q-9 7 -23 8.5t-30 1.5l-5 4
l-3 18l2 4q7 0 23 -1l33 -2l33 -2t23 -1h19q7 0 23 1l33 2l33 2t23 1z" />
    <glyph glyph-name="Icircumflex" unicode="&#xce;" horiz-adv-x="333" 
d="M170 842l111 -99l3 -7l-6 -20l-8 -3l-103 62l-104 -62l-8 3l-5 20l3 7l110 99h7zM290 656l-3 -18l-4 -4q-16 0 -30.5 -1.5t-23.5 -8.5q-8 -7 -15 -18t-9 -39q-1 -14 -1.5 -26t-1 -28t-0.5 -39v-59v-184v-58.5t0.5 -37.5t1 -25.5t1.5 -22.5q2 -28 9 -39t15 -18
q9 -7 23.5 -8.5t30.5 -1.5l4 -4l3 -18l-2 -4q-7 0 -23 1l-33 2l-33 2t-23 1h-19q-7 0 -23 -1l-33 -2l-33 -2t-23 -1l-2 4l3 18l5 4q16 0 30 1.5t23 8.5q8 7 15.5 18t9.5 39q0 7 0.5 16.5t1 23.5t0.5 34v50v203v59t-0.5 41t-1 29t-1.5 24q-2 26 -9 38t-15 19q-9 7 -23 8.5
t-30 1.5l-5 4l-3 18l2 4q7 0 23 -1l33 -2l33 -2t23 -1h19q7 0 23 1l33 2l33 2t23 1z" />
    <glyph glyph-name="Idieresis" unicode="&#xcf;" horiz-adv-x="333" 
d="M290 656l-3 -18l-4 -4q-16 0 -30.5 -1.5t-23.5 -8.5q-8 -7 -15 -18t-9 -39q-1 -14 -1.5 -26t-1 -28t-0.5 -39v-59v-184v-58.5t0.5 -37.5t1 -25.5t1.5 -22.5q2 -28 9 -39t15 -18q9 -7 23.5 -8.5t30.5 -1.5l4 -4l3 -18l-2 -4q-7 0 -23 1l-33 2l-33 2t-23 1h-19q-7 0 -23 -1
l-33 -2l-33 -2t-23 -1l-2 4l3 18l5 4q16 0 30 1.5t23 8.5q8 7 15.5 18t9.5 39q0 7 0.5 16.5t1 23.5t0.5 34v50v203v59t-0.5 41t-1 29t-1.5 24q-2 26 -9 38t-15 19q-9 7 -23 8.5t-30 1.5l-5 4l-3 18l2 4q7 0 23 -1l33 -2l33 -2t23 -1h19q7 0 23 1l33 2l33 2t23 1zM51 794
q0 18 12 31.5t29 13.5t29.5 -13.5t12.5 -31.5q0 -19 -12.5 -31.5t-29.5 -12.5t-29 12.5t-12 31.5zM208 794q0 18 12 31.5t29 13.5t29.5 -13.5t12.5 -31.5q0 -19 -12.5 -31.5t-29.5 -12.5t-29 12.5t-12 31.5z" />
    <glyph glyph-name="Igrave" unicode="&#xcc;" horiz-adv-x="333" 
d="M263 718l-202 77q-4 9 -4 19q0 14 9 23.5t26 10.5l181 -100l3 -7l-6 -20zM290 656l-3 -18l-4 -4q-16 0 -30.5 -1.5t-23.5 -8.5q-8 -7 -15 -18t-9 -39q-1 -14 -1.5 -26t-1 -28t-0.5 -39v-59v-184v-58.5t0.5 -37.5t1 -25.5t1.5 -22.5q2 -28 9 -39t15 -18q9 -7 23.5 -8.5
t30.5 -1.5l4 -4l3 -18l-2 -4q-7 0 -23 1l-33 2l-33 2t-23 1h-19q-7 0 -23 -1l-33 -2l-33 -2t-23 -1l-2 4l3 18l5 4q16 0 30 1.5t23 8.5q8 7 15.5 18t9.5 39q0 7 0.5 16.5t1 23.5t0.5 34v50v203v59t-0.5 41t-1 29t-1.5 24q-2 26 -9 38t-15 19q-9 7 -23 8.5t-30 1.5l-5 4
l-3 18l2 4q7 0 23 -1l33 -2l33 -2t23 -1h19q7 0 23 1l33 2l33 2t23 1z" />
    <glyph glyph-name="J" unicode="J" horiz-adv-x="318" 
d="M283 656l-3 -18l-4 -4q-16 0 -30.5 -1.5t-23.5 -8.5q-8 -7 -15 -18t-9 -39q-1 -14 -1.5 -26t-1 -28t-0.5 -39v-59v-184v-60.5t-0.5 -41.5t-0.5 -29.5v-23.5q0 -40 -9 -79t-25.5 -70.5t-41 -52.5t-55.5 -27q-8 -2 -18 -2.5t-18 -0.5l-8 3l-2 22l4 5q13 0 23 0.5t20 4.5
q12 7 23 18q28 28 32.5 104t4.5 210v203v59t-0.5 41t-1 29t-1.5 24q-2 27 -9 38.5t-15 18.5q-9 7 -23 8.5t-30 1.5l-5 4l-3 18l2 4q7 0 23 -1l33 -2l33 -2t23 -1h19q7 0 23 1l33 2l33 2t23 1z" />
    <glyph glyph-name="K" unicode="K" horiz-adv-x="656" 
d="M290 656l-3 -18l-4 -4q-16 0 -30.5 -1.5t-23.5 -8.5q-8 -7 -15 -18t-9 -39q-1 -14 -1.5 -26t-1 -28t-0.5 -39v-59v-68q27 17 65.5 49t74.5 68q43 43 72 80.5t29 51.5q0 11 -5 17.5t-12.5 10.5t-17 6l-19.5 4l-5 4v18l5 4q40 -6 88 -6h49h20.5t17 1t18.5 2t24 3l4 -4v-18
l-4 -4q-13 -3 -35 -7.5t-37 -14.5q-10 -6 -22.5 -19t-30 -33l-41.5 -47t-58 -61l-80 -82q83 -126 184 -245l37 -41t36.5 -31t43.5 -21t58 -12l6 -4l2 -18l-2 -4q-22 0 -50 -2t-44 -2q-26 0 -45 5.5t-36.5 18.5t-36.5 34t-43 51l-23 31.5l-45.5 64l-52 74l-42.5 61.5h-4
q-11 -8 -21 -14.5t-22 -16.5v-68v-58.5t0.5 -37.5t1 -25.5t1.5 -22.5q2 -28 9 -39t15 -18q9 -7 23.5 -8.5t30.5 -1.5l4 -4l3 -18l-2 -4q-7 0 -23 1l-33 2l-33 2t-23 1h-19q-7 0 -23 -1l-33 -2l-33 -2t-23 -1l-2 4l3 18l5 4q16 0 30 1.5t23 8.5q8 7 15.5 18t9.5 39
q0 7 0.5 16.5t1 23.5t0.5 34v50v203v59v41t-0.5 29t-1.5 24q-2 27 -9.5 38.5t-15.5 18.5q-9 7 -23 8.5t-30 1.5l-5 4l-3 18l2 4q7 0 23 -1l33 -2l33 -2t23 -1h19q7 0 23 1l33 2l33 2t23 1z" />
    <glyph glyph-name="L" unicode="L" horiz-adv-x="516" 
d="M128 567q-2 28 -9 39t-15 18q-9 7 -23 8.5t-30 1.5l-5 4l-3 18l2 4q7 0 23 -1l33 -2l33 -2t23 -1h19q7 0 23 1l33 2l33 2t23 1l2 -4l-3 -18l-4 -4q-16 0 -30.5 -1.5t-23.5 -8.5q-8 -7 -15.5 -18.5t-9.5 -38.5q-1 -14 -1.5 -26t-0.5 -28v-39v-59v-184v-58t0.5 -40t1.5 -32
t2 -34t21 -19h85q60 0 90.5 2.5t44 10.5t16.5 24.5t10 43.5l3 4h26l-18 -127l-8 -10q-5 0 -18.5 0.5t-31 1.5t-36 1.5t-31.5 0.5h-202q-7 0 -23 -1l-33 -2l-33 -2t-23 -1l-2 4l3 18l5 4q16 0 30 1.5t23 8.5q8 7 15 20t10 37q1 7 1.5 16.5t0.5 23.5v34v50v203v59t-0.5 41
t-1 29t-1.5 24z" />
    <glyph glyph-name="M" unicode="M" horiz-adv-x="901" 
d="M874 -6q-7 0 -23 1l-33 2l-33 2t-23 1h-19q-7 0 -23 -1l-33 -2l-33 -2t-23 -1l-3 4l3 18l4 4q16 0 30.5 1.5t22.5 8.5q7 7 13.5 18t6.5 39v16.5t-0.5 23.5t-1.5 34t-3 50l-12.5 167.5t-7.5 97.5t-4.5 50l-2.5 25l-22 -55.5l-34.5 -86l-41.5 -103.5l-43.5 -109l-41 -102
l-33.5 -82h-47l-200 536l-2 -21t-2 -26.5t-2.5 -36t-3.5 -50.5l-14 -184q-3 -34 -4 -56t-2 -38t-1 -27v-23q0 -28 6.5 -39t14.5 -18t18.5 -8.5t26.5 -1.5l4 -4l3 -18l-2 -4q-7 0 -20.5 1l-27.5 2l-27.5 2t-20.5 1h-19q-7 0 -22.5 -1t-33 -2t-33 -2t-22.5 -1l-2 4l3 18l6 4
q15 0 29 1.5t24 8.5q8 7 16.5 18t12.5 39q1 7 2 16.5l2.5 23.5l3.5 34t4 50l14 203q3 35 4.5 59t2 41t1 29t0.5 24q0 28 -8.5 39.5t-16.5 17.5q-9 7 -23 8.5t-30 1.5l-5 4l-3 18l2 4q7 0 23 -1l33 -2l33 -2t23 -1h35q8 0 22.5 1t23.5 3l5 -3q1 -13 7.5 -34.5t16 -48.5
l20.5 -57.5l22 -60.5l68 -185q17 -48 31 -81.5l25 -59.5q3 5 17 38.5l34.5 83l43.5 108.5l44 115.5t36 104.5t19 76l5 4q8 -2 17 -3t17 -1h36q7 0 23 1l33 2l33 2t23 1l2 -4l-3 -18l-5 -4q-16 0 -30.5 -1.5t-22.5 -8.5q-8 -6 -16.5 -18t-8.5 -39q0 -14 0.5 -26t1 -28t2 -39
t4.5 -59l12 -184q3 -36 4.5 -58.5t3 -37.5t3 -25.5t3.5 -22.5q4 -28 12 -39t16 -18q9 -7 23.5 -8.5t30.5 -1.5l5 -4l3 -18z" />
    <glyph glyph-name="M.salt" horiz-adv-x="859" 
d="M814 -6q-7 0 -23 1l-33 2l-33 2t-23 1h-19q-7 0 -23 -1l-33 -2l-33 -2t-23 -1l-2 4l3 18l4 4q16 0 30.5 1.5t23.5 8.5q8 7 15 18t9 39q1 7 1.5 16.5t1 23.5t0.5 34v50v203q0 57 -1 86.5t-2 48.5l-15 -37l-22 -55.5l-31 -80l-43 -108.5q-24 -62 -48.5 -116l-44.5 -99
l-9 -12l-23 -8h-17l-14 10l-8 13l-185 491q-1 -10 -1.5 -21t-0.5 -26v-35.5v-49.5v-184v-58.5t0.5 -37.5t1 -25.5t1.5 -22.5q2 -28 9.5 -39.5t15.5 -17.5q8 -7 19 -8.5t26 -1.5l5 -4l3 -18l-2 -4q-7 0 -20 1t-27.5 2t-27.5 2t-20 1h-19q-7 0 -23 -1l-33 -2l-33 -2t-23 -1
l-2 4l3 18l5 4q16 0 30 1.5t23 8.5q8 7 15.5 18t9.5 39q0 7 0.5 16.5t1 23.5t0.5 34v50v203v59v41t-0.5 29t-1.5 24q-2 28 -10 39.5t-15 17.5q-9 7 -23 8.5t-30 1.5l-5 4l-3 18l2 4q7 0 23 -1l33 -2l33 -2t23 -1h35q8 0 19.5 1t20.5 3l5 -3q1 -13 8 -35t17 -49.5l21.5 -58
l22.5 -60.5l68 -185l16 -42l13.5 -34l13 -31l14.5 -32q9 17 20.5 41t27.5 61.5l37 91t48 130.5l41 114.5t22 87.5l5 4q16 -4 34 -4h36q7 0 23 1l33 2l33 2t23 1l2 -4l-3 -18l-5 -4q-16 0 -30.5 -1.5t-22.5 -8.5t-15.5 -18t-9.5 -39q-1 -14 -1.5 -26t-1 -28t-0.5 -39v-59
v-184v-58.5t0.5 -37.5t1 -25.5t1.5 -22.5q2 -28 10 -39.5t15 -17.5q8 -7 22.5 -8.5t30.5 -1.5l5 -4l3 -18z" />
    <glyph glyph-name="N" unicode="N" horiz-adv-x="746" 
d="M708 656l-2 -18l-5 -4q-16 0 -30.5 -1.5t-22.5 -8.5t-14.5 -18t-8.5 -39q-1 -14 -1.5 -26t-1 -28t-0.5 -39v-59v-176q0 -56 0.5 -92t1 -61.5t2 -45.5t3.5 -44l-8 -5l-62 4l-10 12l-356 533q0 -10 -0.5 -20t-0.5 -24.5v-33.5v-47v-184v-31.5t0.5 -40.5l1 -40.5t1.5 -31.5
q2 -25 8.5 -37.5t16.5 -19.5q8 -6 21 -8t33 -2l5 -4l3 -18l-2 -4q-7 0 -21.5 1t-30.5 2t-30.5 2t-21.5 1h-19q-7 0 -23 -1l-33 -2l-33 -2t-23 -1l-2 4l3 18l5 4q18 0 30.5 1.5t22.5 8.5q7 5 14.5 16.5t10.5 40.5q1 7 1.5 16.5t0.5 23.5v34v50v203v59v41t-0.5 29t-1.5 24
q-2 21 -9 35.5t-16 21.5t-22.5 8.5t-30.5 1.5l-5 4l-3 18l2 4q7 0 20.5 -1l27.5 -2l27.5 -2t20.5 -1h35q8 0 22.5 1t23.5 3l5 -3q4 -14 16.5 -38.5t30 -54.5l38 -64l41.5 -67q76 -122 132.5 -199l72.5 -100q0 7 0.5 13t0.5 14v20v32v203v59t-0.5 41t-1 29t-1.5 24
q-2 28 -9 39t-15 18q-9 7 -23.5 8.5t-30.5 1.5l-4 4l-3 18l2 4q7 0 20 -1l26.5 -2l26.5 -2t20 -1h47q7 0 20 0.5t27 1.5l27 2t20 2z" />
    <glyph glyph-name="Ntilde" unicode="&#xd1;" horiz-adv-x="746" 
d="M522 832q-3 -14 -9.5 -27.5t-17 -24.5t-25.5 -18t-36 -7q-40 0 -81.5 7t-73.5 7q-25 0 -35 -6.5t-20 -18.5l-13 8q4 13 11 27t17.5 24.5t26 17.5t36.5 7q25 0 43.5 -2t34.5 -5t31 -5t34 -2q17 0 34 4t31 22zM708 656l-2 -18l-5 -4q-16 0 -30.5 -1.5t-22.5 -8.5t-14.5 -18
t-8.5 -39q-1 -14 -1.5 -26t-1 -28t-0.5 -39v-59v-176q0 -56 0.5 -92t1 -61.5t2 -45.5t3.5 -44l-8 -5l-62 4l-10 12l-356 533q0 -10 -0.5 -20t-0.5 -24.5v-33.5v-47v-184v-31.5t0.5 -40.5l1 -40.5t1.5 -31.5q2 -25 8.5 -37.5t16.5 -19.5q8 -6 21 -8t33 -2l5 -4l3 -18l-2 -4
q-7 0 -21.5 1t-30.5 2t-30.5 2t-21.5 1h-19q-7 0 -23 -1l-33 -2l-33 -2t-23 -1l-2 4l3 18l5 4q18 0 30.5 1.5t22.5 8.5q7 5 14.5 16.5t10.5 40.5q1 7 1.5 16.5t0.5 23.5v34v50v203v59v41t-0.5 29t-1.5 24q-2 21 -9 35.5t-16 21.5t-22.5 8.5t-30.5 1.5l-5 4l-3 18l2 4
q7 0 20.5 -1l27.5 -2l27.5 -2t20.5 -1h35q8 0 22.5 1t23.5 3l5 -3q4 -14 16.5 -38.5t30 -54.5l38 -64l41.5 -67q76 -122 132.5 -199l72.5 -100q0 7 0.5 13t0.5 14v20v32v203v59t-0.5 41t-1 29t-1.5 24q-2 28 -9 39t-15 18q-9 7 -23.5 8.5t-30.5 1.5l-4 4l-3 18l2 4
q7 0 20 -1l26.5 -2l26.5 -2t20 -1h47q7 0 20 0.5t27 1.5l27 2t20 2z" />
    <glyph glyph-name="O" unicode="O" 
d="M382 665q78 0 139 -27t102.5 -73.5t63.5 -107.5t22 -128q0 -66 -21.5 -127.5t-63.5 -108.5t-104.5 -75.5t-144.5 -28.5q-80 0 -139.5 27t-100 72.5t-60.5 106t-20 127.5q0 71 22 133.5t64 109t103 73.5t138 27zM381 42q60 0 106.5 22.5t78.5 61.5t49 91t17 111
q0 60 -17.5 112t-50.5 90.5t-80.5 60t-107.5 21.5q-59 0 -104.5 -21.5t-76.5 -59.5t-46.5 -89.5t-15.5 -112.5q0 -67 18 -120t51 -90t78.5 -57t100.5 -20z" />
    <glyph glyph-name="OE" unicode="&#x152;" horiz-adv-x="963" 
d="M520 546q-12 35 -40.5 50.5t-87.5 15.5q-72 0 -121 -20.5t-79 -57t-43 -87t-13 -110.5q0 -77 18.5 -132.5t53 -92t83 -54t108.5 -17.5q24 0 56 4.5t70 20.5q2 15 3.5 28.5t2.5 29.5t1.5 36.5t0.5 50.5v203q0 53 -3 82.5t-10 49.5zM723 654q13 0 39.5 0.5t53.5 1.5
t48.5 1.5t26.5 0.5l5 -10l-4 -109h-26l-3 4q-2 23 -5.5 36t-20 19t-50 7t-93.5 1h-85l-3 -39q-1 -15 -1.5 -35.5l-1 -42.5t-0.5 -41.5v-32.5v-49q73 1 114.5 2t55.5 15q6 6 13 20t7 29l5 4l17 2l4 -2q-2 -22 -3.5 -44t-1.5 -45t1.5 -43.5t3.5 -44.5l-4 -2l-18 2l-4 3
q0 16 -6.5 31t-13.5 21q-14 13 -57.5 13t-112.5 1v-97v-58.5t0.5 -40t1.5 -32t3 -33.5q1 -19 21 -19h75q60 0 94 2.5t52.5 10.5t26 24.5t14.5 43.5l4 4h26l-19 -127l-7 -10q-5 0 -23 0.5t-40.5 1.5t-45.5 1.5t-36 0.5h-154q-21 0 -46 -1.5t-52 -4t-54.5 -4t-51.5 -1.5
q-84 0 -147 24t-105 68t-63 105.5t-21 135.5q0 71 19.5 133.5t59.5 109t102 73.5t146 27q45 0 87 -5.5t98 -5.5h155z" />
    <glyph glyph-name="Oacute" unicode="&#xd3;" 
d="M382 665q78 0 139 -27t102.5 -73.5t63.5 -107.5t22 -128q0 -66 -21.5 -127.5t-63.5 -108.5t-104.5 -75.5t-144.5 -28.5q-80 0 -139.5 27t-100 72.5t-60.5 106t-20 127.5q0 71 22 133.5t64 109t103 73.5t138 27zM381 42q60 0 106.5 22.5t78.5 61.5t49 91t17 111
q0 60 -17.5 112t-50.5 90.5t-80.5 60t-107.5 21.5q-59 0 -104.5 -21.5t-76.5 -59.5t-46.5 -89.5t-15.5 -112.5q0 -67 18 -120t51 -90t78.5 -57t100.5 -20zM306 721l-5 20l3 7l180 100q17 -1 26 -10.5t9 -23.5q0 -9 -3 -19l-202 -77z" />
    <glyph glyph-name="Ocircumflex" unicode="&#xd4;" 
d="M382 665q78 0 139 -27t102.5 -73.5t63.5 -107.5t22 -128q0 -66 -21.5 -127.5t-63.5 -108.5t-104.5 -75.5t-144.5 -28.5q-80 0 -139.5 27t-100 72.5t-60.5 106t-20 127.5q0 71 22 133.5t64 109t103 73.5t138 27zM381 42q60 0 106.5 22.5t78.5 61.5t49 91t17 111
q0 60 -17.5 112t-50.5 90.5t-80.5 60t-107.5 21.5q-59 0 -104.5 -21.5t-76.5 -59.5t-46.5 -89.5t-15.5 -112.5q0 -67 18 -120t51 -90t78.5 -57t100.5 -20zM396 842l110 -99l3 -7l-6 -20l-7 -3l-104 62l-104 -62l-7 3l-6 20l3 7l110 99h8z" />
    <glyph glyph-name="Odieresis" unicode="&#xd6;" 
d="M382 665q78 0 139 -27t102.5 -73.5t63.5 -107.5t22 -128q0 -66 -21.5 -127.5t-63.5 -108.5t-104.5 -75.5t-144.5 -28.5q-80 0 -139.5 27t-100 72.5t-60.5 106t-20 127.5q0 71 22 133.5t64 109t103 73.5t138 27zM381 42q60 0 106.5 22.5t78.5 61.5t49 91t17 111
q0 60 -17.5 112t-50.5 90.5t-80.5 60t-107.5 21.5q-59 0 -104.5 -21.5t-76.5 -59.5t-46.5 -89.5t-15.5 -112.5q0 -67 18 -120t51 -90t78.5 -57t100.5 -20zM263 794q0 18 12 31.5t29 13.5t29.5 -13.5t12.5 -31.5q0 -19 -12.5 -31.5t-29.5 -12.5t-29 12.5t-12 31.5zM420 794
q0 18 12 31.5t29 13.5t29.5 -13.5t12.5 -31.5q0 -19 -12.5 -31.5t-29.5 -12.5t-29 12.5t-12 31.5z" />
    <glyph glyph-name="Ograve" unicode="&#xd2;" 
d="M382 665q78 0 139 -27t102.5 -73.5t63.5 -107.5t22 -128q0 -66 -21.5 -127.5t-63.5 -108.5t-104.5 -75.5t-144.5 -28.5q-80 0 -139.5 27t-100 72.5t-60.5 106t-20 127.5q0 71 22 133.5t64 109t103 73.5t138 27zM381 42q60 0 106.5 22.5t78.5 61.5t49 91t17 111
q0 60 -17.5 112t-50.5 90.5t-80.5 60t-107.5 21.5q-59 0 -104.5 -21.5t-76.5 -59.5t-46.5 -89.5t-15.5 -112.5q0 -67 18 -120t51 -90t78.5 -57t100.5 -20zM449 718l-201 77q-4 9 -4 19q0 14 9 23.5t26 10.5l180 -100l3 -7l-5 -20z" />
    <glyph glyph-name="Oslash" unicode="&#xd8;" 
d="M382 665q60 0 109 -15.5t88 -44.5l58 67l6 4h66l-2 -4l-88 -103q45 -46 68 -108.5t23 -131.5q0 -66 -21.5 -127.5t-63.5 -108.5t-104.5 -75.5t-144.5 -28.5q-64 0 -114.5 16.5t-89.5 47.5l-59 -68l-5 -4h-67l2 4l91 105q-39 46 -59 105.5t-20 126.5q0 71 22.5 133.5
t64.5 109t102.5 73.5t137.5 27zM381 42q60 0 106.5 22.5t79 61.5t49 91t16.5 111q0 56 -15 104t-44 85l-356 -412q65 -63 164 -63zM134 329q0 -111 49 -183l354 410q-32 26 -72 41t-88 15q-59 0 -104.5 -21.5t-76.5 -59.5t-46.5 -89.5t-15.5 -112.5z" />
    <glyph glyph-name="Otilde" unicode="&#xd5;" 
d="M382 665q78 0 139 -27t102.5 -73.5t63.5 -107.5t22 -128q0 -66 -21.5 -127.5t-63.5 -108.5t-104.5 -75.5t-144.5 -28.5q-80 0 -139.5 27t-100 72.5t-60.5 106t-20 127.5q0 71 22 133.5t64 109t103 73.5t138 27zM381 42q60 0 106.5 22.5t78.5 61.5t49 91t17 111
q0 60 -17.5 112t-50.5 90.5t-80.5 60t-107.5 21.5q-59 0 -104.5 -21.5t-76.5 -59.5t-46.5 -89.5t-15.5 -112.5q0 -67 18 -120t51 -90t78.5 -57t100.5 -20zM539 832q-3 -14 -9.5 -27.5t-17 -24.5t-25.5 -18t-36 -7q-40 0 -81.5 7t-73.5 7q-25 0 -35 -6.5t-20 -18.5l-13 8
q4 13 11 27t17.5 24.5t26 17.5t36.5 7q25 0 43.5 -2t34.5 -5t31 -5t34 -2q17 0 34 4t31 22z" />
    <glyph glyph-name="P" unicode="P" horiz-adv-x="549" 
d="M288 -6q-7 0 -23 1l-33 2l-33 2t-23 1h-19q-7 0 -23 -1l-33 -2l-33 -2t-23 -1l-2 4l3 18l5 4q12 0 28 1.5t25 7.5q8 6 15 19t10 39q0 7 0.5 16.5t1 23.5t0.5 34v50v260v45.5t-2 50.5q-2 26 -9.5 38t-15.5 19q-9 5 -18.5 7.5t-34.5 2.5l-5 4l-3 18l2 4q7 0 18.5 -1l24 -2
l25.5 -2t24 -1h36h25t28.5 0.5t26.5 0.5h20q67 0 113.5 -13t75.5 -37t42.5 -57.5t13.5 -73.5q0 -58 -24 -95.5t-61.5 -59t-84 -29.5t-90.5 -8h-56v-57t0.5 -57t1 -49t1.5 -32q2 -29 10 -40.5t14 -16.5q9 -5 18.5 -7.5t35.5 -2.5l4 -4l3 -18zM293 326q84 0 120 38t36 105
q0 69 -41.5 103t-113.5 34h-87q-2 -29 -2.5 -49t-1.5 -35t-1 -27v-23v-109q0 -13 1 -20.5t5 -11t11.5 -4.5t20.5 -1h53z" />
    <glyph glyph-name="Q" unicode="Q" 
d="M382 665q78 0 139 -27t102.5 -73t63.5 -107t22 -128q0 -64 -20 -123.5t-59 -106t-97 -76.5t-134 -34q52 -1 92.5 -12t76.5 -24.5t70.5 -24.5t75.5 -11q14 0 33.5 3t41.5 16l3 -2l4 -8l-1 -4q-22 -26 -52 -43.5t-68 -17.5q-34 0 -70 14t-75 31t-81 31t-88 14
q-38 0 -72.5 -9.5t-51.5 -20.5l-3 1l-5 14l1 3q22 15 59 30.5t80 18.5q-78 1 -137 28t-98 72.5t-59 105.5t-20 127q0 71 22 133.5t64 109t103 73.5t138 27zM381 42q60 0 106.5 22.5t78.5 61.5t49 91t17 111q0 60 -17.5 112t-50.5 90.5t-80.5 60t-107.5 21.5
q-59 0 -104.5 -21.5t-76.5 -59.5t-46.5 -89.5t-15.5 -112.5q0 -67 18 -120t51 -90t78.5 -57t100.5 -20z" />
    <glyph glyph-name="Q.salt" 
d="M382 665q78 0 139 -27t102.5 -73.5t63.5 -107.5t22 -128q0 -54 -14 -104.5t-42 -93.5t-69.5 -76t-95.5 -50q-21 -7 -44 -11l-45.5 -8t-43.5 -9t-38 -13l1 -3q49 -2 91.5 -10l81.5 -16t76.5 -14.5t77.5 -6.5q14 0 35 3.5t44 18.5l4 -2l4 -10l-1 -5q-25 -32 -56.5 -52.5
t-72.5 -20.5q-36 0 -71.5 10t-74 22t-83.5 22t-100 10q-13 0 -29 -1t-32.5 -3.5t-31.5 -7.5t-24 -12l-4 1l-5 17l1 3q18 15 44.5 30t58.5 22l52 34l-1 3q-62 11 -108 41t-77 73.5t-46.5 98t-15.5 113.5q0 71 22 133.5t64 109t103 73.5t138 27zM381 42q60 0 106.5 22.5
t78.5 61.5t49 91t17 111q0 60 -17.5 112t-50.5 90.5t-80.5 60t-107.5 21.5q-59 0 -104.5 -21.5t-76.5 -59.5t-46.5 -89.5t-15.5 -112.5q0 -67 18 -120t51 -90t78.5 -57t100.5 -20z" />
    <glyph glyph-name="R" unicode="R" horiz-adv-x="638" 
d="M288 -6q-7 0 -23 1l-33 2l-33 2t-23 1h-19q-7 0 -23 -1l-33 -2l-33 -2t-23 -1l-2 4l3 18l5 4q12 0 28 1.5t25 7.5q8 6 15 19t10 39q0 7 0.5 16.5t1 23.5t0.5 34v50v260q0 20 -0.5 45.5t-2.5 50.5q-2 23 -9 36.5t-15 20.5q-9 5 -18.5 7.5t-34.5 2.5l-5 4l-3 18l2 4
q7 0 18.5 -1l24 -2l25.5 -2t24 -1h36h25t28.5 0.5t26.5 0.5h20q67 0 113.5 -13t75.5 -35.5t42.5 -54t13.5 -67.5q0 -43 -15.5 -74.5t-39.5 -54t-54 -36t-59 -20.5l66 -89t70 -86l37 -41t36.5 -31t43.5 -21t58 -12l6 -4l2 -18l-2 -4q-22 -1 -50 -2.5t-44 -1.5q-26 0 -45 6
t-37 19t-36.5 34l-42.5 50q-3 3 -17.5 23.5l-35 49l-43 61l-41.5 60.5h-73v-59t0.5 -61t1 -52.5t1.5 -33.5q2 -29 10 -40.5t14 -16.5q9 -5 18.5 -7.5t35.5 -2.5l4 -4l3 -18zM293 337q83 0 119.5 38.5t36.5 103.5q0 61 -41.5 94t-113.5 33h-87q-2 -29 -2.5 -49t-1.5 -35
t-1 -27v-23v-98q0 -13 1 -20.5t5 -11t11.5 -4.5t20.5 -1h53z" />
    <glyph glyph-name="S" unicode="S" horiz-adv-x="551" 
d="M138 508q0 -28 10 -46.5t30.5 -32.5t52 -25.5t74.5 -24.5q37 -12 73 -27t64.5 -38.5t45.5 -57t17 -81.5q0 -51 -20 -86.5t-53 -57.5t-76.5 -32t-91.5 -10q-62 0 -113 14t-92 35l-4 13l17 107h25l5 -6q5 -61 49 -89.5t120 -28.5q78 0 117.5 35.5t39.5 92.5q0 35 -15 58.5
t-39.5 40t-56 27.5l-63.5 22q-40 13 -74.5 28.5t-60 36.5t-40 50t-14.5 69q0 47 16.5 79.5t45.5 53t67.5 29.5t83.5 9q54 0 102 -10t78 -24l4 -11l-14 -89h-28l-5 5q-2 26 -17 42t-35.5 25t-44 12t-41.5 3q-65 0 -102 -28.5t-37 -81.5z" />
    <glyph glyph-name="Scaron" unicode="&#x160;" horiz-adv-x="551" 
d="M274 713l-111 99l-2 7l5 20l8 3l103 -62l104 62l8 -3l5 -20l-2 -7l-111 -99h-7zM138 508q0 -28 10 -46.5t30.5 -32.5t52 -25.5t74.5 -24.5q37 -12 73 -27t64.5 -38.5t45.5 -57t17 -81.5q0 -51 -20 -86.5t-53 -57.5t-76.5 -32t-91.5 -10q-62 0 -113 14t-92 35l-4 13
l17 107h25l5 -6q5 -61 49 -89.5t120 -28.5q78 0 117.5 35.5t39.5 92.5q0 35 -15 58.5t-39.5 40t-56 27.5l-63.5 22q-40 13 -74.5 28.5t-60 36.5t-40 50t-14.5 69q0 47 16.5 79.5t45.5 53t67.5 29.5t83.5 9q54 0 102 -10t78 -24l4 -11l-14 -89h-28l-5 5q-2 26 -17 42
t-35.5 25t-44 12t-41.5 3q-65 0 -102 -28.5t-37 -81.5z" />
    <glyph glyph-name="T" unicode="T" horiz-adv-x="589" 
d="M431 -6q-7 0 -22 1t-32 2t-32 2t-22 1h-57q-7 0 -22 -1l-31.5 -2l-31.5 -2t-22 -1l-2 4l3 18l5 4q16 0 36 1.5t28 8.5t17 18t11 39q1 7 1.5 16.5t1 23.5t0.5 34v50v203q0 65 -1 115.5t-2 76.5h-11q-50 0 -82 -0.5t-51.5 -2t-29 -3.5t-13.5 -5q-22 -12 -27 -52l-4 -4h-23
l7 114l4 9l6 3q8 -3 35 -5.5t59 -3.5t61.5 -1.5t42.5 -0.5h126q13 0 42.5 0.5t61.5 1.5t59 3.5t35 5.5l6 -3l4 -9l8 -114h-24l-4 4q-5 40 -27 52q-4 3 -13.5 5t-29 3.5t-51.5 2t-81 0.5h-11q-1 -29 -1.5 -76t-0.5 -115v-184v-58.5t0.5 -37.5t1 -25.5t1.5 -22.5q2 -28 11 -39
t17 -18t28 -8.5t36 -1.5l5 -4l3 -18z" />
    <glyph glyph-name="Thorn" unicode="&#xde;" horiz-adv-x="537" 
d="M202 524h52q67 0 113.5 -13t75.5 -37t42.5 -57t13.5 -73q0 -58 -24 -95.5t-61.5 -59t-84 -29.5t-90.5 -8h-37q0 -23 0.5 -37t2.5 -28q2 -28 9 -39t15 -18q9 -7 23.5 -8.5t30.5 -1.5l4 -4l3 -18l-2 -4q-7 0 -23 1l-33 2l-33 2t-23 1h-19q-7 0 -23 -1l-33 -2l-33 -2t-23 -1
l-2 4l3 18l5 4q16 0 30 1.5t23 8.5q8 7 15.5 18t9.5 39q0 7 0.5 16.5t1 23.5t0.5 34v50v203v59v41t-0.5 29t-1.5 24q-2 26 -9.5 38t-15.5 19q-9 7 -23 8.5t-30 1.5l-5 4l-3 18l2 4q7 0 23 -1l33 -2l33 -2t23 -1h19q7 0 23 1l33 2l33 2t23 1l2 -4l-3 -18l-4 -4
q-16 0 -30.5 -1.5t-23.5 -8.5q-15 -13 -21 -28.5t-6 -36.5v-35zM202 476v-280h72q84 0 120 38t36 105q0 137 -155 137h-73z" />
    <glyph glyph-name="U" unicode="U" horiz-adv-x="723" 
d="M697 656l-3 -18l-4 -4q-16 0 -30.5 -1.5t-23.5 -8.5q-8 -7 -15 -18t-9 -39q-1 -12 -1.5 -24t-1 -29t-0.5 -41v-59v-192q0 -49 -14.5 -91.5t-44.5 -74t-75.5 -49.5t-106.5 -18q-70 0 -118.5 18t-78.5 49.5t-43.5 74t-13.5 91.5v192v59v41t-0.5 29t-1.5 24q-2 27 -9.5 38.5
t-15.5 18.5q-9 7 -23 8.5t-30 1.5l-5 4l-3 18l2 4q7 0 23 -1l33 -2l33 -2t23 -1h19q7 0 23 1l33 2l33 2t23 1l2 -4l-3 -18l-4 -4q-16 0 -30.5 -1.5t-23.5 -8.5q-8 -7 -15 -18t-9 -39q-1 -14 -1.5 -26t-1 -28t-0.5 -39v-59v-165q0 -108 48.5 -155t134.5 -47t135 47t49 155
v165v59t-0.5 39t-1 28t-1.5 26q-2 28 -9.5 39t-15.5 18t-22.5 8.5t-30.5 1.5l-5 4l-3 18l2 4q7 0 21 -1t29.5 -2t29.5 -2t21 -1h22q7 0 22 1l31.5 2l31.5 2t22 1z" />
    <glyph glyph-name="Uacute" unicode="&#xda;" horiz-adv-x="723" 
d="M277 721l-6 20l3 7l181 100q17 -1 26 -10.5t9 -23.5q0 -10 -4 -19l-201 -77zM697 656l-3 -18l-4 -4q-16 0 -30.5 -1.5t-23.5 -8.5q-8 -7 -15 -18t-9 -39q-1 -12 -1.5 -24t-1 -29t-0.5 -41v-59v-192q0 -49 -14.5 -91.5t-44.5 -74t-75.5 -49.5t-106.5 -18q-70 0 -118.5 18
t-78.5 49.5t-43.5 74t-13.5 91.5v192v59v41t-0.5 29t-1.5 24q-2 27 -9.5 38.5t-15.5 18.5q-9 7 -23 8.5t-30 1.5l-5 4l-3 18l2 4q7 0 23 -1l33 -2l33 -2t23 -1h19q7 0 23 1l33 2l33 2t23 1l2 -4l-3 -18l-4 -4q-16 0 -30.5 -1.5t-23.5 -8.5q-8 -7 -15 -18t-9 -39
q-1 -14 -1.5 -26t-1 -28t-0.5 -39v-59v-165q0 -108 48.5 -155t134.5 -47t135 47t49 155v165v59t-0.5 39t-1 28t-1.5 26q-2 28 -9.5 39t-15.5 18t-22.5 8.5t-30.5 1.5l-5 4l-3 18l2 4q7 0 21 -1t29.5 -2t29.5 -2t21 -1h22q7 0 22 1l31.5 2l31.5 2t22 1z" />
    <glyph glyph-name="Ucircumflex" unicode="&#xdb;" horiz-adv-x="723" 
d="M697 656l-3 -18l-4 -4q-16 0 -30.5 -1.5t-23.5 -8.5q-8 -7 -15 -18t-9 -39q-1 -12 -1.5 -24t-1 -29t-0.5 -41v-59v-192q0 -49 -14.5 -91.5t-44.5 -74t-75.5 -49.5t-106.5 -18q-70 0 -118.5 18t-78.5 49.5t-43.5 74t-13.5 91.5v192v59v41t-0.5 29t-1.5 24q-2 27 -9.5 38.5
t-15.5 18.5q-9 7 -23 8.5t-30 1.5l-5 4l-3 18l2 4q7 0 23 -1l33 -2l33 -2t23 -1h19q7 0 23 1l33 2l33 2t23 1l2 -4l-3 -18l-4 -4q-16 0 -30.5 -1.5t-23.5 -8.5q-8 -7 -15 -18t-9 -39q-1 -14 -1.5 -26t-1 -28t-0.5 -39v-59v-165q0 -108 48.5 -155t134.5 -47t135 47t49 155
v165v59t-0.5 39t-1 28t-1.5 26q-2 28 -9.5 39t-15.5 18t-22.5 8.5t-30.5 1.5l-5 4l-3 18l2 4q7 0 21 -1t29.5 -2t29.5 -2t21 -1h22q7 0 22 1l31.5 2l31.5 2t22 1zM366 842l111 -99l2 -7l-5 -20l-8 -3l-103 62l-104 -62l-8 3l-5 20l2 7l111 99h7z" />
    <glyph glyph-name="Udieresis" unicode="&#xdc;" horiz-adv-x="723" 
d="M697 656l-3 -18l-4 -4q-16 0 -30.5 -1.5t-23.5 -8.5q-8 -7 -15 -18t-9 -39q-1 -12 -1.5 -24t-1 -29t-0.5 -41v-59v-192q0 -49 -14.5 -91.5t-44.5 -74t-75.5 -49.5t-106.5 -18q-70 0 -118.5 18t-78.5 49.5t-43.5 74t-13.5 91.5v192v59v41t-0.5 29t-1.5 24q-2 27 -9.5 38.5
t-15.5 18.5q-9 7 -23 8.5t-30 1.5l-5 4l-3 18l2 4q7 0 23 -1l33 -2l33 -2t23 -1h19q7 0 23 1l33 2l33 2t23 1l2 -4l-3 -18l-4 -4q-16 0 -30.5 -1.5t-23.5 -8.5q-8 -7 -15 -18t-9 -39q-1 -14 -1.5 -26t-1 -28t-0.5 -39v-59v-165q0 -108 48.5 -155t134.5 -47t135 47t49 155
v165v59t-0.5 39t-1 28t-1.5 26q-2 28 -9.5 39t-15.5 18t-22.5 8.5t-30.5 1.5l-5 4l-3 18l2 4q7 0 21 -1t29.5 -2t29.5 -2t21 -1h22q7 0 22 1l31.5 2l31.5 2t22 1zM258 794q0 18 12 31.5t29 13.5t29.5 -13.5t12.5 -31.5q0 -19 -12.5 -31.5t-29.5 -12.5t-29 12.5t-12 31.5z
M415 794q0 18 12 31.5t29 13.5t29.5 -13.5t12.5 -31.5q0 -19 -12.5 -31.5t-29.5 -12.5t-29 12.5t-12 31.5z" />
    <glyph glyph-name="Ugrave" unicode="&#xd9;" horiz-adv-x="723" 
d="M448 718l-201 77q-4 9 -4 19q0 14 9 23.5t26 10.5l181 -100l2 -7l-5 -20zM697 656l-3 -18l-4 -4q-16 0 -30.5 -1.5t-23.5 -8.5q-8 -7 -15 -18t-9 -39q-1 -12 -1.5 -24t-1 -29t-0.5 -41v-59v-192q0 -49 -14.5 -91.5t-44.5 -74t-75.5 -49.5t-106.5 -18q-70 0 -118.5 18
t-78.5 49.5t-43.5 74t-13.5 91.5v192v59v41t-0.5 29t-1.5 24q-2 27 -9.5 38.5t-15.5 18.5q-9 7 -23 8.5t-30 1.5l-5 4l-3 18l2 4q7 0 23 -1l33 -2l33 -2t23 -1h19q7 0 23 1l33 2l33 2t23 1l2 -4l-3 -18l-4 -4q-16 0 -30.5 -1.5t-23.5 -8.5q-8 -7 -15 -18t-9 -39
q-1 -14 -1.5 -26t-1 -28t-0.5 -39v-59v-165q0 -108 48.5 -155t134.5 -47t135 47t49 155v165v59t-0.5 39t-1 28t-1.5 26q-2 28 -9.5 39t-15.5 18t-22.5 8.5t-30.5 1.5l-5 4l-3 18l2 4q7 0 21 -1t29.5 -2t29.5 -2t21 -1h22q7 0 22 1l31.5 2l31.5 2t22 1z" />
    <glyph glyph-name="V" unicode="V" horiz-adv-x="674" 
d="M302 -11l-163 454l-18.5 50l-13 34t-9.5 23t-7 17q-11 25 -22.5 38.5t-23.5 20t-24.5 7.5t-25.5 1l-5 4l-2 18l1 4q7 0 20.5 -1t28.5 -2l29 -2t21 -1h34q7 0 23 1l33.5 2l33.5 2t23 1l2 -4l-3 -18l-5 -4q-29 0 -45 -6.5t-16 -35.5q0 -23 15.5 -64.5l38.5 -104.5l68 -184
l33.5 -93.5t26.5 -71.5l26.5 69l35.5 96l68 184l38.5 104.5t15.5 64.5q0 29 -16 35.5t-45 6.5l-5 4l-2 18l2 4q7 0 22 -1l31 -2l31 -2t22 -1h19q7 0 20.5 1t28.5 2l29 2t21 1l2 -4l-3 -18l-5 -4q-13 0 -25 -1t-24 -7.5t-23.5 -20t-23.5 -38.5q-3 -8 -8.5 -20t-18.5 -45
l-37.5 -94.5l-65.5 -167.5l-28.5 -72.5l-28 -71l-23.5 -59.5l-14 -37l-52 -11h-12z" />
    <glyph glyph-name="W" unicode="W" horiz-adv-x="1096" 
d="M302 -11l-163 454l-18.5 50l-13 34t-9.5 23t-7 17q-11 25 -22.5 38.5t-23.5 20t-24.5 7.5t-25.5 1l-5 4l-2 18l1 4q7 0 20.5 -1t28.5 -2l29 -2t21 -1h34q7 0 23 1l33.5 2l33.5 2t23 1l2 -4l-3 -18l-5 -4q-29 0 -45 -6.5t-16 -35.5q0 -23 15.5 -64.5l38.5 -104.5l68 -184
l33.5 -93.5t26.5 -71.5l26.5 69l35.5 96l68 184l25.5 69t19.5 54q-5 16 -11.5 31t-16 27t-24.5 20t-37 10l-5 4l-2 18l1 4q7 0 20.5 -1l28 -2l28 -2t20.5 -1h33q7 0 22 1t32 2t32 2t22 1l2 -4l-3 -18l-5 -4q-11 0 -23.5 -3.5t-23 -10.5t-17 -17t-6.5 -23q0 -10 2 -14
q6 -25 19.5 -60l30.5 -83l68 -184l34 -93.5l26 -71.5l26.5 69l35.5 96l68 184l38.5 104.5t15.5 64.5q0 29 -16 35.5t-45 6.5l-4 4l-3 18l2 4q7 0 22 -1l31 -2l31 -2t22 -1h19q7 0 20.5 1t28.5 2l29 2t21 1l2 -4l-3 -18l-5 -4q-13 0 -25 -1t-24 -7.5t-23.5 -20t-23.5 -38.5
q-3 -8 -8.5 -20t-18.5 -45l-37.5 -94.5l-65.5 -167.5l-28.5 -72.5l-28 -71l-23.5 -59.5l-14 -37l-52 -11h-12l-174 482l-35.5 -90l-54.5 -141l-28 -72.5l-28.5 -71l-23.5 -59.5l-14 -37l-52 -11h-12z" />
    <glyph glyph-name="W.calt" horiz-adv-x="955" 
d="M485 498l-6 -2q-37 -118 -66 -242l-59 -253l-60 -12h-12l-144 454q-17 54 -29 81.5l-19 42.5q-11 25 -22.5 38.5t-23.5 20t-24.5 7.5t-25.5 1l-5 4l-2 18l1 4q7 0 20.5 -1t28.5 -2l29 -2t21 -1h34q7 0 23 1l33.5 2l33.5 2t23 1l2 -4l-3 -18l-5 -4q-29 0 -45 -6.5
t-16 -35.5q0 -11 7.5 -41.5t20 -73l28.5 -95t34 -106l36.5 -106l34.5 -96.5q27 150 66 289l79 281l8 9h27l153 -545l62 178t47 145t29.5 104.5t10.5 56.5q0 29 -16 35.5t-45 6.5l-5 4l-3 18l2 4q7 0 22 -1l31.5 -2l31.5 -2t22 -1h19q7 0 20.5 1t28.5 2t28.5 2t20.5 1l2 -4
l-3 -18l-4 -4q-14 0 -27.5 -1.5t-24.5 -7.5q-21 -15 -40 -58q-21 -49 -47 -124l-53.5 -156l-54.5 -157.5t-48 -129.5l-29 -11h-12z" />
    <glyph glyph-name="X" unicode="X" horiz-adv-x="662" 
d="M215 622q-11 -8 -11 -17q0 -5 3 -12t6 -12l31.5 -55.5l28.5 -47l29 -46t35 -51.5q21 27 40 55.5t34 54t25 45t15 30.5q2 5 4 12.5t2 15.5q0 12 -6.5 19t-16 10.5t-21.5 5.5t-23 5l-5 4v18l5 4q29 -5 48.5 -5.5t43.5 -0.5h58q24 0 43.5 1t47.5 5l4 -4v-18l-4 -4
q-22 -3 -38.5 -9t-30 -16t-26.5 -25t-28 -36l-52.5 -75l-36 -52l-28 -41l-27.5 -41l65.5 -96.5l54.5 -80.5l39 -57.5t20 -27.5q10 -11 18.5 -19.5t20.5 -15.5t30 -12.5t45 -9.5l9 -7v-14l-6 -6q-24 3 -53 5.5t-52 2.5h-40q-23 0 -54.5 -2.5t-58.5 -5.5l-5 6v15l5 6
q23 2 42 11.5t19 26.5q0 11 -14 38t-34.5 60.5l-44 68.5l-43.5 63l-46.5 -61.5l-43 -60l-34.5 -51.5t-22 -37q-4 -8 -4 -18q0 -8 2.5 -14.5t10 -11t22.5 -8t40 -6.5l6 -6v-14l-6 -6q-29 5 -56 5.5t-50 0.5h-47q-23 0 -46.5 -1t-51.5 -5l-5 6v13l8 7q22 3 38 7.5t29.5 12.5
t26.5 20.5t29 33.5l70 95l100 141l-36 51l-42 61l-45 66.5l-45 68.5q-8 11 -16.5 21.5t-16.5 16.5q-11 9 -26.5 13t-35.5 6l-8 4v18l6 4q46 -6 88 -6h43q23 0 53 1.5t58 4.5l5 -4v-18l-5 -4q-20 -1 -35 -3.5t-24 -8.5z" />
    <glyph glyph-name="Y" unicode="Y" horiz-adv-x="612" 
d="M428 -6q-7 0 -23 1l-33 2l-33 2t-23 1h-19q-7 0 -23 -1l-33.5 -2l-33.5 -2t-23 -1l-1 4l2 18l5 4q16 0 30.5 1.5t22.5 8.5t15.5 18t9.5 39q1 7 1.5 16.5t1 23.5t0.5 34v50v39q0 28 -8 45.5t-16 31.5l-33.5 58l-38.5 64l-41 65.5l-40 62.5q-7 11 -16 21.5t-16 16.5
q-11 9 -26.5 13t-35.5 6l-8 4v18l5 4l45 -5.5t44 -2.5h42q23 0 53.5 2.5t58.5 5.5l4 -4v-18l-4 -4q-20 -1 -35 -3.5t-24 -8.5q-12 -9 -12 -17q0 -5 3.5 -12t6.5 -12l68 -125l70 -124l36.5 64.5l37.5 69l31.5 60.5t18.5 38q2 5 6 16t4 19q0 12 -7 18t-17.5 9t-23 4t-23.5 4
l-4 4v18l4 4q29 -5 48.5 -5.5t43.5 -0.5h58q24 0 44 1t48 5l4 -4v-18l-4 -4q-23 -3 -39 -8t-29.5 -13.5t-25.5 -22.5t-27 -36l-50.5 -78l-38.5 -62.5l-30.5 -52.5l-26.5 -47q-4 -6 -9 -20.5t-5 -29.5v-35v-58t0.5 -37t1 -25t1.5 -22q2 -28 9.5 -39t15.5 -18t22.5 -8.5
t30.5 -1.5l5 -4l3 -18z" />
    <glyph glyph-name="Yacute" unicode="&#xdd;" horiz-adv-x="612" 
d="M428 -6q-7 0 -23 1l-33 2l-33 2t-23 1h-19q-7 0 -23 -1l-33.5 -2l-33.5 -2t-23 -1l-1 4l2 18l5 4q16 0 30.5 1.5t22.5 8.5t15.5 18t9.5 39q1 7 1.5 16.5t1 23.5t0.5 34v50v39q0 28 -8 45.5t-16 31.5l-33.5 58l-38.5 64l-41 65.5l-40 62.5q-7 11 -16 21.5t-16 16.5
q-11 9 -26.5 13t-35.5 6l-8 4v18l5 4l45 -5.5t44 -2.5h42q23 0 53.5 2.5t58.5 5.5l4 -4v-18l-4 -4q-20 -1 -35 -3.5t-24 -8.5q-12 -9 -12 -17q0 -5 3.5 -12t6.5 -12l68 -125l70 -124l36.5 64.5l37.5 69l31.5 60.5t18.5 38q2 5 6 16t4 19q0 12 -7 18t-17.5 9t-23 4t-23.5 4
l-4 4v18l4 4q29 -5 48.5 -5.5t43.5 -0.5h58q24 0 44 1t48 5l4 -4v-18l-4 -4q-23 -3 -39 -8t-29.5 -13.5t-25.5 -22.5t-27 -36l-50.5 -78l-38.5 -62.5l-30.5 -52.5l-26.5 -47q-4 -6 -9 -20.5t-5 -29.5v-35v-58t0.5 -37t1 -25t1.5 -22q2 -28 9.5 -39t15.5 -18t22.5 -8.5
t30.5 -1.5l5 -4l3 -18zM242 721l-5 20l3 7l180 100q17 -1 26 -10.5t9 -23.5q0 -9 -3 -19l-202 -77z" />
    <glyph glyph-name="Ydieresis" unicode="&#x178;" horiz-adv-x="612" 
d="M428 -6q-7 0 -23 1l-33 2l-33 2t-23 1h-19q-7 0 -23 -1l-33.5 -2l-33.5 -2t-23 -1l-1 4l2 18l5 4q16 0 30.5 1.5t22.5 8.5t15.5 18t9.5 39q1 7 1.5 16.5t1 23.5t0.5 34v50v39q0 28 -8 45.5t-16 31.5l-33.5 58l-38.5 64l-41 65.5l-40 62.5q-7 11 -16 21.5t-16 16.5
q-11 9 -26.5 13t-35.5 6l-8 4v18l5 4l45 -5.5t44 -2.5h42q23 0 53.5 2.5t58.5 5.5l4 -4v-18l-4 -4q-20 -1 -35 -3.5t-24 -8.5q-12 -9 -12 -17q0 -5 3.5 -12t6.5 -12l68 -125l70 -124l36.5 64.5l37.5 69l31.5 60.5t18.5 38q2 5 6 16t4 19q0 12 -7 18t-17.5 9t-23 4t-23.5 4
l-4 4v18l4 4q29 -5 48.5 -5.5t43.5 -0.5h58q24 0 44 1t48 5l4 -4v-18l-4 -4q-23 -3 -39 -8t-29.5 -13.5t-25.5 -22.5t-27 -36l-50.5 -78l-38.5 -62.5l-30.5 -52.5l-26.5 -47q-4 -6 -9 -20.5t-5 -29.5v-35v-58t0.5 -37t1 -25t1.5 -22q2 -28 9.5 -39t15.5 -18t22.5 -8.5
t30.5 -1.5l5 -4l3 -18zM189 794q0 18 12 31.5t29 13.5q16 0 28.5 -13.5t12.5 -31.5q0 -19 -12.5 -31.5t-28.5 -12.5q-17 0 -29 12.5t-12 31.5zM346 794q0 18 11.5 31.5t28.5 13.5t29.5 -13.5t12.5 -31.5q0 -19 -12.5 -31.5t-29.5 -12.5t-28.5 12.5t-11.5 31.5z" />
    <glyph glyph-name="Z" unicode="Z" horiz-adv-x="614" 
d="M56 546l16 108l8 8q127 -6 212.5 -7t111.5 -1h66q6 0 16.5 0.5t22 1.5t23 2.5t20.5 3.5l8 -11l-5 -25q-18 -19 -52 -63l-75 -100.5l-84 -120.5l-80 -121.5t-63 -103t-33 -66.5l5 -3h80q89 0 142 1.5t82 9.5t41 23.5t19 44.5l6 6h27l-18 -129l-9 -10q-4 0 -21 0.5t-40 1.5
t-49.5 1.5l-51 1t-44 1t-28.5 0.5h-160q-22 0 -49.5 -2l-53.5 -4l-10 11v23q20 20 52.5 61t70.5 94l78 113l76 117t64.5 106.5t42.5 81.5l-5 5h-142q-56 0 -90.5 -1.5t-54.5 -7.5t-29 -18.5t-13 -34.5l-6 -5h-18z" />
    <glyph glyph-name="Zcaron" unicode="&#x17d;" horiz-adv-x="614" 
d="M299 713l-110 99l-3 7l6 20l8 3l103 -62l104 62l7 -3l6 -20l-3 -7l-110 -99h-8zM56 546l16 108l8 8q127 -6 212.5 -7t111.5 -1h66q6 0 16.5 0.5t22 1.5t23 2.5t20.5 3.5l8 -11l-5 -25q-18 -19 -52 -63l-75 -100.5l-84 -120.5l-80 -121.5t-63 -103t-33 -66.5l5 -3h80
q89 0 142 1.5t82 9.5t41 23.5t19 44.5l6 6h27l-18 -129l-9 -10q-4 0 -21 0.5t-40 1.5t-49.5 1.5l-51 1t-44 1t-28.5 0.5h-160q-22 0 -49.5 -2l-53.5 -4l-10 11v23q20 20 52.5 61t70.5 94l78 113l76 117t64.5 106.5t42.5 81.5l-5 5h-142q-56 0 -90.5 -1.5t-54.5 -7.5
t-29 -18.5t-13 -34.5l-6 -5h-18z" />
    <glyph glyph-name="a" unicode="a" horiz-adv-x="496" 
d="M324 7q3 11 4.5 33t4.5 41l-1 3q-13 -18 -31 -35t-39.5 -30.5t-46 -21.5t-51.5 -8q-31 0 -55 11t-40 29t-24 42t-8 50q0 37 17 64.5t45 45.5q26 16 61.5 26t69 14.5t60.5 6t36 1.5h14q-1 37 -4 58.5t-8 35.5q-11 30 -38 43.5t-65 13.5q-16 0 -34.5 -3t-35 -11
t-28.5 -22.5t-14 -37.5l-4 -3h-22l-9 74l3 6q5 6 21 13t37.5 13.5t48 11t52.5 4.5q36 0 67 -9.5t53.5 -28.5t35.5 -47.5t13 -66.5q0 -42 -0.5 -74.5t-1.5 -60t-1.5 -54t-0.5 -56.5q2 -23 5 -33.5t10 -15.5q8 -8 23.5 -9.5t31.5 -1.5l4 -4l1 -14l-1 -4q-18 2 -39 3t-41 1
q-38 0 -69 -3zM324 115q3 5 6.5 12t4.5 17l5 100h-9q-40 0 -80 -4.5t-71.5 -17.5t-51.5 -36t-20 -59q0 -38 22 -60.5t57 -22.5q21 0 42 7t39.5 18t33 23t22.5 23z" />
    <glyph glyph-name="aacute" unicode="&#xe1;" horiz-adv-x="496" 
d="M170 552l-6 20l3 7l180 101q17 -1 26.5 -11t9.5 -24q0 -10 -4 -19l-202 -77zM324 7q3 11 4.5 33t4.5 41l-1 3q-13 -18 -31 -35t-39.5 -30.5t-46 -21.5t-51.5 -8q-31 0 -55 11t-40 29t-24 42t-8 50q0 37 17 64.5t45 45.5q26 16 61.5 26t69 14.5t60.5 6t36 1.5h14
q-1 37 -4 58.5t-8 35.5q-11 30 -38 43.5t-65 13.5q-16 0 -34.5 -3t-35 -11t-28.5 -22.5t-14 -37.5l-4 -3h-22l-9 74l3 6q5 6 21 13t37.5 13.5t48 11t52.5 4.5q36 0 67 -9.5t53.5 -28.5t35.5 -47.5t13 -66.5q0 -42 -0.5 -74.5t-1.5 -60t-1.5 -54t-0.5 -56.5q2 -23 5 -33.5
t10 -15.5q8 -8 23.5 -9.5t31.5 -1.5l4 -4l1 -14l-1 -4q-18 2 -39 3t-41 1q-38 0 -69 -3zM324 115q3 5 6.5 12t4.5 17l5 100h-9q-40 0 -80 -4.5t-71.5 -17.5t-51.5 -36t-20 -59q0 -38 22 -60.5t57 -22.5q21 0 42 7t39.5 18t33 23t22.5 23z" />
    <glyph glyph-name="acircumflex" unicode="&#xe2;" horiz-adv-x="496" 
d="M239 673l110 -99l3 -7l-6 -19l-7 -3l-104 61l-103 -61l-8 3l-6 19l3 7l110 99h8zM324 7q3 11 4.5 33t4.5 41l-1 3q-13 -18 -31 -35t-39.5 -30.5t-46 -21.5t-51.5 -8q-31 0 -55 11t-40 29t-24 42t-8 50q0 37 17 64.5t45 45.5q26 16 61.5 26t69 14.5t60.5 6t36 1.5h14
q-1 37 -4 58.5t-8 35.5q-11 30 -38 43.5t-65 13.5q-16 0 -34.5 -3t-35 -11t-28.5 -22.5t-14 -37.5l-4 -3h-22l-9 74l3 6q5 6 21 13t37.5 13.5t48 11t52.5 4.5q36 0 67 -9.5t53.5 -28.5t35.5 -47.5t13 -66.5q0 -42 -0.5 -74.5t-1.5 -60t-1.5 -54t-0.5 -56.5q2 -23 5 -33.5
t10 -15.5q8 -8 23.5 -9.5t31.5 -1.5l4 -4l1 -14l-1 -4q-18 2 -39 3t-41 1q-38 0 -69 -3zM324 115q3 5 6.5 12t4.5 17l5 100h-9q-40 0 -80 -4.5t-71.5 -17.5t-51.5 -36t-20 -59q0 -38 22 -60.5t57 -22.5q21 0 42 7t39.5 18t33 23t22.5 23z" />
    <glyph glyph-name="acute" unicode="&#xb4;" horiz-adv-x="219" 
d="M6 552l-6 20l3 7l180 101q17 -1 26.5 -11t9.5 -24q0 -10 -4 -19l-202 -77z" />
    <glyph glyph-name="adieresis" unicode="&#xe4;" horiz-adv-x="496" 
d="M324 7q3 11 4.5 33t4.5 41l-1 3q-13 -18 -31 -35t-39.5 -30.5t-46 -21.5t-51.5 -8q-31 0 -55 11t-40 29t-24 42t-8 50q0 37 17 64.5t45 45.5q26 16 61.5 26t69 14.5t60.5 6t36 1.5h14q-1 37 -4 58.5t-8 35.5q-11 30 -38 43.5t-65 13.5q-16 0 -34.5 -3t-35 -11
t-28.5 -22.5t-14 -37.5l-4 -3h-22l-9 74l3 6q5 6 21 13t37.5 13.5t48 11t52.5 4.5q36 0 67 -9.5t53.5 -28.5t35.5 -47.5t13 -66.5q0 -42 -0.5 -74.5t-1.5 -60t-1.5 -54t-0.5 -56.5q2 -23 5 -33.5t10 -15.5q8 -8 23.5 -9.5t31.5 -1.5l4 -4l1 -14l-1 -4q-18 2 -39 3t-41 1
q-38 0 -69 -3zM324 115q3 5 6.5 12t4.5 17l5 100h-9q-40 0 -80 -4.5t-71.5 -17.5t-51.5 -36t-20 -59q0 -38 22 -60.5t57 -22.5q21 0 42 7t39.5 18t33 23t22.5 23zM120 626q0 18 12 31.5t29 13.5q16 0 28.5 -13.5t12.5 -31.5q0 -19 -12.5 -31.5t-28.5 -12.5q-17 0 -29 12.5
t-12 31.5zM277 626q0 18 11.5 31.5t28.5 13.5t29.5 -13.5t12.5 -31.5q0 -19 -12.5 -31.5t-29.5 -12.5t-28.5 12.5t-11.5 31.5z" />
    <glyph glyph-name="ae" unicode="&#xe6;" horiz-adv-x="812" 
d="M572 -11q-66 0 -116.5 26t-82.5 73h-4q-35 -45 -85 -72t-120 -27q-31 0 -55 11t-40 29t-24 42t-8 50q0 37 17 64.5t45 45.5q26 16 61.5 26t69 14.5t60.5 6t36 1.5h14q-1 37 -4 58.5t-8 35.5q-11 30 -38 43.5t-65 13.5q-16 0 -34.5 -3t-35 -11t-28.5 -22.5t-14 -37.5
l-4 -3h-22l-9 74l3 6q5 6 21 13t37.5 13.5t48 11t52.5 4.5q50 0 90 -20t59 -58h4q29 35 75.5 56.5t98.5 21.5q26 0 58 -7t62 -26.5t54 -55t33 -93.5l-6 -24l-17 -7q-54 0 -111 -1t-111 -1h-119q-1 -7 -1 -13.5v-12.5q0 -38 11 -72.5t34.5 -60.5t61 -41.5t90.5 -15.5
q31 0 66 6.5t65 23.5l11 -6v-18l-10 -11q-24 -19 -68 -34.5t-98 -15.5zM324 115q3 5 6.5 12t4.5 17l5 100h-9q-40 0 -80 -4.5t-71.5 -17.5t-51.5 -36t-20 -59q0 -38 22 -60.5t57 -22.5q21 0 42 7t39.5 18t33 23t22.5 23zM568 430q-32 0 -58 -10.5t-45 -28t-31.5 -41
t-17.5 -49.5h39q53 0 104.5 1.5t107.5 4.5q13 1 17.5 7t4.5 14q0 6 -1 11t-3 10q-11 38 -41 59.5t-76 21.5z" />
    <glyph glyph-name="agrave" unicode="&#xe0;" horiz-adv-x="496" 
d="M316 549l-202 77q-3 10 -3 19q0 14 9 24t26 11l180 -101l3 -7l-5 -20zM324 7q3 11 4.5 33t4.5 41l-1 3q-13 -18 -31 -35t-39.5 -30.5t-46 -21.5t-51.5 -8q-31 0 -55 11t-40 29t-24 42t-8 50q0 37 17 64.5t45 45.5q26 16 61.5 26t69 14.5t60.5 6t36 1.5h14q-1 37 -4 58.5
t-8 35.5q-11 30 -38 43.5t-65 13.5q-16 0 -34.5 -3t-35 -11t-28.5 -22.5t-14 -37.5l-4 -3h-22l-9 74l3 6q5 6 21 13t37.5 13.5t48 11t52.5 4.5q36 0 67 -9.5t53.5 -28.5t35.5 -47.5t13 -66.5q0 -42 -0.5 -74.5t-1.5 -60t-1.5 -54t-0.5 -56.5q2 -23 5 -33.5t10 -15.5
q8 -8 23.5 -9.5t31.5 -1.5l4 -4l1 -14l-1 -4q-18 2 -39 3t-41 1q-38 0 -69 -3zM324 115q3 5 6.5 12t4.5 17l5 100h-9q-40 0 -80 -4.5t-71.5 -17.5t-51.5 -36t-20 -59q0 -38 22 -60.5t57 -22.5q21 0 42 7t39.5 18t33 23t22.5 23z" />
    <glyph glyph-name="ampersand" unicode="&#x26;" horiz-adv-x="755" 
d="M711 424q0 -3 -5 -15.5t-15.5 -26t-27.5 -24.5t-42 -11q-12 0 -40.5 2l-56.5 4q15 -23 22.5 -52.5t7.5 -61.5q0 -35 -9 -70t-29 -65q38 -38 76 -60t92 -24l6 -4l3 -18l-3 -4q-10 0 -25.5 -0.5t-31.5 -1.5t-29 -1.5t-19 -0.5q-30 0 -59 19t-55 45q-38 -31 -87 -47.5
t-103 -16.5q-44 0 -85 11.5t-73 34.5t-51 57t-19 79q0 30 9 60t26 56.5t41.5 48t55.5 33.5q-32 42 -46 73.5t-14 69.5q0 71 43 110.5t110 39.5q21 0 42.5 -4t40 -13.5t31.5 -24.5t18 -37l3 -10l-12 -71h-33l-4 4q-5 59 -27.5 82t-60.5 23q-44 0 -63 -25.5t-19 -58.5
q0 -38 16 -73q8 -18 24.5 -41t46.5 -58.5t76.5 -85.5l114.5 -122q25 47 25 94q0 29 -9.5 57t-27.5 57q-23 -1 -33 -7.5t-18 -17.5l-14 7q0 7 6 20t18 25.5t29.5 21.5t41.5 9q9 0 25 -1.5t35.5 -3t40.5 -2.5t41 -1q19 0 36 4t30 22zM431 96l-103 111l-106 118q-25 -8 -43 -24
t-30 -36.5t-18 -43t-6 -42.5q0 -35 15 -60.5t38.5 -42t53 -25t58.5 -8.5q38 0 75 13.5t66 39.5z" />
    <glyph glyph-name="aring" unicode="&#xe5;" horiz-adv-x="496" 
d="M258 683q39 0 61 -23.5t22 -51.5q0 -26 -21 -48t-61 -22q-21 0 -36.5 6.5t-26 17t-15.5 23t-5 25.5q0 28 22 50.5t60 22.5zM259 562q20 0 32 14.5t12 31.5q0 18 -12.5 34.5t-33.5 16.5t-32.5 -15.5t-11.5 -32.5q0 -18 13 -33.5t33 -15.5zM324 7q3 11 4.5 33t4.5 41l-1 3
q-13 -18 -31 -35t-39.5 -30.5t-46 -21.5t-51.5 -8q-31 0 -55 11t-40 29t-24 42t-8 50q0 37 17 64.5t45 45.5q26 16 61.5 26t69 14.5t60.5 6t36 1.5h14q-1 37 -4 58.5t-8 35.5q-11 30 -38 43.5t-65 13.5q-16 0 -34.5 -3t-35 -11t-28.5 -22.5t-14 -37.5l-4 -3h-22l-9 74l3 6
q5 6 21 13t37.5 13.5t48 11t52.5 4.5q36 0 67 -9.5t53.5 -28.5t35.5 -47.5t13 -66.5q0 -42 -0.5 -74.5t-1.5 -60t-1.5 -54t-0.5 -56.5q2 -23 5 -33.5t10 -15.5q8 -8 23.5 -9.5t31.5 -1.5l4 -4l1 -14l-1 -4q-18 2 -39 3t-41 1q-38 0 -69 -3zM324 115q3 5 6.5 12t4.5 17l5 100
h-9q-40 0 -80 -4.5t-71.5 -17.5t-51.5 -36t-20 -59q0 -38 22 -60.5t57 -22.5q21 0 42 7t39.5 18t33 23t22.5 23z" />
    <glyph glyph-name="asciicircum" unicode="^" horiz-adv-x="348" 
d="M178 673l110 -99l3 -7l-6 -19l-7 -3l-104 61l-104 -61l-7 3l-6 19l3 7l110 99h8z" />
    <glyph glyph-name="asciitilde" unicode="~" horiz-adv-x="479" 
d="M413 288q0 -3 -5 -15.5t-15.5 -26t-27 -24.5t-40.5 -11q-11 0 -36 1.5t-54.5 3l-57 3t-43.5 1.5q-25 0 -35 -6.5t-20 -18.5l-13 7q0 7 6 20t18 26t29 22t38 9q13 0 34.5 -1.5t46 -3l50.5 -3t48 -1.5q17 0 34.5 4t30.5 22z" />
    <glyph glyph-name="asterisk" unicode="*" horiz-adv-x="439" 
d="M377 481q-12 -14 -18 -24t-11 -26q-2 0 -3 -0.5t-2 -0.5q-25 21 -48 38t-60 41l5 -48.5l3.5 -34t3.5 -26t5 -23.5l-4 -3q-10 1 -14.5 1h-12.5h-13.5t-14.5 -1l-3 3q5 30 7.5 58t7.5 75l-36 -25.5l-27 -19.5t-22 -17.5l-22 -18.5q-2 0 -2.5 0.5t-2.5 0.5q-6 14 -11.5 23.5
t-16.5 22.5q0 1 0.5 3t0.5 4q35 13 63.5 25.5t59.5 29.5l-37.5 19t-26 12t-24 9.5t-31.5 10.5l-2 7q11 14 17.5 24t12.5 24l4 1l12 -10.5t17.5 -14l29 -21.5l46.5 -34q-2 19 -4.5 35.5l-5 32t-6.5 31l-9 34.5l3 4q9 -2 14 -2h15h14t14 2q1 -2 1.5 -2t1.5 -1
q-7 -29 -8.5 -62.5t-1.5 -71.5l31.5 24.5t24.5 20.5l21 19.5l22 21.5q1 -3 5 -3l11.5 -22.5t16.5 -24.5q-1 -2 -1 -4v-3l-33 -13t-29 -12.5l-28 -13.5l-31 -16l32.5 -17.5t29 -13.5t30.5 -11t38 -11z" />
    <glyph glyph-name="at" unicode="@" horiz-adv-x="722" 
d="M441 354q-6 6 -25 6q-33 0 -57 -18.5t-39 -45.5t-22 -58.5t-7 -57.5q0 -33 9 -48.5t23 -15.5q13 0 27.5 10.5t27.5 27t23.5 36.5t14.5 39zM577 -23q-10 -9 -31.5 -22.5t-51.5 -26t-67 -21t-78 -8.5q-60 0 -113 20t-93 56.5t-63.5 88.5t-23.5 116q0 57 20.5 121.5
t63.5 119.5t109.5 91t158.5 36q70 0 121.5 -22t85 -57t49.5 -79t16 -89q0 -44 -14.5 -85t-41.5 -72.5t-64.5 -50.5t-83.5 -19q-24 0 -38.5 5.5t-22 15t-10 23t-2.5 29.5q-17 -34 -42.5 -54t-51.5 -20q-15 0 -30 7.5t-27 22.5t-19.5 37.5t-7.5 52.5q0 45 17 81t44.5 61.5
t61.5 39.5t68 14q24 0 52.5 -8t45.5 -25l-37 -178q-2 -11 -3 -19.5t-1 -15.5q0 -14 6 -21t23 -7q27 0 49.5 15.5t39 41t25.5 58.5t9 67q0 37 -12.5 74.5t-39 67.5t-67.5 49t-99 19q-72 0 -127 -29t-92 -76t-56 -105.5t-19 -116.5q0 -63 20.5 -108t54.5 -74.5t78.5 -43
t92.5 -13.5q41 0 76.5 8.5t64 21t49.5 26.5t32 24l13 -10z" />
    <glyph glyph-name="atilde" unicode="&#xe3;" horiz-adv-x="496" 
d="M324 7q3 11 4.5 33t4.5 41l-1 3q-13 -18 -31 -35t-39.5 -30.5t-46 -21.5t-51.5 -8q-31 0 -55 11t-40 29t-24 42t-8 50q0 37 17 64.5t45 45.5q26 16 61.5 26t69 14.5t60.5 6t36 1.5h14q-1 37 -4 58.5t-8 35.5q-11 30 -38 43.5t-65 13.5q-16 0 -34.5 -3t-35 -11
t-28.5 -22.5t-14 -37.5l-4 -3h-22l-9 74l3 6q5 6 21 13t37.5 13.5t48 11t52.5 4.5q36 0 67 -9.5t53.5 -28.5t35.5 -47.5t13 -66.5q0 -42 -0.5 -74.5t-1.5 -60t-1.5 -54t-0.5 -56.5q2 -23 5 -33.5t10 -15.5q8 -8 23.5 -9.5t31.5 -1.5l4 -4l1 -14l-1 -4q-18 2 -39 3t-41 1
q-38 0 -69 -3zM324 115q3 5 6.5 12t4.5 17l5 100h-9q-40 0 -80 -4.5t-71.5 -17.5t-51.5 -36t-20 -59q0 -38 22 -60.5t57 -22.5q21 0 42 7t39.5 18t33 23t22.5 23zM398 668q0 -3 -5 -15.5t-15.5 -26t-27 -24.5t-40.5 -11q-11 0 -31.5 1.5t-44 3l-46.5 3t-39 1.5
q-25 0 -35 -6.5t-20 -18.5l-13 8q0 7 6 20t18 25.5t29 21.5t38 9q26 0 65.5 -4.5t83.5 -4.5q17 0 34 4t31 22z" />
    <glyph glyph-name="b" unicode="b" horiz-adv-x="599" 
d="M166 80q0 -20 4.5 -41t8.5 -32l-7 -7h-46q-7 0 -21.5 -0.5l-30 -1t-30 -1.5t-21.5 -1l-1 4l1 14l4 4q16 0 31.5 1.5t23.5 9.5q8 7 10.5 18t4.5 31l1 9q0 9 0.5 20.5t1 28t0.5 40v58.5v240v69.5t-0.5 49.5t-1 36.5t-1.5 32.5q-1 11 -5.5 19t-7.5 12q-10 11 -25 14t-31 3
l-4 4v13l4 4h18q17 0 43 0.5t45 3.5l35 5l6 -9q-2 -4 -3.5 -14.5t-2.5 -22.5t-1.5 -23t-0.5 -17v-30t-0.5 -33t-0.5 -46v-69q0 -43 -1 -62.5t-2 -31.5l3 -2q29 42 71 68.5t95 26.5q57 0 98.5 -20t68.5 -53t40 -75.5t13 -88.5q0 -68 -21 -115.5t-53.5 -77t-71 -43
t-73.5 -13.5q-48 0 -90.5 21t-73.5 72zM476 236q0 34 -9 67t-27.5 58.5t-46.5 41t-66 15.5q-39 0 -69 -15t-50.5 -36t-31 -43.5t-10.5 -38.5v-109q3 -16 14 -38.5t30.5 -43.5t47.5 -35.5t67 -14.5t67.5 16.5t47 43.5t27.5 61.5t9 70.5z" />
    <glyph glyph-name="backslash" unicode="\" horiz-adv-x="434" 
d="M393 -57h-78l-3 4q-16 67 -43.5 147l-54.5 155l-67 184l-21.5 58l-26.5 68.5l-29 71.5t-31 67v4h78l3 -4q7 -31 17.5 -67t22.5 -71.5l24 -68.5l21 -58l66 -184l58.5 -155t64.5 -147z" />
    <glyph glyph-name="bar" unicode="|" horiz-adv-x="237" 
d="M79 -110q8 67 10 147.5t2 154.5v308v57.5t-1.5 68.5t-4 71.5t-6.5 66.5l1 4h76l2 -4q-5 -31 -7 -66.5t-3.5 -71.5t-1.5 -68.5v-57.5v-308q0 -74 2 -154.5t10 -147.5l-2 -4h-76z" />
    <glyph glyph-name="braceleft" unicode="{" horiz-adv-x="254" 
d="M227 749q-26 -3 -40.5 -12.5t-22.5 -24.5t-10 -34.5t-2 -40.5q0 -9 0.5 -28t0.5 -40t0.5 -41.5t0.5 -33.5q0 -31 -4.5 -58.5t-15 -49.5t-28.5 -37.5t-46 -21.5q28 -6 46 -21.5t28.5 -37.5t15 -49.5t4.5 -58.5q0 -13 -0.5 -33.5t-0.5 -41.5t-0.5 -40t-0.5 -28
q0 -21 2 -40.5t10 -34.5t22.5 -24.5t40.5 -12.5l-2 -11q-43 0 -69.5 10.5t-40.5 29t-19 44.5t-5 58q0 11 0.5 30t0.5 40.5t0.5 42.5t0.5 35q0 20 -1.5 43.5t-8 44t-21 35t-41.5 15.5v10q27 1 41.5 16t21.5 36.5t8 45.5t1 43q0 15 -0.5 35.5t-0.5 41.5t-0.5 39t-0.5 29
q0 31 5 57.5t19 45t40.5 29t69.5 10.5z" />
    <glyph glyph-name="braceright" unicode="}" horiz-adv-x="253" 
d="M28 760q43 0 69.5 -10.5t40.5 -29t19 -45t5 -57.5v-29t-0.5 -39t-0.5 -41.5v-35.5q0 -19 1 -43t8 -45.5t21 -36.5t41 -16v-10q-27 -1 -41 -15.5t-21 -35t-8 -44t-1 -43.5v-35t0.5 -42.5t0.5 -40.5v-30q0 -32 -5 -58t-19 -44.5t-40.5 -29t-69.5 -10.5l-2 11
q25 3 40.5 12.5t23 24.5t10 34.5t2.5 40.5q0 9 -0.5 28t-0.5 40t-0.5 41.5t-0.5 33.5q0 31 4.5 58.5t15 49.5t28.5 37.5t46 21.5q-28 6 -46 21.5t-28.5 37.5t-15 49.5t-4.5 58.5q0 13 0.5 33.5t0.5 41.5t0.5 40t0.5 28q0 21 -2.5 40.5t-10 34.5t-23 24.5t-40.5 12.5z" />
    <glyph glyph-name="bracketleft" unicode="[" horiz-adv-x="278" 
d="M262 751l-2 -18l-5 -4q-8 0 -18.5 -0.5t-21 -1.5t-19.5 -3t-13 -5q-8 -7 -15.5 -18t-9.5 -39t-2.5 -68t-0.5 -112v-251v-73.5t0.5 -70.5t1 -58t1.5 -37q2 -28 9.5 -39t15.5 -18q4 -3 13 -5t19.5 -3t21 -1.5t18.5 -0.5l5 -4l2 -18l-1 -4q-7 0 -21.5 1l-30 2l-30 2t-21.5 1
h-76l-2 4q8 67 10 147.5t2 154.5v270v57.5t-1.5 68.5t-4 71.5t-6.5 66.5l2 4h76q7 0 21.5 1l30 2l30 2t21.5 1z" />
    <glyph glyph-name="bracketright" unicode="]" horiz-adv-x="278" 
d="M17 755q7 0 21.5 -1l30 -2l30 -2t21.5 -1h76l2 -4q-5 -31 -7 -66.5t-3.5 -71.5t-1.5 -68.5v-57.5v-270q0 -74 2 -154.5t10 -147.5l-2 -4h-76q-7 0 -21.5 -1l-30 -2l-30 -2t-21.5 -1l-1 4l2 18l5 4q8 0 18.5 0.5t21 1.5t19.5 3t13 5q8 7 15.5 18t9.5 39q1 12 1.5 37t1 58
t0.5 70.5v73.5v251q0 72 -0.5 112t-2.5 68t-9.5 39t-15.5 18q-4 3 -13 5t-19.5 3t-21 1.5t-18.5 0.5l-5 4l-2 18z" />
    <glyph glyph-name="brokenbar" unicode="&#xa6;" horiz-adv-x="241" 
d="M81 384q4 33 6.5 57t3.5 44.5t1.5 40.5t0.5 46v33v29t-1.5 33.5t-4 42t-6.5 54.5l1 4h76l2 -4q-5 -31 -7 -54.5l-3.5 -42t-1.5 -33.5v-29v-33q0 -26 0.5 -46t1.5 -40.5t3.5 -44.5t6.5 -57l-2 -4h-76zM81 -110q4 33 6.5 57t3.5 44.5t1.5 40.5t0.5 46v32v29t-1.5 33.5
t-4 42.5t-6.5 55l1 4h76l2 -4q-5 -31 -7 -55l-3.5 -42.5t-1.5 -33.5v-29v-32q0 -26 0.5 -46t1.5 -40.5t3.5 -44.5t6.5 -57l-2 -4h-76z" />
    <glyph glyph-name="bullet" unicode="&#x2022;" horiz-adv-x="326" 
d="M95 243q0 27 19.5 48t48.5 21q13 0 25.5 -5.5t22 -15.5t15 -22.5t5.5 -25.5q0 -29 -21 -48t-47 -19q-29 0 -48.5 19t-19.5 48z" />
    <glyph glyph-name="c" unicode="c" horiz-adv-x="509" 
d="M427 353l-4 3q0 23 -13.5 37.5t-32.5 22.5t-40.5 11t-37.5 3q-46 0 -79.5 -16.5t-55.5 -44t-32.5 -63t-10.5 -72.5q0 -38 11.5 -73t35.5 -62t60 -43t86 -16q34 0 75.5 10.5t71.5 26.5l10 -10l-15 -28q-11 -8 -28.5 -16.5t-39.5 -16t-47.5 -12.5t-50.5 -5
q-49 0 -93.5 17.5t-78 49t-53.5 76t-20 98.5q0 55 20 100t55 77t81.5 50t99.5 18q48 0 90.5 -12t64.5 -24l3 -9l-11 -77h-21z" />
    <glyph glyph-name="caron" unicode="&#x2c7;" horiz-adv-x="234" 
d="M113 545l-110 99l-3 6l6 20l7 3l104 -62l104 62l7 -3l6 -20l-3 -6l-110 -99h-8z" />
    <glyph glyph-name="ccedilla" unicode="&#xe7;" horiz-adv-x="509" 
d="M176 -178l13 23h7q12 -5 30.5 -8.5t38.5 -3.5q22 0 37.5 8.5t15.5 31.5q0 27 -15 36.5t-36 9.5q-12 0 -25 -2t-24 -5l-8 11l45 68q-44 6 -82 25.5t-66.5 50.5t-45 72.5t-16.5 90.5q0 55 20 100t55 77t81.5 50t99.5 18q48 0 90.5 -12t64.5 -24l3 -9l-11 -77h-21l-4 3
q0 23 -13.5 37.5t-32.5 22.5t-40.5 11t-37.5 3q-46 0 -79.5 -16.5t-55.5 -44t-32.5 -63t-10.5 -72.5q0 -38 11.5 -73t35.5 -62t60 -43t86 -16q34 0 75.5 10.5t71.5 26.5l10 -10l-15 -28q-11 -8 -28.5 -16.5t-39.5 -16t-47.5 -12.5t-50.5 -5l-25 -40q9 2 17.5 3t15.5 1
q35 0 57 -20.5t22 -51.5q0 -17 -8 -32t-22.5 -26.5t-34.5 -18.5t-44 -7t-48 5.5t-43 13.5z" />
    <glyph glyph-name="cedilla" unicode="&#xb8;" horiz-adv-x="202" 
d="M0 -178l13 23h7q12 -5 31 -8.5t38 -3.5q22 0 38 8.5t16 31.5q0 27 -15.5 36.5t-36.5 9.5q-12 0 -24.5 -2t-23.5 -5l-9 11l51 77h34l-30 -51q17 4 34 4q35 0 57 -20.5t22 -51.5q0 -17 -8.5 -32t-23 -26.5t-34.5 -18.5t-44 -7t-47.5 5.5t-43.5 13.5z" />
    <glyph glyph-name="cent" unicode="&#xa2;" horiz-adv-x="515" 
d="M245 -133q4 27 6 58.5l4 65.5q-43 4 -81.5 20.5t-67.5 44t-46 67t-17 89.5q0 49 16.5 88t45.5 67.5t67.5 45.5t82.5 22q-1 38 -3.5 74t-6.5 64l2 4h76l2 -4q-5 -27 -7 -62.5l-4 -73.5q45 -2 82.5 -13t57.5 -22l3 -9l-11 -77h-21l-4 3q0 21 -10.5 34.5t-26.5 21.5t-35 12
t-36 5q-1 -36 -1 -68.5v-52.5v-83v-71t1 -76q43 1 81 12t65 25l10 -10l-15 -28q-20 -14 -56 -29t-83 -20l4 -65t6 -59l-2 -4h-76zM119 218q0 -67 34 -113t102 -60q1 38 1.5 74.5t0.5 68.5v83v51.5t-1 67.5q-35 -6 -60.5 -21.5t-42.5 -38t-25.5 -51.5t-8.5 -61z" />
    <glyph glyph-name="circumflex" unicode="&#x2c6;" horiz-adv-x="234" 
d="M121 673l110 -99l3 -7l-6 -19l-7 -3l-104 61l-104 -61l-7 3l-6 19l3 7l110 99h8z" />
    <glyph glyph-name="colon" unicode=":" horiz-adv-x="227" 
d="M67 35q0 19 13 33.5t33 14.5q19 0 33.5 -14.5t14.5 -33.5t-14.5 -32.5t-33.5 -13.5q-20 0 -33 13.5t-13 32.5zM67 408q0 19 13 33t33 14q19 0 33.5 -14t14.5 -33q0 -20 -14.5 -33.5t-33.5 -13.5q-20 0 -33 13.5t-13 33.5z" />
    <glyph glyph-name="comma" unicode="," horiz-adv-x="213" 
d="M57 -97l-6 6v4q14 29 18.5 52t4.5 36q0 11 -5.5 22t-5.5 27q0 8 6 14.5t14.5 10.5t19 6t19.5 2q8 0 13 -4.5t7.5 -11.5t3.5 -14t1 -13q0 -23 -9.5 -45.5t-22.5 -41t-27.5 -32t-24.5 -18.5h-6z" />
    <glyph glyph-name="copyright" unicode="&#xa9;" horiz-adv-x="725" 
d="M435 455q-3 20 -25.5 27.5t-45.5 7.5q-45 0 -72 -21q-20 -18 -31 -48.5t-11 -65.5q0 -66 35 -100.5t87 -34.5q20 0 47 6.5t54 26.5l9 -14l-12 -28q-25 -14 -51.5 -20.5t-53.5 -6.5q-39 0 -71 12.5t-54.5 34.5t-35 53t-12.5 69q0 36 11 67.5t33 55t55 37t76 13.5
q18 0 49 -4t59 -15l1 -7l-8 -50h-27zM362 654q63 0 118.5 -23.5t96.5 -64.5t65 -95.5t24 -116.5q0 -63 -24 -118.5t-65.5 -96t-98 -64t-121.5 -23.5q-61 0 -115.5 24t-95 65t-64 96t-23.5 117t23.5 116.5t65 95.5t96.5 64.5t118 23.5zM362 625q-56 0 -104.5 -21.5t-85 -58
t-57.5 -86t-21 -105.5t21 -106t57 -87t84 -58.5t102 -21.5q57 0 107 21t87 58t58 87t21 107q0 56 -21 105.5t-58 86t-86 58t-104 21.5z" />
    <glyph glyph-name="currency" unicode="&#xa4;" horiz-adv-x="580" 
d="M136 107q-44 54 -44 123q0 32 10 61t35 60l-82 80l30 30l80 -79q32 23 61 33.5t63 10.5q35 0 64.5 -10.5t58.5 -33.5l81 78l30 -29l-79 -80q23 -31 33.5 -60t10.5 -63q0 -33 -10 -62t-33 -59l80 -80l-31 -30l-81 79q-29 -22 -59 -33.5t-63 -11.5q-32 0 -61.5 11t-62.5 34
l-80 -79l-29 30zM290 378q-30 0 -57 -11.5t-47.5 -31.5t-32 -47.5t-11.5 -58.5t11.5 -58t32 -47.5t47.5 -32t58 -11.5t57.5 11.5t46.5 32t31.5 47.5t11.5 58t-11.5 58t-31.5 47t-47 32t-58 12z" />
    <glyph glyph-name="d" unicode="d" horiz-adv-x="599" 
d="M420 7q3 11 5.5 33l4.5 39l-1 4q-28 -42 -69 -68t-94 -26q-57 0 -98.5 20t-68 53t-39.5 75.5t-13 88.5q0 68 21 115.5t53 77t70.5 43t73.5 13.5q48 0 92 -21.5t75 -72.5l2 4q-2 23 -2 44.5v44.5v69.5t-0.5 49.5t-1 37t-1.5 32q-1 11 -5.5 19t-7.5 12q-10 11 -25 14t-31 3
l-4 4v13l4 4h18q17 0 43 0.5t45 3.5l35 5l6 -9q-2 -4 -3.5 -14.5t-2 -22.5l-1 -23t-0.5 -17q0 -16 -0.5 -30t-0.5 -33t-0.5 -46t-0.5 -69v-218q0 -42 0.5 -69t1 -46t1 -33t1.5 -32q2 -23 5 -33.5t9 -15.5q9 -8 24 -9.5t31 -1.5l4 -4l2 -14l-2 -4q-18 2 -38.5 3t-41.5 1
q-37 0 -68 -3zM123 228q0 -34 9 -67t27 -58.5t46 -41t67 -15.5q37 0 66.5 14t49.5 34t31.5 42t12.5 38v111q-2 16 -12.5 39t-30 44.5t-48 36.5t-67.5 15q-40 0 -68.5 -16.5t-47 -43.5t-27 -61.5t-8.5 -70.5z" />
    <glyph glyph-name="dagger" unicode="&#x2020;" horiz-adv-x="474" 
d="M192 113q8 67 10 147.5t2 154.5v19h-10q-15 0 -28 -0.5t-29 -1.5t-38 -3.5l-56 -6.5l-3 2v69l3 2l56 -6.5t38 -3.5t29 -1.5t28 -0.5h10q-1 48 -3.5 103t-8.5 102l2 4h86l2 -4q-7 -43 -9 -99t-3 -106h9q15 0 28 0.5t29.5 1.5t38.5 3.5l55 6.5l4 -2v-69l-4 -2l-55 6.5
t-38.5 3.5t-29.5 1.5t-28 0.5h-9v-19q0 -74 2 -154.5t10 -147.5l-2 -4h-86z" />
    <glyph glyph-name="daggerdbl" unicode="&#x2021;" horiz-adv-x="510" 
d="M210 -67q5 45 7.5 98t3.5 107h-9q-15 0 -28 -0.5t-29 -1.5t-38 -4t-56 -7l-3 2v70l3 2q34 -5 56 -7.5t38 -3.5t29 -1.5t28 -0.5h10v248h-10q-15 0 -28 -0.5t-29 -1.5t-38 -3.5l-56 -6.5l-3 2v69l3 2l56 -6.5t38 -3.5t29 -1.5t28 -0.5h10q-1 48 -3.5 103t-8.5 102l2 4h86
l2 -4q-7 -43 -9 -99t-3 -106h9q15 0 28 0.5t29.5 1.5t38.5 3.5l55 6.5l4 -2v-69l-4 -2l-55 6.5t-38.5 3.5t-29.5 1.5t-28 0.5h-9v-248h9q15 0 28 0.5t29.5 1.5t38.5 3.5t55 7.5l4 -2v-70l-4 -2q-33 4 -55 7t-38.5 4t-29.5 1.5t-28 0.5h-9q1 -54 3.5 -107t8.5 -98l-2 -4h-86z
" />
    <glyph glyph-name="degree" unicode="&#xb0;" horiz-adv-x="340" 
d="M169 658q61 0 92 -35t31 -83q0 -22 -7.5 -42t-22.5 -35.5t-38.5 -24.5t-54.5 -9q-32 0 -55 9.5t-37.5 25.5t-21.5 36.5t-7 42.5q0 24 8 44.5t23.5 36.5t38 25t51.5 9zM169 459q40 0 59.5 23t19.5 58q0 34 -19.5 59.5t-60.5 25.5q-42 0 -60 -24.5t-18 -56.5q0 -35 20 -60
t59 -25z" />
    <glyph glyph-name="dieresis" unicode="&#xa8;" horiz-adv-x="220" 
d="M0 631q0 18 12 31.5t29 13.5t29.5 -13.5t12.5 -31.5q0 -19 -12.5 -31.5t-29.5 -12.5t-29 12.5t-12 31.5zM137 631q0 18 12 31.5t29 13.5t29.5 -13.5t12.5 -31.5q0 -19 -12.5 -31.5t-29.5 -12.5t-29 12.5t-12 31.5z" />
    <glyph glyph-name="divide" unicode="&#xf7;" horiz-adv-x="565" 
d="M490 265l-9 -52h-405l10 52h404zM247 80q0 19 13.5 33t33.5 14q18 0 32.5 -14t14.5 -33q0 -20 -14.5 -33.5t-32.5 -13.5q-20 0 -33.5 13.5t-13.5 33.5zM247 397q0 19 13.5 33.5t33.5 14.5q18 0 32.5 -14.5t14.5 -33.5t-14.5 -32.5t-32.5 -13.5q-20 0 -33.5 13.5
t-13.5 32.5z" />
    <glyph glyph-name="dollar" unicode="$" horiz-adv-x="533" 
d="M238 -93q2 22 3.5 46t3.5 49q-58 1 -106 14t-86 33l-4 14l17 101h25l5 -5q5 -55 43 -82.5t107 -29.5q2 38 2 76v75v111q-2 0 -3 1q-40 12 -74 26.5t-59 35.5t-39 49t-14 67q0 42 14 71.5t38.5 49t58.5 30t75 12.5q-1 25 -3 49.5t-4 46.5l2 3h61l2 -3q-3 -22 -4.5 -46.5
t-3.5 -49.5q46 -2 85.5 -11.5t65.5 -20.5l4 -11l-14 -85h-28l-4 5q-2 21 -12.5 35t-26.5 23t-34.5 13t-36.5 6q-1 -32 -1 -60.5v-51.5v-114q1 -1 3 -1q37 -11 72.5 -26t63.5 -37.5t44.5 -55t16.5 -78.5q0 -44 -15.5 -75.5t-42 -53t-62.5 -33.5t-77 -15q1 -26 3 -50l4 -47
l-2 -3h-61zM293 198v-74t1 -76q63 8 92.5 40t29.5 80q0 27 -10 47t-26.5 35t-39 25.5t-47.5 19.5v-97zM132 500q0 -23 7 -39t21 -28t36 -21.5t52 -18.5v100v51.5t-1 60.5q-55 -5 -85 -31.5t-30 -73.5z" />
    <glyph glyph-name="dotlessi" unicode="&#x131;" horiz-adv-x="276" 
d="M252 -4q-7 0 -21 1t-30 1.5t-30 1t-21 0.5h-14q-7 0 -21.5 -0.5l-30 -1t-30 -1.5t-21.5 -1l-1 4l1 14l4 4q16 0 31.5 1.5t23.5 9.5q8 7 10.5 18t4.5 31l2 32.5t1 52.5v123v35.5t-0.5 25.5t-1 20t-1.5 19q-2 11 -6 19.5t-7 11.5q-10 12 -25 14.5t-31 2.5l-4 4v14l4 3h18
q17 0 43 0.5t45 3.5l35 5l6 -9q-2 -4 -3.5 -14t-2 -21.5l-1 -22.5t-0.5 -17q0 -8 -0.5 -15.5t-0.5 -17.5t-0.5 -24t-0.5 -36v-112q0 -22 0.5 -36t1 -24t1 -18.5t1.5 -18.5q2 -21 4.5 -31.5t10.5 -17.5t22.5 -9t29.5 -2l5 -5l2 -13z" />
    <glyph glyph-name="e" unicode="e" horiz-adv-x="525" 
d="M480 269l-16 -7q-54 0 -111 -1t-112 -1h-118q-1 -7 -1 -13.5v-12.5q0 -38 11 -72.5t34.5 -60.5t60.5 -41.5t90 -15.5q31 0 66.5 6.5t65.5 23.5l10 -6v-18l-10 -11q-24 -19 -68 -34.5t-98 -15.5q-53 0 -96.5 17.5t-75 49.5t-49 76t-17.5 98q0 55 18 100t49.5 77t74 50
t91.5 18q26 0 58.5 -7t62.5 -26.5t54 -55t33 -93.5zM280 430q-32 0 -57.5 -10.5t-45 -28t-32 -41t-17.5 -49.5h39q54 0 105 1.5t107 4.5q13 1 17.5 7t4.5 14q0 6 -1 11t-3 10q-11 38 -41 59.5t-76 21.5z" />
    <glyph glyph-name="eacute" unicode="&#xe9;" horiz-adv-x="525" 
d="M480 269l-16 -7q-54 0 -111 -1t-112 -1h-118q-1 -7 -1 -13.5v-12.5q0 -38 11 -72.5t34.5 -60.5t60.5 -41.5t90 -15.5q31 0 66.5 6.5t65.5 23.5l10 -6v-18l-10 -11q-24 -19 -68 -34.5t-98 -15.5q-53 0 -96.5 17.5t-75 49.5t-49 76t-17.5 98q0 55 18 100t49.5 77t74 50
t91.5 18q26 0 58.5 -7t62.5 -26.5t54 -55t33 -93.5zM280 430q-32 0 -57.5 -10.5t-45 -28t-32 -41t-17.5 -49.5h39q54 0 105 1.5t107 4.5q13 1 17.5 7t4.5 14q0 6 -1 11t-3 10q-11 38 -41 59.5t-76 21.5zM199 552l-6 20l3 7l180 101q17 -1 26 -11t9 -24q0 -4 -0.5 -9
t-2.5 -10l-202 -77z" />
    <glyph glyph-name="ecircumflex" unicode="&#xea;" horiz-adv-x="525" 
d="M480 269l-16 -7q-54 0 -111 -1t-112 -1h-118q-1 -7 -1 -13.5v-12.5q0 -38 11 -72.5t34.5 -60.5t60.5 -41.5t90 -15.5q31 0 66.5 6.5t65.5 23.5l10 -6v-18l-10 -11q-24 -19 -68 -34.5t-98 -15.5q-53 0 -96.5 17.5t-75 49.5t-49 76t-17.5 98q0 55 18 100t49.5 77t74 50
t91.5 18q26 0 58.5 -7t62.5 -26.5t54 -55t33 -93.5zM280 430q-32 0 -57.5 -10.5t-45 -28t-32 -41t-17.5 -49.5h39q54 0 105 1.5t107 4.5q13 1 17.5 7t4.5 14q0 6 -1 11t-3 10q-11 38 -41 59.5t-76 21.5zM279 673l111 -99l2 -7l-5 -19l-8 -3l-103 61l-104 -61l-8 3l-5 19l2 7
l111 99h7z" />
    <glyph glyph-name="edieresis" unicode="&#xeb;" horiz-adv-x="525" 
d="M480 269l-16 -7q-54 0 -111 -1t-112 -1h-118q-1 -7 -1 -13.5v-12.5q0 -38 11 -72.5t34.5 -60.5t60.5 -41.5t90 -15.5q31 0 66.5 6.5t65.5 23.5l10 -6v-18l-10 -11q-24 -19 -68 -34.5t-98 -15.5q-53 0 -96.5 17.5t-75 49.5t-49 76t-17.5 98q0 55 18 100t49.5 77t74 50
t91.5 18q26 0 58.5 -7t62.5 -26.5t54 -55t33 -93.5zM280 430q-32 0 -57.5 -10.5t-45 -28t-32 -41t-17.5 -49.5h39q54 0 105 1.5t107 4.5q13 1 17.5 7t4.5 14q0 6 -1 11t-3 10q-11 38 -41 59.5t-76 21.5zM154 626q0 18 12 31.5t29 13.5t29.5 -13.5t12.5 -31.5
q0 -19 -12.5 -31.5t-29.5 -12.5t-29 12.5t-12 31.5zM311 626q0 18 12 31.5t29 13.5t29.5 -13.5t12.5 -31.5q0 -19 -12.5 -31.5t-29.5 -12.5t-29 12.5t-12 31.5z" />
    <glyph glyph-name="egrave" unicode="&#xe8;" horiz-adv-x="525" 
d="M480 269l-16 -7q-54 0 -111 -1t-112 -1h-118q-1 -7 -1 -13.5v-12.5q0 -38 11 -72.5t34.5 -60.5t60.5 -41.5t90 -15.5q31 0 66.5 6.5t65.5 23.5l10 -6v-18l-10 -11q-24 -19 -68 -34.5t-98 -15.5q-53 0 -96.5 17.5t-75 49.5t-49 76t-17.5 98q0 55 18 100t49.5 77t74 50
t91.5 18q26 0 58.5 -7t62.5 -26.5t54 -55t33 -93.5zM280 430q-32 0 -57.5 -10.5t-45 -28t-32 -41t-17.5 -49.5h39q54 0 105 1.5t107 4.5q13 1 17.5 7t4.5 14q0 6 -1 11t-3 10q-11 38 -41 59.5t-76 21.5zM346 549l-202 77q-3 10 -3 19q0 14 9 24t26 11l180 -101l3 -7l-5 -20z
" />
    <glyph glyph-name="eight" unicode="8" horiz-adv-x="558" 
d="M276 665q40 0 75 -10.5t60.5 -31.5t40 -52t14.5 -71q0 -30 -7.5 -52t-20 -37.5t-28 -25.5t-31.5 -16v-4q32 -10 55 -29t37.5 -43t21.5 -52t7 -55q0 -36 -11 -71.5t-37 -63t-68.5 -45t-105.5 -17.5q-62 0 -104.5 17t-68 45t-36.5 63.5t-11 71.5q0 61 29.5 109.5t91.5 69.5
v4q-35 11 -61 42t-26 90q0 79 51 121.5t133 42.5zM277 335q-40 0 -67.5 -15t-44 -37.5t-24 -49.5t-7.5 -52q0 -21 7.5 -45.5t24.5 -45.5t44.5 -34.5t68.5 -13.5t68.5 12.5t44.5 32t24.5 44t7.5 48.5q0 27 -8 54.5t-25.5 50t-45.5 37t-68 14.5zM390 504q0 57 -29 82.5
t-84 25.5q-58 0 -83.5 -27.5t-25.5 -78.5q0 -60 30 -91t81 -31q24 0 44.5 9.5t35.5 26t23 38t8 46.5z" />
    <glyph glyph-name="ellipsis" unicode="&#x2026;" horiz-adv-x="595" 
d="M62 35q0 19 13 33.5t33 14.5q19 0 33.5 -14.5t14.5 -33.5t-14.5 -32.5t-33.5 -13.5q-20 0 -33 13.5t-13 32.5zM251 35q0 19 13.5 33.5t32.5 14.5t33.5 -14.5t14.5 -33.5t-14.5 -32.5t-33.5 -13.5t-32.5 13.5t-13.5 32.5zM440 35q0 19 13.5 33.5t32.5 14.5t33.5 -14.5
t14.5 -33.5t-14.5 -32.5t-33.5 -13.5t-32.5 13.5t-13.5 32.5z" />
    <glyph glyph-name="emdash" unicode="&#x2014;" horiz-adv-x="786" 
d="M719 265l-9 -52h-643l10 52h642z" />
    <glyph glyph-name="endash" unicode="&#x2013;" horiz-adv-x="548" 
d="M481 265l-9 -52h-405l10 52h404z" />
    <glyph glyph-name="equal" unicode="=" horiz-adv-x="488" 
d="M413 189l-10 -52h-328l9 52h329zM413 341l-10 -52h-328l9 52h329z" />
    <glyph glyph-name="eth" unicode="&#xf0;" horiz-adv-x="579" 
d="M443 407q-2 56 -20.5 104t-42.5 87l-110 -44l-21 34l111 46q-7 16 -19 29t-24.5 22.5t-25 16.5t-21.5 10l17 28q72 -20 125 -87l100 40l21 -34l-97 -39q42 -66 64 -151.5t22 -177.5q0 -60 -12.5 -114.5t-40 -96.5t-72.5 -66.5t-110 -24.5q-63 0 -109 21t-75 55t-43 77.5
t-14 89.5q0 49 15.5 93t46 77.5t75 53t102.5 19.5q40 0 81.5 -16t73.5 -53zM286 28q42 0 72.5 18.5t50 48t29 66.5t9.5 75q0 92 -43.5 143.5t-121.5 51.5q-44 0 -74.5 -17t-49.5 -45t-28 -63.5t-9 -71.5q0 -37 10.5 -73.5t31 -66t51.5 -48t72 -18.5z" />
    <glyph glyph-name="exclam" unicode="!" horiz-adv-x="246" 
d="M169 683q0 -9 -0.5 -16.5t-0.5 -12.5l-2 -22t-2.5 -29.5t-3.5 -49t-4.5 -80.5t-5 -123.5t-4.5 -177.5l-5 -7l-35 -16l-6 4q-2 99 -4.5 171.5t-4.5 124t-4 86t-4 57t-3 36t-2 23.5l4 9l82 26zM76 35q0 19 13.5 33.5t33.5 14.5q18 0 32.5 -14.5t14.5 -33.5t-14.5 -32.5
t-32.5 -13.5q-20 0 -33.5 13.5t-13.5 32.5z" />
    <glyph glyph-name="exclamdown" unicode="&#xa1;" horiz-adv-x="225" 
d="M65 429q0 19 13.5 32.5t33.5 13.5q18 0 32.5 -13.5t14.5 -32.5t-14.5 -33.5t-32.5 -14.5q-20 0 -33.5 14.5t-13.5 33.5zM153 -222l-82 26l-4 9q1 10 2 23.5t3 36t4 57t4 86t4.5 124t4.5 171.5l6 4l35 -17l5 -6q2 -104 4.5 -177.5t5 -123.5t4.5 -80.5t3.5 -49t2.5 -29.5
l2 -22q0 -5 0.5 -12.5t0.5 -16.5z" />
    <glyph glyph-name="f" unicode="f" horiz-adv-x="333" 
d="M305 413h-127v-155v-70.5t0.5 -48t1.5 -33.5l2 -28q2 -15 4.5 -28.5t10.5 -20.5q5 -4 14.5 -6t20 -3t20.5 -1.5t16 -0.5l5 -5l2 -13l-2 -4q-7 0 -22.5 1t-32.5 1.5l-32.5 1t-22.5 0.5h-24q-7 0 -21.5 -0.5t-30.5 -1t-30.5 -1.5t-21.5 -1l-1 4l1 14l4 4q16 0 31.5 1.5
t23.5 9.5q6 6 10 15.5t5.5 31.5t2 59t0.5 99v179h-74l-4 5v18l4 4l74 15v57q0 107 40 170t117 63q23 0 50 -7t56 -23l5 -10l-12 -77h-26q-4 32 -29.5 50t-57.5 18q-29 0 -44.5 -11.5t-23 -30.5t-8.5 -43.5t-1 -49.5v-106l127 6l5 -4v-39z" />
    <glyph glyph-name="five" unicode="5" horiz-adv-x="531" 
d="M410 201q0 42 -14 68.5t-36 42t-50.5 21t-56.5 5.5q-36 0 -71 -8t-64 -25h-10l-27 15l-2 7l32 319l6 8h90q27 0 80 1.5t122 6.5l9 -8l15 -108l-6 -7h-18l-6 5q-4 22 -10 34.5t-23 18.5t-49 7.5t-87 1.5h-60q-6 0 -6 -5l-20 -224q26 10 57.5 15t66.5 5q41 0 79 -9.5
t67.5 -31t47 -57.5t17.5 -90q0 -53 -18 -94t-50.5 -69t-77.5 -42.5t-99 -14.5q-70 0 -113.5 22t-70.5 59l-1 10l11 71h36l3 -4q2 -45 38.5 -75t106.5 -30q45 0 76 13t50 35t27.5 51t8.5 60z" />
    <glyph glyph-name="florin" unicode="&#x192;" horiz-adv-x="650" 
d="M271 -4q-10 -46 -29.5 -91.5t-46.5 -82t-61 -59.5t-73 -23q-7 0 -15 1.5t-19 7.5l19 50h16q12 -6 24 -6q22 0 40 15t31.5 40t24 56.5t18.5 64.5t14 65l11 58l64 321h-74l-4 5l7 33l6 4h74l12 57q23 107 76 170t131 63q23 0 47.5 -7t50.5 -23l4 -10l-28 -77h-26
q0 32 -18 50t-50 18q-29 0 -47 -11.5t-29 -30.5t-17.5 -43.5t-11.5 -49.5l-23 -106h128l3 -4l-6 -33l-6 -5h-127z" />
    <glyph glyph-name="four" unicode="4" horiz-adv-x="508" 
d="M32 223l-11 22l43.5 73l51.5 82l54.5 83l51 75.5l42 60l27.5 37.5l65 9h8l12 -11q-1 -8 -1.5 -18.5l-1 -21.5l-1 -21t-0.5 -16q-1 -16 -1.5 -30t-1 -33t-0.5 -46v-69v-129h85l4 -6l-11 -41l-7 -5h-71v-46t0.5 -34t1 -28t2.5 -28q2 -21 9.5 -31.5t15.5 -17.5t27.5 -11
t34.5 -4l4 -5l2 -13l-2 -4q-7 0 -21 1t-29.5 1.5t-29.5 1t-21 0.5h-56q-7 0 -23 -0.5l-33.5 -1t-33.5 -1.5t-23 -1l-1 4l4 14l4 4q8 0 18.5 1t21 3t19 4.5t12.5 6.5q8 7 15 18t9 31q2 25 3 57.5t1 78.5h-259zM297 581q-17 -20 -43.5 -56t-55 -80l-56 -90t-46.5 -85h204v127
v45t-0.5 49l-1 48.5t-1.5 41.5z" />
    <glyph glyph-name="foursuperior" unicode="&#x2074;" horiz-adv-x="330" 
d="M36 423l-6 15l134 219l58 8l7 -5q-1 -8 -1.5 -18t-1 -31.5t-1 -59t-0.5 -99.5h36l-8 -32h-28q0 -32 1 -52.5t5.5 -33.5t15 -18t28.5 -5l2 -12q-8 0 -27.5 1t-27.5 1h-38q-4 0 -12.5 -0.5t-17.5 -0.5t-17.5 -0.5t-12.5 -0.5l3 12q20 0 31 5.5t16 18t6 33.5t1 52h-140z
M80 452h101q0 73 -0.5 110.5t-1.5 57.5z" />
    <glyph glyph-name="g" unicode="g" horiz-adv-x="506" 
d="M151 136q-54 20 -78 63t-24 95q0 37 13 70t37.5 57.5t59 38.5t78.5 14q26 0 51.5 -5t44.5 -14q42 1 78.5 5t68.5 13l5 -4l-7 -55l-5 -5l-91 4l-1 -3q26 -21 38 -55t12 -66q0 -33 -12.5 -63t-36.5 -52.5t-60 -36t-83 -13.5q-8 0 -20 0.5t-20 0.5q-17 -7 -25.5 -19
t-8.5 -20q0 -10 13.5 -17.5t43.5 -10.5l97 -10q33 -4 61.5 -14t50 -26.5t33.5 -40t12 -54.5q0 -29 -13 -58.5t-39 -52.5q-26 -22 -72 -36t-106 -14q-54 0 -93.5 11.5t-66 31t-39.5 44t-13 50.5q0 42 27.5 74.5t70.5 45.5l1 3q-22 9 -35 22.5t-13 33.5q0 26 21 42t45 22v4z
M241 166q28 0 49.5 10t36.5 27t23 39.5t8 46.5q0 25 -8 50t-23.5 45t-38.5 33t-53 13q-29 0 -50.5 -12t-36 -31t-21.5 -42.5t-7 -46.5q0 -24 7.5 -47.5t23 -42.5t38 -30.5t52.5 -11.5zM209 -5q-28 -1 -49 -10t-35.5 -22.5t-21.5 -30t-7 -32.5q0 -38 42 -62t114 -24
q33 0 61 5.5t48.5 17t32.5 28t12 38.5q0 24 -11.5 39t-30 24.5t-42 14t-46.5 7.5z" />
    <glyph glyph-name="germandbls" unicode="&#xdf;" horiz-adv-x="578" 
d="M110 484q0 57 11 103.5t33 79.5t55.5 51t79.5 18q37 0 66.5 -11t49.5 -29.5t31 -42t11 -48.5q0 -34 -16.5 -60t-36.5 -48t-36.5 -43t-16.5 -45q0 -23 14.5 -39.5t36 -32t47 -32t47 -38.5t36 -52.5t14.5 -73.5q0 -44 -15 -73t-37 -46.5t-48 -25t-48 -7.5q-32 0 -62 11.5
t-48 24.5l-2 9l12 103h17l3 -4q0 -45 19.5 -74t58.5 -29q36 0 59.5 26t23.5 71q0 35 -13.5 58t-34.5 39.5t-44.5 29.5t-44.5 28.5t-34.5 37t-13.5 54.5q0 36 16 65.5t35 55.5t35 50.5t16 51.5q0 17 -7 33t-20.5 29t-32 20.5t-42.5 7.5q-37 0 -58.5 -18t-33 -47t-14.5 -65
t-3 -72v-227v-46.5t0.5 -52.5t1 -48t1.5 -33q1 -21 7.5 -33t16.5 -18t21.5 -7.5t23.5 -1.5l5 -5l2 -13l-2 -4q-7 0 -19.5 1t-26 1.5t-25.5 1t-19 0.5h-27q-7 0 -21 -0.5l-29 -1t-29 -1.5t-21 -1l-1 4l1 14l4 4q17 0 30.5 1.5t22.5 9.5q6 6 10 15.5t5.5 31t2 59t0.5 99.5v179
h-72l-4 5v18l4 4l72 15v29z" />
    <glyph glyph-name="grave" unicode="`" horiz-adv-x="219" 
d="M205 549l-201 77q-4 9 -4 19q0 14 9 24t26 11l181 -101l3 -7l-6 -20z" />
    <glyph glyph-name="greater" unicode="&#x3e;" horiz-adv-x="414" 
d="M290 243l-107.5 70.5l-110.5 66.5v7l9 38l4 4q69 -51 141 -97.5t144 -88.5v-5q-72 -42 -144 -88.5t-141 -97.5l-4 4l-9 38v7l110.5 67t107.5 70v5z" />
    <glyph glyph-name="guillemotleft" unicode="&#xab;" horiz-adv-x="464" 
d="M249 411q-44 -44 -76 -84.5t-64 -86.5q32 -45 64 -85.5t76 -84.5l-5 -10h-58l-7 4l-24.5 37l-28 38.5l-35 45l-44.5 55.5l44.5 56l35 45.5l28 38.5l24.5 37l7 4h58zM411 411q-44 -44 -76 -84.5t-64 -86.5q32 -45 64 -85.5t76 -84.5l-5 -10h-58l-8 4l-24.5 37l-28 38.5
l-35 45l-44.5 55.5l44.5 56l35 45.5l28 38.5l24.5 37l8 4h58z" />
    <glyph glyph-name="guillemotright" unicode="&#xbb;" horiz-adv-x="464" 
d="M57 421h58l8 -4l24.5 -37l28 -38.5l35 -45.5l44.5 -56l-44.5 -55.5l-35 -45l-28 -38.5l-24.5 -37l-8 -4h-58l-4 10q43 44 75 84.5t64 85.5q-32 46 -64 86.5t-75 84.5zM219 421h58l7 -4l24.5 -37t28.5 -38.5l35 -45.5t45 -56l-45 -55.5l-35 -45t-28.5 -38.5l-24.5 -37
l-7 -4h-58l-5 10q43 44 75.5 84.5t64.5 85.5q-32 46 -64.5 86.5t-75.5 84.5z" />
    <glyph glyph-name="guilsinglleft" unicode="&#x2039;" horiz-adv-x="302" 
d="M249 411q-44 -44 -76 -84.5t-64 -86.5q32 -45 64 -85.5t76 -84.5l-5 -10h-58l-7 4l-24.5 37l-28 38.5l-35 45l-44.5 55.5l44.5 56l35 45.5l28 38.5l24.5 37l7 4h58z" />
    <glyph glyph-name="guilsinglright" unicode="&#x203a;" horiz-adv-x="302" 
d="M57 421h58l8 -4l24.5 -37l28 -38.5l35 -45.5l44.5 -56l-44.5 -55.5l-35 -45l-28 -38.5l-24.5 -37l-8 -4h-58l-4 10q43 44 75 84.5t64 85.5q-32 46 -64 86.5t-75 84.5z" />
    <glyph glyph-name="h" unicode="h" horiz-adv-x="597" 
d="M425 7q4 13 6 34t3 37q2 42 3 82.5t1 67.5q0 23 -1.5 50t-6.5 47q-10 47 -41 70t-72 23q-33 0 -61.5 -14.5t-48.5 -35t-31.5 -43t-11.5 -37.5v-86.5t0.5 -54.5t1 -36.5t2.5 -32.5q2 -21 4.5 -31.5t10.5 -17.5t22.5 -9t29.5 -2l5 -5l2 -13l-2 -4q-7 0 -21 1t-30 1.5t-30 1
t-21 0.5h-14q-7 0 -21.5 -0.5l-30 -1t-30 -1.5t-21.5 -1l-1 4l1 14l4 4q16 0 31.5 1.5t23.5 9.5q8 7 10.5 18t4.5 31q1 13 1.5 26t1 30.5t0.5 41v58.5v240v69.5t-0.5 49.5t-1 37t-1.5 32q-1 11 -5.5 19t-7.5 12q-10 11 -25 14t-31 3l-4 4v13l4 4h18q17 0 43 0.5t45 3.5l35 5
l6 -9q-2 -4 -3 -14.5t-2 -22.5t-1 -23v-17q0 -32 -1.5 -76.5t-1.5 -101.5q0 -42 -0.5 -66t-2.5 -38l3 -2q25 44 67 74.5t104 30.5q28 0 56.5 -8t51.5 -25t39 -43t20 -62q3 -26 3.5 -59.5t0.5 -54.5v-141q0 -23 4.5 -35.5t10.5 -17.5q9 -8 24.5 -9.5t31.5 -1.5l3 -4l2 -14
l-2 -4q-17 2 -38 3t-41 1q-38 0 -69 -3z" />
    <glyph glyph-name="hyphen" unicode="-" horiz-adv-x="471" 
d="M405 265l-10 -52h-328l9 52h329z" />
    <glyph glyph-name="i" unicode="i" horiz-adv-x="276" 
d="M252 -4q-7 0 -21 1t-30 1.5t-30 1t-21 0.5h-14q-7 0 -21.5 -0.5l-30 -1t-30 -1.5t-21.5 -1l-1 4l1 14l4 4q16 0 31.5 1.5t23.5 9.5q8 7 10.5 18t4.5 31l2 32.5t1 52.5v123v35.5t-0.5 25.5t-1 20t-1.5 19q-2 11 -6 19.5t-7 11.5q-10 12 -25 14.5t-31 2.5l-4 4v14l4 3h18
q17 0 43 0.5t45 3.5l35 5l6 -9q-2 -4 -3.5 -14t-2 -21.5l-1 -22.5t-0.5 -17q0 -8 -0.5 -15.5t-0.5 -17.5t-0.5 -24t-0.5 -36v-112q0 -22 0.5 -36t1 -24t1 -18.5t1.5 -18.5q2 -21 4.5 -31.5t10.5 -17.5t22.5 -9t29.5 -2l5 -5l2 -13zM84 631q0 20 13.5 34.5t33.5 14.5
t34.5 -14.5t14.5 -34.5t-14.5 -33.5t-34.5 -13.5t-33.5 13.5t-13.5 33.5z" />
    <glyph glyph-name="iacute" unicode="&#xed;" horiz-adv-x="276" 
d="M252 -4q-7 0 -21 1t-30 1.5t-30 1t-21 0.5h-14q-7 0 -21.5 -0.5l-30 -1t-30 -1.5t-21.5 -1l-1 4l1 14l4 4q16 0 31.5 1.5t23.5 9.5q8 7 10.5 18t4.5 31l2 32.5t1 52.5v123v35.5t-0.5 25.5t-1 20t-1.5 19q-2 11 -6 19.5t-7 11.5q-10 12 -25 14.5t-31 2.5l-4 4v14l4 3h18
q17 0 43 0.5t45 3.5l35 5l6 -9q-2 -4 -3.5 -14t-2 -21.5l-1 -22.5t-0.5 -17q0 -8 -0.5 -15.5t-0.5 -17.5t-0.5 -24t-0.5 -36v-112q0 -22 0.5 -36t1 -24t1 -18.5t1.5 -18.5q2 -21 4.5 -31.5t10.5 -17.5t22.5 -9t29.5 -2l5 -5l2 -13zM47 552l-6 20l3 7l180 101q17 -1 26.5 -11
t9.5 -24q0 -10 -4 -19l-202 -77z" />
    <glyph glyph-name="icircumflex" unicode="&#xee;" horiz-adv-x="276" 
d="M252 -4q-7 0 -21 1t-30 1.5t-30 1t-21 0.5h-14q-7 0 -21.5 -0.5l-30 -1t-30 -1.5t-21.5 -1l-1 4l1 14l4 4q16 0 31.5 1.5t23.5 9.5q8 7 10.5 18t4.5 31l2 32.5t1 52.5v123v35.5t-0.5 25.5t-1 20t-1.5 19q-2 11 -6 19.5t-7 11.5q-10 12 -25 14.5t-31 2.5l-4 4v14l4 3h18
q17 0 43 0.5t45 3.5l35 5l6 -9q-2 -4 -3.5 -14t-2 -21.5l-1 -22.5t-0.5 -17q0 -8 -0.5 -15.5t-0.5 -17.5t-0.5 -24t-0.5 -36v-112q0 -22 0.5 -36t1 -24t1 -18.5t1.5 -18.5q2 -21 4.5 -31.5t10.5 -17.5t22.5 -9t29.5 -2l5 -5l2 -13zM137 673l110 -99l3 -7l-6 -19l-7 -3
l-104 61l-103 -61l-8 3l-6 19l3 7l110 99h8z" />
    <glyph glyph-name="idieresis" unicode="&#xef;" horiz-adv-x="276" 
d="M252 -4q-7 0 -21 1t-30 1.5t-30 1t-21 0.5h-14q-7 0 -21.5 -0.5l-30 -1t-30 -1.5t-21.5 -1l-1 4l1 14l4 4q16 0 31.5 1.5t23.5 9.5q8 7 10.5 18t4.5 31l2 32.5t1 52.5v123v35.5t-0.5 25.5t-1 20t-1.5 19q-2 11 -6 19.5t-7 11.5q-10 12 -25 14.5t-31 2.5l-4 4v14l4 3h18
q17 0 43 0.5t45 3.5l35 5l6 -9q-2 -4 -3.5 -14t-2 -21.5l-1 -22.5t-0.5 -17q0 -8 -0.5 -15.5t-0.5 -17.5t-0.5 -24t-0.5 -36v-112q0 -22 0.5 -36t1 -24t1 -18.5t1.5 -18.5q2 -21 4.5 -31.5t10.5 -17.5t22.5 -9t29.5 -2l5 -5l2 -13zM13 626q0 18 12 31.5t29 13.5t29.5 -13.5
t12.5 -31.5q0 -19 -12.5 -31.5t-29.5 -12.5t-29 12.5t-12 31.5zM170 626q0 18 12 31.5t29 13.5t29.5 -13.5t12.5 -31.5q0 -19 -12.5 -31.5t-29.5 -12.5t-29 12.5t-12 31.5z" />
    <glyph glyph-name="igrave" unicode="&#xec;" horiz-adv-x="276" 
d="M252 -4q-7 0 -21 1t-30 1.5t-30 1t-21 0.5h-14q-7 0 -21.5 -0.5l-30 -1t-30 -1.5t-21.5 -1l-1 4l1 14l4 4q16 0 31.5 1.5t23.5 9.5q8 7 10.5 18t4.5 31l2 32.5t1 52.5v123v35.5t-0.5 25.5t-1 20t-1.5 19q-2 11 -6 19.5t-7 11.5q-10 12 -25 14.5t-31 2.5l-4 4v14l4 3h18
q17 0 43 0.5t45 3.5l35 5l6 -9q-2 -4 -3.5 -14t-2 -21.5l-1 -22.5t-0.5 -17q0 -8 -0.5 -15.5t-0.5 -17.5t-0.5 -24t-0.5 -36v-112q0 -22 0.5 -36t1 -24t1 -18.5t1.5 -18.5q2 -21 4.5 -31.5t10.5 -17.5t22.5 -9t29.5 -2l5 -5l2 -13zM191 549l-201 77q-4 9 -4 19q0 14 9 24
t26 11l181 -101l3 -7l-6 -20z" />
    <glyph glyph-name="j" unicode="j" horiz-adv-x="252" 
d="M23 452l4 3h18q17 0 43 0.5t45 3.5l35 5l5 -9q-2 -4 -2.5 -14t-1.5 -22t-1.5 -23t-0.5 -18q0 -9 -0.5 -20t-1 -27.5t-0.5 -40.5v-58v-236q0 -47 -8.5 -89t-25 -75t-40.5 -56.5t-56 -32.5q-10 -2 -18 -2.5t-18 -0.5l-8 2l-2 19l4 5q20 0 35.5 3.5t30.5 20.5q23 24 29.5 62
t7.5 86q0 6 0.5 26.5t1 48t0.5 58t0.5 58t0.5 48v27.5v33t-0.5 50l-1 54t-1.5 44q-1 11 -5.5 20t-7.5 12q-10 12 -25 14.5t-31 2.5l-4 4v14zM73 631q0 20 13.5 34.5t33.5 14.5t34.5 -14.5t14.5 -34.5t-14.5 -33.5t-34.5 -13.5t-33.5 13.5t-13.5 33.5z" />
    <glyph glyph-name="k" unicode="k" horiz-adv-x="525" 
d="M22 727l4 4h18q17 0 43 0.5t45 3.5l35 5l6 -9q-2 -4 -3 -14.5t-2 -22.5t-1 -23v-17q0 -16 -0.5 -30t-1 -33t-1 -46t-0.5 -69v-238l119 110q2 2 9.5 9l15.5 14.5l15.5 15l10.5 10.5q9 10 9 18q0 12 -15.5 17t-30.5 7l-4 4v12l4 4l38 -4t39 -2h28q19 0 38.5 2l39.5 4l3 -4
v-14l-5 -5q-10 -2 -24 -4.5t-25 -9.5q-15 -9 -31.5 -21.5t-33 -26.5l-32 -28t-28.5 -27l-41 -38q5 -7 13 -19.5t24 -31.5l89 -110l27.5 -34.5t29 -32t33.5 -24.5t41 -11l3 -4l2 -14l-2 -4q-17 -2 -38 -2.5t-42 -0.5q-28 0 -53 25l-19 19t-33 36l-80 103q-17 23 -27 34.5
t-21 22.5q-22 -20 -30.5 -29.5t-15.5 -16.5q0 -20 0.5 -34t1 -26l1 -23.5t1.5 -25.5q1 -21 4 -31.5t11 -17.5t22.5 -9t29.5 -2l5 -5l2 -13l-2 -4q-7 0 -21 1t-30 1.5t-30 1t-21 0.5h-14q-7 0 -21.5 -0.5l-30 -1t-30 -1.5t-21.5 -1l-1 4l1 14l4 4q16 0 31.5 1.5t23.5 9.5
q8 7 10.5 18t4.5 31q1 13 1.5 26t1 30.5t0.5 41v58.5v240v69.5t-0.5 49.5t-1 37t-1.5 32q-1 11 -5.5 19t-7.5 12q-10 11 -25 14t-31 3l-4 4v13z" />
    <glyph glyph-name="l" unicode="l" horiz-adv-x="270" 
d="M26 727l4 4h18q17 0 43 0.5t45 3.5l36 5l6 -9q-2 -4 -3 -14.5t-2 -22.5t-1.5 -23t-0.5 -17q-1 -16 -1.5 -30t-1 -33t-0.5 -46v-69v-218q0 -42 0.5 -69t1 -46t1 -33t1.5 -32q2 -21 4.5 -31.5t10.5 -17.5t22.5 -9t29.5 -2l5 -5l2 -13l-2 -4q-7 0 -21 1t-30 1.5t-30 1
t-21 0.5h-14q-7 0 -21.5 -0.5l-30 -1t-30 -1.5t-21.5 -1l-1 4l1 14l4 4q16 0 31.5 1.5t23.5 9.5q8 7 10.5 18t4.5 31q1 13 1.5 26t1 30.5t0.5 41v58.5v240v69.5t-0.5 49.5t-1 37t-1.5 32q-1 11 -5.5 19t-7.5 12q-10 11 -25 14t-31 3l-4 4v13z" />
    <glyph glyph-name="less" unicode="&#x3c;" horiz-adv-x="414" 
d="M124 238q51 -35 107.5 -70l110.5 -67v-7l-9 -38l-4 -4q-69 51 -141 97.5t-144 88.5v5q72 42 144 88.5t141 97.5l4 -4l9 -38v-7l-110.5 -66.5l-107.5 -70.5v-5z" />
    <glyph glyph-name="logicalnot" unicode="&#xac;" horiz-adv-x="632" 
d="M557 341v-224h-53v172h-427v52h480z" />
    <glyph glyph-name="m" unicode="m" horiz-adv-x="924" 
d="M34 452l4 3h18q17 0 43 0.5t45 3.5l35 5l6 -9q-2 -6 -3.5 -15.5t-3 -21t-2.5 -22.5t-1 -19l3 -2q11 20 25.5 38.5t33.5 32t43 21.5t55 8q26 0 51 -6.5t46.5 -20t38 -35t25.5 -51.5q12 22 26.5 42.5t34 36t45 25t58.5 9.5q29 0 56.5 -8t50 -25t39 -43t22.5 -63
q5 -26 5.5 -55t0.5 -58v-145q0 -23 4 -33.5t11 -15.5q8 -8 23.5 -9.5t31.5 -1.5l4 -4l2 -14l-2 -4q-18 2 -38.5 3t-41.5 1q-37 0 -68 -3l-7 10q4 13 6 34t3 37q1 15 1.5 37l1 44.5t0.5 42.5v31q0 20 -1.5 50.5t-6.5 51.5q-10 41 -40.5 62t-68.5 21q-28 0 -51.5 -10.5
t-41.5 -26t-30.5 -34.5t-18.5 -36q2 -22 2.5 -44t0.5 -44v-145q0 -21 4 -31.5t12 -17.5t22.5 -9t29.5 -2l5 -5l2 -13l-2 -4q-7 0 -21 1t-30 1.5t-30 1t-21 0.5h-14q-7 0 -21.5 -0.5l-30 -1t-30 -1.5t-21.5 -1l-2 4l2 14l4 4q16 0 31.5 1.5t23.5 9.5q8 7 10 18t4 31
q1 15 1.5 37l1 44.5t1 42.5t0.5 31v23.5t-1 27.5t-2.5 27t-4.5 24q-11 41 -41 62t-68 21q-33 0 -60 -14.5t-46.5 -35t-30 -43t-10.5 -38.5v-112q0 -22 0.5 -36t1 -24t1 -18.5t1.5 -18.5q2 -21 4.5 -31.5t10.5 -17.5t22.5 -9t29.5 -2l5 -5l2 -13l-2 -4q-7 0 -21 1t-30 1.5
t-30 1t-21 0.5h-14q-7 0 -21.5 -0.5l-30 -1t-30 -1.5t-21.5 -1l-1 4l1 14l4 4q16 0 31.5 1.5t23.5 9.5q8 7 10.5 18t4.5 31l2 32.5t1 52.5v123v35.5t-0.5 25.5t-1 20t-1.5 19q-2 11 -6 19.5t-7 11.5q-10 12 -25 14.5t-31 2.5l-4 4v14z" />
    <glyph glyph-name="mu" unicode="&#xb5;" horiz-adv-x="642" 
d="M139 -131h-9q-47 0 -64 25v6q13 26 23.5 59t17.5 66.5t10.5 63.5t3.5 50v98q0 19 -0.5 42.5l-1 45t-1 38t-0.5 23.5q-1 11 -4.5 19.5t-6.5 12.5q-10 11 -25 13.5t-31 2.5l-3 4v14l3 3h18q17 0 43 0.5t45 3.5l35 5l6 -9q-2 -4 -3 -14.5t-2 -22.5t-1 -23v-17
q0 -17 -0.5 -37.5l-1 -41.5t-1 -40t-0.5 -32q0 -22 1.5 -49.5t6.5 -47.5q10 -47 41 -70t72 -23q31 0 57 12.5t45.5 30.5t32 38.5t16.5 37.5v130v35.5t-0.5 25.5t-1.5 20t-2 19q-2 11 -5.5 19.5t-6.5 11.5q-10 12 -25 14.5t-31 2.5l-4 4v14l4 3h18q17 0 43 0.5t44 3.5l35 5
l6 -9q-2 -4 -3 -14.5t-2 -22.5t-1 -23v-17q0 -8 -0.5 -15t-0.5 -17t-0.5 -23.5t-0.5 -35.5v-112q0 -22 0.5 -36t1 -24t1 -18.5t0.5 -18.5q2 -23 5 -33.5t10 -15.5q8 -8 23.5 -9.5t31.5 -1.5l4 -4l2 -14l-2 -4q-18 2 -39 3t-41 1q-38 0 -69 -3l-6 10q3 13 5 35l4 44
q-26 -42 -66.5 -69.5t-99.5 -27.5q-14 0 -32.5 2.5t-36.5 9t-32.5 17t-20.5 25.5l-3 -2q-6 -63 -10.5 -99.5t-12.5 -66.5z" />
    <glyph glyph-name="multiply" unicode="&#xd7;" horiz-adv-x="462" 
d="M230 202l-120 -121l-37 37l120 121l-120 120l37 37l120 -120l122 121l37 -37l-122 -121l122 -122l-37 -37z" />
    <glyph glyph-name="n" unicode="n" horiz-adv-x="609" 
d="M178 374q26 43 67 72t102 29q28 0 56 -8t51.5 -25t39 -43.5t20.5 -62.5q3 -26 3.5 -55t0.5 -58q0 -36 0.5 -72.5t0.5 -72.5q2 -23 5 -33.5t9 -15.5q9 -8 24.5 -9.5t31.5 -1.5l3 -4l2 -14l-2 -4q-17 2 -38 3t-41 1q-38 0 -69 -3l-7 10q4 13 6 34t3 37q2 42 3 82.5t1 67.5
q0 23 -1.5 50t-6.5 47q-10 47 -41 70t-72 23q-33 0 -61.5 -14t-48.5 -34.5t-31.5 -43t-11.5 -38.5v-113v-36t0.5 -24t1.5 -18.5t2 -18.5q2 -21 4.5 -31.5t10.5 -17.5t22.5 -9t29.5 -2l5 -5l2 -13l-2 -4q-7 0 -21 1t-30 1.5t-30 1t-21 0.5h-14q-7 0 -21.5 -0.5l-30 -1
t-30 -1.5t-21.5 -1l-1 4l1 14l4 4q16 0 31.5 1.5t23.5 9.5q8 7 10.5 18t4.5 31l2 32.5t1 52.5v123v35.5t-0.5 25.5t-1 20t-1.5 19q-2 11 -6 19.5t-7 11.5q-10 12 -25 14.5t-31 2.5l-4 4v14l4 3h18q17 0 43 0.5t45 3.5l35 5l6 -9q-5 -13 -7 -35.5t-3 -43.5z" />
    <glyph glyph-name="nine" unicode="9" horiz-adv-x="544" 
d="M403 318q-17 -22 -35.5 -35t-37.5 -19.5t-37 -8.5t-33 -2q-68 0 -109 21.5t-64 52t-30.5 65.5t-7.5 62q0 37 11.5 74.5t37 68t65.5 49.5t98 19q60 0 101.5 -22.5t67 -63.5t36.5 -99t11 -129q0 -62 -9.5 -126t-35 -116.5t-70.5 -86t-117 -33.5q-16 0 -37 2t-43 7
t-42.5 14.5t-35.5 23.5l15 63h18q20 -34 54 -45.5t65 -11.5q48 0 80.5 20.5t52 55t28 79t8.5 91.5v8q0 4 -0.5 9.5t-1.5 11.5zM255 308q72 0 107 39t35 104q0 24 -6 52t-21 52t-41.5 40.5t-67.5 16.5q-68 0 -106 -45t-38 -115q0 -23 5.5 -48.5t20.5 -46.5t42 -35t70 -14z
" />
    <glyph glyph-name="ntilde" unicode="&#xf1;" horiz-adv-x="609" 
d="M178 374q26 43 67 72t102 29q28 0 56 -8t51.5 -25t39 -43.5t20.5 -62.5q3 -26 3.5 -55t0.5 -58q0 -36 0.5 -72.5t0.5 -72.5q2 -23 5 -33.5t9 -15.5q9 -8 24.5 -9.5t31.5 -1.5l3 -4l2 -14l-2 -4q-17 2 -38 3t-41 1q-38 0 -69 -3l-7 10q4 13 6 34t3 37q2 42 3 82.5t1 67.5
q0 23 -1.5 50t-6.5 47q-10 47 -41 70t-72 23q-33 0 -61.5 -14t-48.5 -34.5t-31.5 -43t-11.5 -38.5v-113v-36t0.5 -24t1.5 -18.5t2 -18.5q2 -21 4.5 -31.5t10.5 -17.5t22.5 -9t29.5 -2l5 -5l2 -13l-2 -4q-7 0 -21 1t-30 1.5t-30 1t-21 0.5h-14q-7 0 -21.5 -0.5l-30 -1
t-30 -1.5t-21.5 -1l-1 4l1 14l4 4q16 0 31.5 1.5t23.5 9.5q8 7 10.5 18t4.5 31l2 32.5t1 52.5v123v35.5t-0.5 25.5t-1 20t-1.5 19q-2 11 -6 19.5t-7 11.5q-10 12 -25 14.5t-31 2.5l-4 4v14l4 3h18q17 0 43 0.5t45 3.5l35 5l6 -9q-5 -13 -7 -35.5t-3 -43.5zM459 663
q-3 -14 -9.5 -27.5t-17 -24.5t-25.5 -18t-36 -7q-40 0 -81.5 7t-73.5 7q-25 0 -35 -6.5t-20 -18.5l-13 8q4 13 11 27t17.5 24.5t26 17.5t36.5 7q25 0 43.5 -2t34.5 -5t31 -5t34 -2q17 0 34 4t31 22z" />
    <glyph glyph-name="numbersign" unicode="#" horiz-adv-x="622" 
d="M294 4q17 48 31 104.5l27 113.5h-134q-11 -57 -20 -113.5t-14 -104.5l-3 -4h-76l-1 4q17 48 31 104.5l27 113.5h-120l9 53h123l25 119h-128l9 52h130q10 48 19 102.5t13 101.5l2 4h76l2 -4q-17 -47 -31 -101.5t-25 -102.5h134q10 48 19 102.5t13 101.5l2 4h76l2 -4
q-17 -47 -31 -101.5t-25 -102.5h126l-9 -52h-128l-25 -119h131l-9 -53h-134q-11 -57 -20 -113.5t-14 -104.5l-3 -4h-76zM230 275h134l25 119h-135z" />
    <glyph glyph-name="o" unicode="o" horiz-adv-x="583" 
d="M291 475q59 0 105 -20.5t77.5 -55t48 -79.5t16.5 -93q0 -46 -15 -89t-46 -76t-77 -53t-107 -20q-63 0 -110 21t-77.5 55t-45.5 77.5t-15 89.5q0 49 17 93t48.5 77.5t77 53t103.5 19.5zM292 28q42 0 74 17t53 45t31.5 63.5t10.5 73.5q0 36 -11.5 73t-33.5 66.5t-54 48
t-74 18.5q-44 0 -75.5 -17.5t-52 -45.5t-30.5 -64t-10 -72q0 -37 11.5 -73.5t33.5 -66t54 -48t73 -18.5z" />
    <glyph glyph-name="oacute" unicode="&#xf3;" horiz-adv-x="583" 
d="M291 475q59 0 105 -20.5t77.5 -55t48 -79.5t16.5 -93q0 -46 -15 -89t-46 -76t-77 -53t-107 -20q-63 0 -110 21t-77.5 55t-45.5 77.5t-15 89.5q0 49 17 93t48.5 77.5t77 53t103.5 19.5zM292 28q42 0 74 17t53 45t31.5 63.5t10.5 73.5q0 36 -11.5 73t-33.5 66.5t-54 48
t-74 18.5q-44 0 -75.5 -17.5t-52 -45.5t-30.5 -64t-10 -72q0 -37 11.5 -73.5t33.5 -66t54 -48t73 -18.5zM216 552l-6 20l3 7l180 101q17 -1 26.5 -11t9.5 -24q0 -10 -4 -19l-202 -77z" />
    <glyph glyph-name="ocircumflex" unicode="&#xf4;" horiz-adv-x="583" 
d="M291 475q59 0 105 -20.5t77.5 -55t48 -79.5t16.5 -93q0 -46 -15 -89t-46 -76t-77 -53t-107 -20q-63 0 -110 21t-77.5 55t-45.5 77.5t-15 89.5q0 49 17 93t48.5 77.5t77 53t103.5 19.5zM292 28q42 0 74 17t53 45t31.5 63.5t10.5 73.5q0 36 -11.5 73t-33.5 66.5t-54 48
t-74 18.5q-44 0 -75.5 -17.5t-52 -45.5t-30.5 -64t-10 -72q0 -37 11.5 -73.5t33.5 -66t54 -48t73 -18.5zM302 673l110 -99l3 -7l-5 -19l-8 -3l-104 61l-103 -61l-8 3l-6 19l3 7l111 99h7z" />
    <glyph glyph-name="odieresis" unicode="&#xf6;" horiz-adv-x="583" 
d="M291 475q59 0 105 -20.5t77.5 -55t48 -79.5t16.5 -93q0 -46 -15 -89t-46 -76t-77 -53t-107 -20q-63 0 -110 21t-77.5 55t-45.5 77.5t-15 89.5q0 49 17 93t48.5 77.5t77 53t103.5 19.5zM292 28q42 0 74 17t53 45t31.5 63.5t10.5 73.5q0 36 -11.5 73t-33.5 66.5t-54 48
t-74 18.5q-44 0 -75.5 -17.5t-52 -45.5t-30.5 -64t-10 -72q0 -37 11.5 -73.5t33.5 -66t54 -48t73 -18.5zM171 626q0 18 12 31.5t29 13.5t29.5 -13.5t12.5 -31.5q0 -19 -12.5 -31.5t-29.5 -12.5t-29 12.5t-12 31.5zM328 626q0 18 12 31.5t29 13.5t29.5 -13.5t12.5 -31.5
q0 -19 -12.5 -31.5t-29.5 -12.5t-29 12.5t-12 31.5z" />
    <glyph glyph-name="oe" unicode="&#x153;" horiz-adv-x="937" 
d="M291 475q69 0 122.5 -30t80.5 -78h4q13 24 33.5 44t46 34.5t54.5 22t60 7.5q26 0 58 -7t62 -26.5t54 -55t33 -93.5l-7 -24l-16 -7q-54 0 -111 -1t-111 -1h-119q-1 -7 -1 -13.5v-12.5q0 -38 11 -72.5t34.5 -60.5t61 -41.5t90.5 -15.5q31 0 66 6.5t65 23.5l10 -6v-18
l-9 -11q-24 -19 -68 -34.5t-98 -15.5q-64 0 -116.5 27t-80.5 74h-5q-27 -46 -78.5 -73.5t-123.5 -27.5q-63 0 -110 21t-77.5 55t-45.5 77.5t-15 89.5q0 49 17 93t48.5 77.5t77 53t103.5 19.5zM292 28q42 0 74 17t53 45t31.5 63.5t10.5 73.5q0 36 -11.5 73t-33.5 66.5t-54 48
t-74 18.5q-44 0 -75.5 -17.5t-52 -45.5t-30.5 -64t-10 -72q0 -37 11.5 -73.5t33.5 -66t54 -48t73 -18.5zM693 430q-32 0 -58 -10.5t-45 -28t-31.5 -41t-17.5 -49.5h39q53 0 104.5 1.5t107.5 4.5q13 1 17.5 7t4.5 14q0 6 -1 11t-3 10q-11 38 -41 59.5t-76 21.5z" />
    <glyph glyph-name="ograve" unicode="&#xf2;" horiz-adv-x="583" 
d="M291 475q59 0 105 -20.5t77.5 -55t48 -79.5t16.5 -93q0 -46 -15 -89t-46 -76t-77 -53t-107 -20q-63 0 -110 21t-77.5 55t-45.5 77.5t-15 89.5q0 49 17 93t48.5 77.5t77 53t103.5 19.5zM292 28q42 0 74 17t53 45t31.5 63.5t10.5 73.5q0 36 -11.5 73t-33.5 66.5t-54 48
t-74 18.5q-44 0 -75.5 -17.5t-52 -45.5t-30.5 -64t-10 -72q0 -37 11.5 -73.5t33.5 -66t54 -48t73 -18.5zM352 549l-202 77q-4 9 -4 19q0 14 9 24t26 11l181 -101l3 -7l-6 -20z" />
    <glyph glyph-name="one" unicode="1" horiz-adv-x="354" 
d="M42 554l3 6q43 21 82 44.5t77 58.5h7l22 -9q-1 -8 -1.5 -18.5l-1 -21.5l-1 -21t-0.5 -16q-1 -16 -1.5 -30t-1 -33t-0.5 -46v-69v-141v-68.5t0.5 -44.5t1 -32t2.5 -31q2 -21 9 -31.5t15 -17.5q9 -7 28 -11t34 -4l5 -5l2 -13l-2 -4q-7 0 -21 1t-30 1.5t-30 1t-21 0.5h-57
q-7 0 -21 -0.5t-30 -1t-30 -1.5t-21 -1l-2 4l2 14l3 4q16 0 36.5 3.5t28.5 11.5q8 7 15 18t9 31l2 25.5t1.5 29t0.5 39.5v58v163v66.5t-0.5 42.5t-1.5 29.5t-2 28.5l-107 -27l-3 4v13z" />
    <glyph glyph-name="onehalf" unicode="&#xbd;" horiz-adv-x="700" 
d="M62 23q29 33 53 63.5l47 60.5l46.5 62l50.5 69l121 165l77 107.5t75 118.5l5 4h76l-1 -4q-54 -62 -97.5 -118.5l-79.5 -107.5l-120 -165l-50 -70l-43.5 -62l-39.5 -60l-40 -63l-4 -4h-76v4zM62 600l2 4q26 13 49 26.5t46 34.5h4l14 -5q-3 -32 -3.5 -67.5t-0.5 -84.5v-55
v-40.5v-26.5t0.5 -19.5t1.5 -18.5q1 -12 5.5 -18.5t9.5 -10.5t11.5 -6.5t15.5 -2.5l3 -13q-8 1 -25.5 1.5t-25.5 0.5h-34h-13.5t-18 -0.5t-18 -1t-12.5 -0.5l3 13q9 0 21 2t18 7q4 4 8 10.5t6 18.5q1 8 1.5 15.5t0.5 17.5v23.5v34.5v67v39v25.5t-0.5 18t-1.5 17.5l-67 -17
v11zM423 299q13 23 39.5 41t71.5 18q57 0 82 -25t25 -68q0 -33 -19.5 -65.5t-45 -61.5t-51.5 -54.5t-39 -45.5l2 -4h36q33 0 52 1t30.5 5.5t17 14t10.5 26.5h14l-9 -80l-5 -5q-3 0 -17.5 0.5t-31.5 1l-33 1t-23 0.5h-54q-12 0 -27 -1l-29 -2l-5 6v12q19 24 49.5 57
l59.5 67.5t50 67.5t21 58q0 22 -12.5 39t-50.5 17q-73 0 -79 -75h-23z" />
    <glyph glyph-name="onequarter" unicode="&#xbc;" horiz-adv-x="679" 
d="M59 23q29 33 53 63.5l47 60.5l46.5 62l50.5 69l121 165l77 107.5t75 118.5l5 4h76l-1 -4q-56 -62 -98.5 -118.5l-78.5 -107.5l-120 -165l-50 -70l-43.5 -62l-39.5 -60l-40 -63l-4 -4h-76v4zM63 600l2 4q26 13 49 26.5t46 34.5h4l13 -5q-2 -32 -2.5 -67.5t-0.5 -84.5v-55
q0 -44 1 -72t5 -44t13 -21.5t25 -5.5l3 -13q-8 1 -25.5 1.5t-25.5 0.5h-34h-13.5t-18 -0.5t-18 -1t-12.5 -0.5l3 13q9 0 21 2t18 7q6 6 9 12t4.5 18t2 33t0.5 57v67v39v25.5t-0.5 18t-1.5 17.5l-67 -17v11zM390 116l-6 15l134 219l58 8l7 -5q-1 -8 -1.5 -18t-1 -31.5t-1 -59
t-0.5 -99.5h48l3 -3l-8 -26l-4 -3h-39q0 -32 1 -52.5t5.5 -33.5t15 -18t28.5 -5l2 -12q-8 0 -27.5 1t-27.5 1h-38q-4 0 -12.5 -0.5t-17.5 -0.5t-17.5 -0.5t-12.5 -0.5l3 12q20 0 31 5.5t16 18t6 33.5t1 52h-140zM434 145h101q0 73 -0.5 110.5t-1.5 57.5z" />
    <glyph glyph-name="onesuperior" unicode="&#xb9;" horiz-adv-x="269" 
d="M55 600l1 4q26 13 49 26.5t46 34.5h4l14 -5q-3 -32 -3.5 -67.5t-0.5 -84.5v-55v-40.5v-26.5t0.5 -19.5t1.5 -18.5q1 -12 5.5 -18.5t9.5 -10.5t16.5 -6.5t20.5 -2.5l3 -13q-5 0 -13.5 0.5l-17.5 1t-17.5 0.5h-12.5h-34h-13.5t-18 -0.5t-18 -1t-12.5 -0.5l3 13q9 0 21 2
t18 7q5 4 8.5 10.5t5.5 18.5q1 8 1.5 15.5t0.5 17.5v23.5v34.5v67v39v25.5t-0.5 18t-1.5 17.5l-66 -17v11z" />
    <glyph glyph-name="ordfeminine" unicode="&#xaa;" horiz-adv-x="355" 
d="M208 445q2 3 4.5 7.5t2.5 9.5l3 54q-25 0 -47 -2t-38.5 -8t-26 -18t-9.5 -33q0 -25 13 -36t32 -11q21 0 39 11.5t27 25.5zM213 426q-15 -22 -35.5 -39.5t-46.5 -17.5q-37 0 -59 24t-22 58q0 33 21.5 52t49.5 28t56 11t41 2q-1 27 -5 43t-10.5 25t-16 11.5t-21.5 2.5
q-8 0 -18.5 -1t-20.5 -5.5t-17.5 -12.5t-8.5 -22l-2 -3h-16l-5 46l2 4q3 3 12.5 7.5t23 8.5t30 7t32.5 3q86 0 86 -91q0 -26 -0.5 -45t-0.5 -35t-0.5 -31t-0.5 -33q0 -23 12 -27t29 -4l2 -18q-11 1 -22.5 1.5t-25.5 0.5q-11 0 -21.5 -0.5t-19.5 -0.5l-4 4q2 11 3 22t1 22z
" />
    <glyph glyph-name="ordmasculine" unicode="&#xba;" horiz-adv-x="374" 
d="M186 658q34 0 60 -12t44 -32.5t27 -47.5t9 -56q0 -27 -8.5 -52.5t-26 -45t-43.5 -31.5t-61 -12q-36 0 -62 12t-43 32.5t-25.5 46.5t-8.5 53q0 30 9.5 56t27.5 46t43.5 31.5t57.5 11.5zM187 399q23 0 40.5 9t29.5 24.5t18 35.5t6 42q0 21 -6.5 42t-19 37t-30.5 26t-41 10
q-24 0 -41.5 -9.5t-29 -25t-17 -35.5t-5.5 -41q0 -22 6.5 -42.5t19 -36.5t30 -26t40.5 -10z" />
    <glyph glyph-name="oslash" unicode="&#xf8;" horiz-adv-x="583" 
d="M291 475q44 0 80 -11.5t65 -31.5l33 38l6 3h67l-2 -3l-64 -74q30 -34 46 -77.5t16 -91.5q0 -46 -15 -89t-46 -76t-77 -53t-107 -20q-42 0 -76.5 9t-61.5 26l-33 -39l-6 -4h-67l2 4l62 71q-35 35 -51.5 81t-16.5 95t17 93t48.5 77.5t77 53t103.5 19.5zM120 234
q0 -33 9 -66t27 -62l242 281q-21 21 -48.5 33.5t-61.5 12.5q-44 0 -75.5 -17.5t-52 -45.5t-30.5 -64t-10 -72zM292 28q42 0 74 17t53 45t31.5 63.5t10.5 73.5q0 29 -8 59.5t-23 56.5l-239 -277q20 -18 45.5 -28t55.5 -10z" />
    <glyph glyph-name="otilde" unicode="&#xf5;" horiz-adv-x="583" 
d="M291 475q59 0 105 -20.5t77.5 -55t48 -79.5t16.5 -93q0 -46 -15 -89t-46 -76t-77 -53t-107 -20q-63 0 -110 21t-77.5 55t-45.5 77.5t-15 89.5q0 49 17 93t48.5 77.5t77 53t103.5 19.5zM292 28q42 0 74 17t53 45t31.5 63.5t10.5 73.5q0 36 -11.5 73t-33.5 66.5t-54 48
t-74 18.5q-44 0 -75.5 -17.5t-52 -45.5t-30.5 -64t-10 -72q0 -37 11.5 -73.5t33.5 -66t54 -48t73 -18.5zM437 663q-3 -14 -9.5 -27.5t-17 -24.5t-25.5 -18t-36 -7q-40 0 -81.5 7t-73.5 7q-25 0 -35 -6.5t-20 -18.5l-13 8q4 13 11 27t17.5 24.5t26 17.5t36.5 7q25 0 43.5 -2
t34.5 -5t31 -5t34 -2q17 0 34 4t31 22z" />
    <glyph glyph-name="p" unicode="p" horiz-adv-x="598" 
d="M168 384q29 41 70.5 66t92.5 25q57 0 98.5 -20t68.5 -53t40 -75.5t13 -88.5q0 -68 -21 -115.5t-53.5 -77t-71 -43t-73.5 -13.5q-48 0 -92 22.5t-75 73.5l-3 -2q1 -14 2 -33t1 -55v-66.5t0.5 -43.5t1 -32.5t2.5 -31.5q2 -20 4.5 -31t10.5 -17q8 -8 22.5 -10t29.5 -2l5 -4
l2 -14l-2 -3q-7 0 -21 0.5t-30 1t-30 1t-21 0.5h-14q-7 0 -21.5 -0.5l-30 -1l-30 -1t-21.5 -0.5l-1 3l1 15l4 3q16 0 31 2t24 10q8 7 10.5 17.5t4.5 30.5q1 13 1.5 25.5t1 29.5t0.5 40v56v233v67t-0.5 47t-1 35.5t-1.5 31.5q-1 11 -5.5 19.5t-7.5 11.5q-10 12 -25 14.5
t-31 2.5l-4 4v14l4 3h18q17 0 43 0.5t45 3.5l35 5l6 -9q-2 -4 -3.5 -12.5t-3 -19t-2 -21t-0.5 -17.5zM475 236q0 34 -9 67t-27.5 58.5t-46.5 41t-66 15.5t-67 -14t-49.5 -34.5t-32 -42.5t-12.5 -38v-110q3 -16 13 -39t29.5 -44.5t48.5 -36.5t68 -15t67.5 16.5t47 43.5
t27.5 61.5t9 70.5z" />
    <glyph glyph-name="paragraph" unicode="&#xb6;" horiz-adv-x="530" 
d="M171 -125l3 18l5 3q25 0 34.5 2.5t18.5 8.5q6 5 14.5 16.5t10.5 40.5q0 7 0.5 33.5t1 59.5t0.5 66v54v105q-35 0 -74 8.5t-72 31.5t-54.5 64.5t-21.5 106.5q0 33 12 62.5t32 51.5t47.5 35t59.5 13h19.5t27 -0.5t28.5 -0.5h25h103q10 0 23.5 1l26 2l24 2t18.5 1l2 -4
l-3 -18l-5 -4q-25 0 -35 -2.5t-18 -7.5q-8 -7 -15 -17.5t-10 -39.5q-2 -25 -2.5 -50.5t-0.5 -45.5v-260v-69.5t0.5 -76.5t1 -65.5t1.5 -35.5q3 -26 10 -39.5t15 -18.5q9 -7 25 -8.5t28 -1.5l5 -3l3 -18l-2 -4q-7 1 -23 1.5t-33 1.5t-33 1.5t-23 0.5h-86q-7 0 -23 -0.5
t-33 -1.5t-33 -1.5t-23 -1.5zM291 -86h79l2 4q-5 34 -7.5 60t-3.5 50.5t-1.5 52t-0.5 63.5v223q0 50 1.5 116t11.5 129l-2 4h-79l-2 -4q9 -63 10.5 -129t1.5 -116v-223q0 -36 -0.5 -63.5t-1.5 -52t-3.5 -50.5t-6.5 -60z" />
    <glyph glyph-name="parenleft" unicode="(" horiz-adv-x="271" 
d="M257 760v-5q-42 -52 -71.5 -109.5t-45.5 -122.5q-14 -55 -17 -106.5t-3 -89.5q0 -41 3.5 -90.5t17 -104.5t41 -114t75.5 -119v-5l-15 -11q-96 86 -149 201t-53 243t53 242t149 202z" />
    <glyph glyph-name="parenright" unicode=")" horiz-adv-x="271" 
d="M29 771q96 -87 149 -201.5t53 -242.5q0 -63 -14 -124.5t-40 -118.5t-63.5 -108t-84.5 -93l-15 11v5q48 60 75 119t40.5 114.5t17 104.5t3.5 90q0 38 -3 89t-17 107q-16 65 -45 122t-71 110v5z" />
    <glyph glyph-name="percent" unicode="%" horiz-adv-x="783" 
d="M124 23l52 63l47.5 60l47 62l50.5 70l120 165l77 107t75 119l5 4h76l-1 -4q-55 -61 -97.5 -118.5l-78.5 -107.5l-120 -165l-50 -70l-43.5 -62l-40 -60l-39.5 -63l-5 -4h-76zM596 357q35 0 62 -15t46 -40t28.5 -58t9.5 -70q0 -36 -9.5 -69.5t-28.5 -59t-47 -41t-64 -15.5
q-35 0 -61.5 14.5t-44 39t-26.5 57.5t-9 70q0 39 10 73t28.5 59.5t45 40t60.5 14.5zM596 27q23 0 41 11.5t30.5 31.5t19 47t6.5 57q0 31 -7 57.5t-19.5 46t-31 30.5t-41.5 11t-40 -11t-29 -30.5t-18 -46t-6 -57.5q0 -69 26.5 -108t68.5 -39zM189 665q34 0 61 -15t46 -40
t28.5 -58t9.5 -70q0 -36 -9.5 -69.5t-28 -59t-46.5 -41t-64 -15.5q-35 0 -61.5 14.5t-44.5 39t-27 57.5t-9 70q0 39 10 73t28.5 59.5t45.5 40t61 14.5zM189 335q23 0 41 11.5t30 31.5t18.5 47t6.5 57q0 31 -7 57.5t-19.5 46t-31 30.5t-40.5 11q-23 0 -40.5 -11t-29.5 -30.5
t-18 -46t-6 -57.5q0 -69 27 -108t69 -39z" />
    <glyph glyph-name="period" unicode="." horiz-adv-x="217" 
d="M62 35q0 19 13 33.5t33 14.5q19 0 33.5 -14.5t14.5 -33.5t-14.5 -32.5t-33.5 -13.5q-20 0 -33 13.5t-13 32.5z" />
    <glyph glyph-name="periodcentered" unicode="&#xb7;" horiz-adv-x="227" 
d="M67 243q0 19 13.5 33.5t33.5 14.5q18 0 32.5 -14.5t14.5 -33.5t-14.5 -32.5t-32.5 -13.5q-20 0 -33.5 13.5t-13.5 32.5z" />
    <glyph glyph-name="perthousand" unicode="&#x2030;" horiz-adv-x="1135" 
d="M127 23l52 63l47.5 60l47 62l50.5 70l120 165l77 107t75 119l5 4h76l-1 -4q-55 -61 -97 -118l-79 -108l-120 -165l-50 -70l-43.5 -62l-40 -60l-39.5 -63l-5 -4h-76zM599 357q35 0 62 -15t46 -40t28.5 -58t9.5 -70q0 -36 -9.5 -69.5t-28.5 -59t-47 -41t-64 -15.5
q-35 0 -61.5 14.5t-44 39t-26.5 57.5t-9 70q0 39 10 73t28.5 59.5t45 40t60.5 14.5zM599 27q23 0 41 11.5t30.5 31.5t19 47t6.5 57q0 31 -7 57.5t-19.5 46t-31 30.5t-41.5 11t-40 -11t-29 -30.5t-18 -46t-6 -57.5q0 -69 26.5 -108t68.5 -39zM192 665q34 0 61 -15t46 -40
t28.5 -58t9.5 -70q0 -36 -9.5 -69.5t-28 -59t-46.5 -41t-64 -15.5q-35 0 -61.5 14.5t-44.5 39t-27 57.5t-9 70q0 39 10 73t28.5 59.5t45.5 40t61 14.5zM192 335q23 0 41 11.5t30 31.5t18.5 47t6.5 57q0 31 -7 57.5t-19.5 46t-31 30.5t-40.5 11q-23 0 -40.5 -11t-29.5 -30.5
t-18 -46t-6 -57.5q0 -69 27 -108t69 -39zM951 357q34 0 61 -15t46 -40t28.5 -58t9.5 -70q0 -36 -9.5 -69.5t-28 -59t-46.5 -41t-64 -15.5q-35 0 -61.5 14.5t-44 39t-26.5 57.5t-9 70q0 39 10 73t28.5 59.5t45 40t60.5 14.5zM951 27q23 0 41 11.5t30.5 31.5t19 47t6.5 57
q0 31 -7 57.5t-19.5 46t-31 30.5t-41.5 11t-40.5 -11t-29 -30.5t-17.5 -46t-6 -57.5q0 -69 26.5 -108t68.5 -39z" />
    <glyph glyph-name="plus" unicode="+" horiz-adv-x="495" 
d="M273 265h172l-10 -52h-162v-172h-52v172h-171l9 52h162v162h52v-162z" />
    <glyph glyph-name="plusminus" unicode="&#xb1;" horiz-adv-x="480" 
d="M266 351h134l-10 -53h-124v-115h-52v115h-133l9 53h124v104h52v-104zM400 123l-10 -53h-309l9 53h310z" />
    <glyph glyph-name="q" unicode="q" horiz-adv-x="597" 
d="M433 388q0 7 -1 17l-2 20t-3 18l-3 12l6 9l35 -5q18 -3 44 -3.5t43 -0.5h18l4 -3v-14l-4 -4q-16 0 -30.5 -2.5t-25.5 -14.5q-3 -3 -7 -11.5t-5 -19.5q-1 -18 -2 -33t-1.5 -34t-0.5 -45.5v-67.5v-211q0 -41 0.5 -66.5t1 -43.5t1 -32.5t1.5 -31.5q2 -20 4.5 -31t10.5 -17
q8 -8 22.5 -10t29.5 -2l5 -4l2 -14l-2 -3q-7 0 -21 0.5t-30 1t-30 1t-21 0.5h-14q-7 0 -21.5 -0.5l-30 -1l-30 -1t-21.5 -0.5l-1 3l1 15l4 3q16 0 31.5 2t23.5 10q8 6 10.5 17t4.5 31q1 13 1.5 25.5t1 29.5t0.5 40v56v38.5t0.5 29.5t1 23.5t1.5 21.5l-3 2q-29 -44 -70.5 -71
t-95.5 -27q-57 0 -98.5 20t-68 53t-39.5 75.5t-13 88.5q0 68 21 115.5t53 77t70.5 43t73.5 13.5q47 0 90 -20.5t75 -68.5zM123 228q0 -34 9 -67t27 -58.5t46 -41t67 -15.5q37 0 66.5 14t50 34.5t31.5 42.5t12 38v110q-2 16 -12.5 39t-30 44.5t-48 36.5t-67.5 15
q-40 0 -68.5 -16.5t-47 -43.5t-27 -61.5t-8.5 -70.5z" />
    <glyph glyph-name="question" unicode="?" horiz-adv-x="424" 
d="M220 172l-6 -7l-35 -16l-6 4q-1 25 -2 54t-1 43q0 40 21 74.5t46 68.5t46 70t21 80q0 26 -9.5 45t-24 31.5t-32 18.5t-34.5 6q-27 0 -48.5 -9t-38 -24.5t-26.5 -36t-13 -42.5l-2 -3h-18l-12 93l2 9q9 14 28.5 24.5t43 17t47 10t40.5 3.5q21 0 49.5 -7t54 -25t43 -49
t17.5 -79q0 -31 -10.5 -59.5t-26.5 -55t-34.5 -50.5l-35 -46.5t-28 -42.5t-12.5 -38zM150 36q0 20 13.5 33.5t32.5 13.5t33.5 -13.5t14.5 -33.5q0 -19 -14.5 -33t-33.5 -14t-32.5 14t-13.5 33z" />
    <glyph glyph-name="questiondown" unicode="&#xbf;" horiz-adv-x="415" 
d="M198 292l6 6l35 17l6 -4q1 -26 2.5 -54.5t1.5 -42.5q0 -41 -21 -75.5t-46 -68t-46 -70t-21 -79.5q0 -26 9 -45t23.5 -32t32 -19t34.5 -6q27 0 49 9t38 25t26 36t13 43l3 3h17l12 -93l-2 -9q-9 -14 -28.5 -24.5t-43 -17.5t-47 -10t-40.5 -3q-21 0 -49.5 7t-54 25t-43 49
t-17.5 79q0 46 22.5 87.5t49.5 78l50 68t25 58.5zM174 429q0 19 13.5 32.5t33.5 13.5q19 0 33.5 -13.5t14.5 -32.5t-14.5 -33.5t-33.5 -14.5q-20 0 -33.5 14.5t-13.5 33.5z" />
    <glyph glyph-name="quotedbl" unicode="&#x22;" horiz-adv-x="306" 
d="M67 516l-2 5q-1 48 -3.5 98.5t-8.5 97.5l1 4l67 9l2 -4q-7 -43 -9.5 -94t-2.5 -102l-2 -4zM200 516l-2 5q-1 48 -3.5 98.5t-8.5 97.5l2 4l66 9l2 -4q-7 -43 -9 -94t-3 -102l-2 -4z" />
    <glyph glyph-name="quotedblbase" unicode="&#x201e;" horiz-adv-x="374" 
d="M57 -97l-6 6v4q14 29 18.5 52t4.5 36q0 11 -5.5 22t-5.5 27q0 8 6 14.5t14.5 10.5t19 6t19.5 2q8 0 13 -4.5t7.5 -11.5t3.5 -14t1 -13q0 -23 -9.5 -45.5t-22.5 -41t-27.5 -32t-24.5 -18.5h-6zM218 -97l-6 6v4q14 29 18.5 52t4.5 36q0 11 -5.5 22t-5.5 27q0 8 6 14.5
t14.5 10.5t19 6t19.5 2q8 0 13 -4.5t7.5 -11.5t3.5 -14t1 -13q0 -23 -9.5 -45.5t-22.5 -41t-27.5 -32t-24.5 -18.5h-6z" />
    <glyph glyph-name="quotedblleft" unicode="&#x201c;" horiz-adv-x="341" 
d="M296 740l6 -6v-4q-14 -29 -18.5 -52t-4.5 -36q0 -11 5.5 -22t5.5 -27q0 -8 -6 -14.5t-14.5 -10.5t-19 -6t-19.5 -2q-8 0 -13 4.5t-7.5 11.5t-3.5 14t-1 13q0 23 9.5 45.5t22.5 41t27.5 32t24.5 18.5h6zM144 740l6 -6v-4q-14 -29 -18.5 -52t-4.5 -36q0 -11 5.5 -22
t5.5 -27q0 -8 -6 -14.5t-14.5 -10.5t-19 -6t-19.5 -2q-8 0 -13 4.5t-7.5 11.5t-3.5 14t-1 13q0 23 9.5 45.5t22.5 41t27.5 32t24.5 18.5h6z" />
    <glyph glyph-name="quotedblright" unicode="&#x201d;" horiz-adv-x="328" 
d="M62 560l-6 6v4q14 29 18.5 52t4.5 36q0 11 -5.5 22t-5.5 27q0 8 6 14.5t14.5 10.5t19 6t19.5 2q8 0 13 -4.5t7.5 -11.5t3.5 -14t1 -13q0 -23 -9.5 -45.5t-22.5 -41t-27.5 -32t-24.5 -18.5h-6zM214 560l-6 6v4q14 29 18.5 52t4.5 36q0 11 -5.5 22t-5.5 27q0 8 6 14.5
t14.5 10.5t19 6t19.5 2q8 0 13 -4.5t7.5 -11.5t3.5 -14t1 -13q0 -23 -9.5 -45.5t-22.5 -41t-27.5 -32t-24.5 -18.5h-6z" />
    <glyph glyph-name="quoteleft" unicode="&#x2018;" horiz-adv-x="189" 
d="M144 740l6 -6v-4q-14 -29 -18.5 -52t-4.5 -36q0 -11 5.5 -22t5.5 -27q0 -8 -6 -14.5t-14.5 -10.5t-19 -6t-19.5 -2q-8 0 -13 4.5t-7.5 11.5t-3.5 14t-1 13q0 23 9.5 45.5t22.5 41t27.5 32t24.5 18.5h6z" />
    <glyph glyph-name="quoteright" unicode="&#x2019;" horiz-adv-x="176" 
d="M62 560l-6 6v4q14 29 18.5 52t4.5 36q0 11 -5.5 22t-5.5 27q0 8 6 14.5t14.5 10.5t19 6t19.5 2q8 0 13 -4.5t7.5 -11.5t3.5 -14t1 -13q0 -23 -9.5 -45.5t-22.5 -41t-27.5 -32t-24.5 -18.5h-6z" />
    <glyph glyph-name="quotesinglbase" unicode="&#x201a;" horiz-adv-x="213" 
d="M57 -97l-6 6v4q14 29 18.5 52t4.5 36q0 11 -5.5 22t-5.5 27q0 8 6 14.5t14.5 10.5t19 6t19.5 2q8 0 13 -4.5t7.5 -11.5t3.5 -14t1 -13q0 -23 -9.5 -45.5t-22.5 -41t-27.5 -32t-24.5 -18.5h-6z" />
    <glyph glyph-name="quotesingle" unicode="'" horiz-adv-x="172" 
d="M67 516l-2 5q-1 48 -3.5 98.5t-8.5 97.5l1 4l67 9l2 -4q-7 -43 -9.5 -94t-2.5 -102l-2 -4z" />
    <glyph glyph-name="r" unicode="r" horiz-adv-x="408" 
d="M177 354q10 19 22.5 40t28.5 39t36.5 30t46.5 12q18 0 40.5 -5.5t30.5 -14.5l8 -9l-12 -77h-33q-3 14 -15.5 25.5t-38.5 11.5q-25 0 -46 -14.5t-36.5 -36.5t-24 -46.5t-8.5 -44.5v-89q0 -22 0.5 -35.5t1 -23t1 -16t0.5 -13.5l1 -9q2 -15 4.5 -28.5t10.5 -20.5
q5 -4 14.5 -6t20 -3t20.5 -1.5t16 -0.5l5 -5l2 -13l-2 -4q-7 0 -22.5 1t-32.5 1.5l-32.5 1t-22.5 0.5h-24q-7 0 -21.5 -0.5t-30.5 -1t-30.5 -1.5t-21.5 -1l-1 4l1 14l4 4q16 0 31.5 1.5t23.5 9.5q8 7 10.5 18t4.5 31l1 9q1 10 1.5 25t0.5 51v123v35.5t-0.5 25.5t-1 20
t-1.5 19q-2 11 -6 19.5t-7 11.5q-10 12 -25 14.5t-31 2.5l-4 4v14l4 3h18q17 0 43 0.5t45 3.5l35 5l6 -9q-6 -21 -8.5 -48t-2.5 -52z" />
    <glyph glyph-name="registered" unicode="&#xae;" horiz-adv-x="725" 
d="M225 201l1 16q16 1 24.5 6.5t12.5 17t4.5 29t0.5 41.5v133q0 27 -7 46.5t-35 21.5v20h120q69 0 95.5 -24.5t26.5 -61.5q0 -20 -7 -35.5t-18.5 -27t-26 -19t-29.5 -11.5l34 -46t36 -44t36 -33t33 -13v-16q-16 0 -20.5 -1t-12.5 -1q-21 0 -35.5 6t-30 22.5t-35.5 45.5
l-51 74h-31q0 -39 1.5 -64.5t6 -40t13 -20.5t21.5 -6l2 -15h-129zM355 377q35 0 52 17.5t17 48.5q0 27 -18 43t-50 16h-46v-111q0 -11 5.5 -12.5t12.5 -1.5h27zM362 654q63 0 118.5 -23.5t96.5 -64.5t65 -95.5t24 -116.5q0 -63 -24 -118.5t-65.5 -96t-98 -64t-121.5 -23.5
q-61 0 -115.5 24t-95 65t-64 96t-23.5 117t23.5 116.5t65 95.5t96.5 64.5t118 23.5zM362 625q-56 0 -104.5 -21.5t-85 -58t-57.5 -86t-21 -105.5t21 -106t57 -87t84 -58.5t102 -21.5q57 0 107 21t87 58t58 87t21 107q0 56 -21 105.5t-58 86t-86 58t-104 21.5z" />
    <glyph glyph-name="ring" unicode="&#x2da;" horiz-adv-x="164" 
d="M82 683q39 0 60.5 -23.5t21.5 -51.5q0 -26 -20.5 -48t-60.5 -22q-21 0 -36.5 6.5t-26 17t-15.5 23t-5 25.5q0 28 21.5 50.5t60.5 22.5zM83 562q20 0 31.5 14.5t11.5 31.5q0 18 -12.5 34.5t-32.5 16.5q-22 0 -33 -15.5t-11 -32.5q0 -18 13 -33.5t33 -15.5z" />
    <glyph glyph-name="s" unicode="s" horiz-adv-x="439" 
d="M270 265q42 -9 67.5 -24.5t39.5 -33.5t18.5 -36.5t4.5 -34.5q0 -32 -13 -59t-37.5 -46.5t-59.5 -30.5t-79 -11q-49 0 -91.5 11.5t-67.5 24.5l-2 9l15 103h23l3 -4q0 -48 30 -75.5t87 -27.5q34 0 57 8t36.5 21t19.5 28t6 29q0 9 -1 20.5t-8 23t-21 22t-40 17.5l-96 24
q-33 8 -54 21t-33 28.5t-17 33t-5 35.5q0 33 13 58.5t35.5 42t52.5 25t65 8.5q47 0 86.5 -12t61.5 -24l3 -9l-11 -77h-21l-4 3q0 23 -12.5 38.5t-30.5 25t-38 13.5t-35 4q-50 0 -72 -25t-22 -56q0 -23 15.5 -43.5t60.5 -31.5z" />
    <glyph glyph-name="scaron" unicode="&#x161;" horiz-adv-x="439" 
d="M270 265q42 -9 67.5 -24.5t39.5 -33.5t18.5 -36.5t4.5 -34.5q0 -32 -13 -59t-37.5 -46.5t-59.5 -30.5t-79 -11q-49 0 -91.5 11.5t-67.5 24.5l-2 9l15 103h23l3 -4q0 -48 30 -75.5t87 -27.5q34 0 57 8t36.5 21t19.5 28t6 29q0 9 -1 20.5t-8 23t-21 22t-40 17.5l-96 24
q-33 8 -54 21t-33 28.5t-17 33t-5 35.5q0 33 13 58.5t35.5 42t52.5 25t65 8.5q47 0 86.5 -12t61.5 -24l3 -9l-11 -77h-21l-4 3q0 23 -12.5 38.5t-30.5 25t-38 13.5t-35 4q-50 0 -72 -25t-22 -56q0 -23 15.5 -43.5t60.5 -31.5zM221 545l-111 99l-2 6l5 20l8 3l103 -62l104 62
l8 -3l5 -20l-2 -6l-111 -99h-7z" />
    <glyph glyph-name="section" unicode="&#xa7;" horiz-adv-x="422" 
d="M321 249q0 14 -4.5 26t-23 31.5t-57 51.5l-105.5 87q-20 -19 -27 -31.5t-7 -25.5q0 -11 6.5 -24.5t27 -35t58.5 -55l101 -85.5q20 16 25.5 28.5t5.5 32.5zM286 591q-12 28 -35.5 42.5t-46.5 14.5q-24 0 -41.5 -14.5t-17.5 -45.5q0 -22 13 -41.5t31.5 -37t39 -33
t36.5 -29.5q57 -51 84 -90.5t27 -76.5q0 -29 -17 -58.5t-49 -63.5q8 -17 9.5 -28t1.5 -24q0 -37 -11.5 -67.5t-31 -52.5t-46 -34t-56.5 -12q-26 0 -46 9.5t-44 31.5l-1 6l50 67l3 -1q8 -29 28.5 -42.5t42.5 -13.5q26 0 46 15t20 43q0 18 -11 34t-28 32t-38.5 31.5
l-43.5 31.5q-33 25 -53.5 45.5t-32 38.5t-15 34.5t-3.5 34.5q0 19 3 34.5t10.5 31t18.5 32t28 36.5q-11 17 -16 36t-5 38q0 31 13 60t35 52t51.5 37t62.5 14q23 0 42.5 -6.5t38.5 -21.5l2 -8l-43 -81h-5z" />
    <glyph glyph-name="semicolon" unicode=";" horiz-adv-x="233" 
d="M71 408q0 19 13 33t33 14q19 0 33.5 -14t14.5 -33q0 -20 -14.5 -33.5t-33.5 -13.5q-20 0 -33 13.5t-13 33.5zM70 -97l-6 6v4q14 29 18.5 52t4.5 36q0 11 -5.5 22t-5.5 27q0 8 6 14.5t14.5 10.5t19 6t19.5 2q8 0 13 -4.5t7.5 -11.5t3.5 -14t1 -13q0 -23 -9.5 -45.5
t-22.5 -41t-27.5 -32t-24.5 -18.5h-6z" />
    <glyph glyph-name="seven" unicode="7" horiz-adv-x="512" 
d="M199 0q-24 0 -55 -2t-51 -4l-7 10l76 135.5l72 132.5l63 121l50.5 101t33.5 72t12 36l-5 4h-136q-59 0 -94.5 -2t-54.5 -8t-26.5 -18.5t-11.5 -33.5l-6 -5h-18l-5 7l15 108l8 8q80 -4 160 -6t145 -2h137l5 -3l-5 -25q-7 -8 -23.5 -36l-37.5 -66.5l-45 -84l-46 -88
l-40 -78t-26 -54.5q-23 -51 -42 -100.5t-37 -111.5z" />
    <glyph glyph-name="six" unicode="6" horiz-adv-x="544" 
d="M141 336q16 22 34.5 34.5t37.5 19.5t37.5 9t33.5 2q67 0 108.5 -21.5t64.5 -52t30.5 -65.5t7.5 -62q0 -37 -11.5 -74.5t-37 -68t-66 -49.5t-97.5 -19q-60 0 -101.5 22.5t-67 63.5t-36.5 99t-11 129q0 61 9 125.5t34.5 117t70.5 86t117 33.5q16 0 37 -2t43 -7.5t43 -14.5
t36 -23l-15 -63h-18q-10 17 -24 28t-30 17.5t-33 9t-32 2.5q-48 0 -80 -22t-52 -56t-28.5 -75.5t-8.5 -81.5q0 -11 0.5 -20.5t1.5 -19.5zM289 346q-72 0 -107.5 -39t-35.5 -104q0 -24 6 -52t21 -52t41.5 -40.5t67.5 -16.5q69 0 107 45t38 115q0 23 -5.5 48.5t-20.5 46.5
t-42 35t-70 14z" />
    <glyph glyph-name="slash" unicode="/" horiz-adv-x="434" 
d="M40 -53q33 67 64 147l58 155l67 184l21 58t23.5 68.5t22 71.5t17.5 67l3 4h78l1 -4q-17 -31 -32 -67l-29 -71.5l-26 -68.5l-21 -58l-68 -184q-28 -75 -55 -155t-43 -147l-3 -4h-78v4z" />
    <glyph glyph-name="space" unicode=" " horiz-adv-x="240" 
 />
    <glyph glyph-name="sterling" unicode="&#xa3;" horiz-adv-x="531" 
d="M148 312q-5 36 -9.5 73t-4.5 72q0 96 46 152t131 56q21 0 45 -5t46.5 -16.5t42 -31t31.5 -47.5l-13 -91h-27l-4 4q-6 67 -30.5 100.5t-78.5 33.5q-32 0 -52.5 -11t-33.5 -30.5t-18 -46t-5 -58.5t3.5 -71.5t5.5 -82.5h149l-10 -42h-137v-11q0 -35 -4 -67.5t-13.5 -60.5
t-26.5 -49.5t-44 -33.5l2 -3q89 -7 134.5 -11.5t59.5 -4.5q30 0 48 4t28.5 12t15.5 21.5t11 32.5l5 6h27l-37 -139l-9 -10q-22 12 -65 21t-95.5 14t-107.5 7.5t-101 2.5l-10 10v23q33 26 54.5 51t33.5 50.5t17 51t5 52.5v15.5t-1 15.5h-102l20 42h78z" />
    <glyph glyph-name="t" unicode="t" horiz-adv-x="326" 
d="M296 413h-130q0 -65 -0.5 -120t-0.5 -96.5t-0.5 -66.5t-0.5 -31q0 -39 15 -52t35 -13q17 0 39.5 6.5t36.5 14.5l9 -7l-9 -28q-23 -16 -51.5 -23.5t-50.5 -7.5q-51 0 -72 28t-21 72q0 9 1 37t2 70t2 97t1 120h-72l-4 5v19l4 4l72 14q0 35 -1.5 71.5t-3.5 71.5l7 6l14 1
q8 1 26 4t25 7l9 -4q-3 -14 -5 -32.5t-3.5 -39.5t-2 -43t-0.5 -42l130 6l5 -4v-39z" />
    <glyph glyph-name="thorn" unicode="&#xfe;" horiz-adv-x="581" 
d="M6 727l4 4h18q17 0 43 0.5t45 3.5l39 5l5 -9q-5 -15 -6 -46q-1 -33 -1.5 -81.5l-1 -95.5t-0.5 -82.5v-41.5q29 41 70.5 66t92.5 25q57 0 98.5 -20t68.5 -53t40 -75.5t13 -88.5q0 -68 -21 -115.5t-53.5 -77t-71 -43t-73.5 -13.5q-49 0 -92.5 22t-74.5 76v-92
q0 -41 0.5 -66.5t1 -43.5t1 -32.5t1.5 -31.5q2 -20 4.5 -31t10.5 -17q8 -8 22.5 -10t29.5 -2l5 -4l2 -14l-2 -3q-7 0 -21 0.5t-30 1t-30 1t-21 0.5h-14q-7 0 -21.5 -0.5l-30 -1l-30 -1t-21.5 -0.5l-1 3l1 15l4 3q16 0 31.5 2t23.5 10q8 6 10.5 17t4.5 31q1 13 1.5 25.5
t1 29.5t0.5 40v56v509v67t-0.5 47t-1 35.5t-1.5 31.5q-1 11 -5.5 19t-7.5 12q-10 11 -25 14t-31 3l-4 4v13zM458 236q0 34 -9 67t-27.5 58.5t-46.5 41t-66 15.5t-67 -14t-49.5 -34.5t-32 -42.5t-12.5 -38v-110q3 -16 13 -39t29.5 -44.5t48.5 -36.5t68 -15t67.5 16.5t47 43.5
t27.5 61.5t9 70.5z" />
    <glyph glyph-name="three" unicode="3" horiz-adv-x="544" 
d="M101 147q1 -20 11.5 -39t30 -33.5t48 -23.5t65.5 -9q45 0 75 13.5t48 34.5t25.5 46t7.5 49q0 27 -8.5 53.5t-25.5 47t-43 33.5t-61 13h-32l-5 4l-3 28l5 5h18q29 0 51.5 11.5t38 30t23.5 43t8 50.5q0 21 -6 40.5t-20 34.5t-38.5 24t-60.5 9t-59.5 -9.5t-38.5 -27t-23 -42
t-12 -55.5l-4 -4h-33l-12 72l2 9q10 19 27.5 39t42 35.5t56.5 25.5t72 10q34 0 67 -9.5t58.5 -28.5t41.5 -48t16 -68q0 -31 -9 -56t-23 -44t-31.5 -31.5t-33.5 -18.5v-4q60 -11 95.5 -58t35.5 -110q0 -44 -17.5 -81t-49 -63.5t-76.5 -41t-99 -14.5q-128 0 -191 91l-1 9
l11 62h33z" />
    <glyph glyph-name="threequarters" unicode="&#xbe;" horiz-adv-x="719" 
d="M100 23l52.5 63.5l47.5 60.5l46.5 62l50.5 69l121 165l76.5 107.5t75.5 118.5l4 4h76l-1 -4q-55 -61 -97.5 -118.5l-78.5 -107.5l-120 -165l-50 -70l-43.5 -62l-40 -60l-39.5 -63l-5 -4h-76zM79 403q5 -41 28 -57t52 -16q16 0 31.5 5t27.5 14.5t19.5 24.5t7.5 35
q0 29 -18.5 52.5t-55.5 23.5h-15l6 21q31 1 47.5 22.5t16.5 46.5q0 30 -21 44.5t-47 14.5t-47.5 -15t-21.5 -47q0 -6 1 -10h-22l-5 44q5 10 12.5 21t19 19t28 13.5t39.5 5.5q51 0 79 -26.5t28 -61.5q0 -22 -12.5 -42.5t-40.5 -34.5q37 -8 54 -32t17 -53q0 -21 -9 -42
t-25.5 -38t-40 -27.5t-53.5 -10.5q-38 0 -63.5 16.5t-42.5 45.5l5 44h21zM430 116l-6 15l134 219l58 8l7 -5q-1 -8 -1.5 -18t-1 -31.5t-1 -59t-0.5 -99.5h48l3 -3l-8 -26l-4 -3h-39q0 -32 1 -52.5t5.5 -33.5t15 -18t28.5 -5l2 -12q-8 0 -27.5 1t-27.5 1h-38q-4 0 -12.5 -0.5
t-17.5 -0.5t-17.5 -0.5t-12.5 -0.5l3 12q20 0 31 5.5t16 18t6 33.5t1 52h-140zM474 145h101q0 73 -0.5 110.5t-1.5 57.5z" />
    <glyph glyph-name="threesuperior" unicode="&#xb3;" horiz-adv-x="338" 
d="M80 403q5 -42 28 -57.5t52 -15.5q33 0 59 19.5t26 59.5q0 29 -18 52.5t-55 23.5h-15l6 21q31 1 47.5 22.5t16.5 46.5q0 30 -21 44.5t-47 14.5t-47.5 -15t-21.5 -47q0 -7 1 -10h-22l-5 44q5 10 12.5 21t19 19t28 13.5t39.5 5.5q51 0 79 -26.5t28 -61.5q0 -22 -12.5 -42.5
t-40.5 -34.5q37 -8 54 -32t17 -53q0 -21 -9 -42t-25.5 -38t-40 -27.5t-53.5 -10.5q-38 0 -63.5 16.5t-43.5 45.5l6 44h21z" />
    <glyph glyph-name="tilde" unicode="&#x2dc;" horiz-adv-x="311" 
d="M311 663q-3 -14 -9.5 -27.5t-17 -24.5t-25.5 -18t-36 -7q-40 0 -81.5 7t-73.5 7q-25 0 -35 -6.5t-20 -18.5l-13 8q4 13 11 27t17.5 24.5t26 17.5t36.5 7q25 0 43.5 -2t34.5 -5t31 -5t34 -2q17 0 34 4t31 22z" />
    <glyph glyph-name="trademark" unicode="&#x2122;" horiz-adv-x="783" 
d="M255 374q-3 0 -9 0.5t-13.5 0.5t-13.5 0.5t-9 0.5h-35q-6 0 -21.5 -1t-21.5 -1l2 18q14 0 22 3t11.5 11t4.5 22t1 35v93q0 26 -0.5 42t-1.5 27h-4q-33 0 -41.5 -1.5t-11.5 -3.5q-9 -4 -12 -22l-17 -1v56l4 6q3 -2 14.5 -3t24.5 -2t25.5 -1h17.5h45h17t25 1t24 2t14 3
l3 -3l4 -59l-20 1q-3 18 -11 22q-4 2 -13 3.5t-40 1.5h-4q0 -12 -0.5 -27t-0.5 -42v-85q0 -27 1.5 -43t6 -24t12 -10t19.5 -2zM707 374q-6 0 -23 1t-23 1h-17q-3 0 -9.5 -0.5t-14 -0.5t-13.5 -0.5t-9 -0.5l2 18q13 0 21.5 5.5t8.5 22.5q0 7 -1 18t-2 25l-10 148
q-5 -11 -16.5 -40l-25 -64.5l-26.5 -69.5t-22 -55h-40l-79 228q0 -8 -1.5 -19t-3.5 -35l-5 -85q-2 -24 -2.5 -32t-0.5 -13q0 -13 2 -20t5.5 -10t8.5 -3.5t11 -0.5l3 -18q-6 0 -20 1t-20 1h-16q-3 0 -9 -0.5t-13 -0.5t-12.5 -0.5t-8.5 -0.5l3 18q19 0 27 14t11 57l6 93
q2 28 2.5 40.5t0.5 21.5q0 13 -4 16.5t-12 3.5q-5 0 -8 -0.5t-8 -0.5l-2 19q3 0 9.5 -0.5l13.5 -1l14 -1t10 -0.5h19q3 0 13 0.5t15 2.5q-1 0 7.5 -28t21 -65.5l26 -75.5t22.5 -58q2 3 14 32l27 66.5t28 74t18 54.5q4 -3 14 -3h31q6 0 23 1.5t23 1.5v-18h-18
q-11 0 -13.5 -6.5t-2.5 -30.5v-17.5t2 -27.5l6 -85q2 -27 4 -43t5 -24.5t7 -10.5t10 -2q3 0 6 0.5t7 0.5z" />
    <glyph glyph-name="two" unicode="2" horiz-adv-x="536" 
d="M60 546l3 9q12 21 30 41t43.5 35t58 24.5t73.5 9.5q105 0 151 -46.5t46 -125.5q0 -47 -22.5 -86t-55.5 -84q-28 -38 -65.5 -81l-71 -82l-57 -68.5t-23.5 -40.5l2 -3h78q60 0 96 1.5t56 9.5t29.5 23.5t16.5 44.5l5 6h27l-18 -129l-9 -10q-7 0 -33.5 1t-58 2l-61 2t-42.5 1
h-99q-22 0 -49.5 -2l-53.5 -4l-10 11v23q22 28 59.5 70.5l79.5 90l83 96t70 88.5q23 32 38.5 64t15.5 68q0 50 -37.5 78.5t-92.5 28.5q-66 0 -107 -33.5t-45 -100.5l-4 -4h-34z" />
    <glyph glyph-name="twosuperior" unicode="&#xb2;" horiz-adv-x="355" 
d="M68 606q13 23 39.5 41t71.5 18q57 0 82 -25t25 -68q0 -35 -23.5 -71t-51.5 -67.5l-51.5 -56t-23.5 -36.5h33q33 0 52 1t30.5 5.5t17 14t10.5 26.5h14l-9 -80l-5 -5q-3 0 -17.5 0.5t-31.5 1l-33 1t-23 0.5h-54q-12 0 -27 -1l-29 -2l-5 6v12q19 24 49.5 57l59.5 67.5
t50 67.5t21 58q0 22 -12.5 39t-50.5 17q-73 0 -79 -75h-23z" />
    <glyph glyph-name="u" unicode="u" horiz-adv-x="599" 
d="M429 86q-26 -42 -66.5 -69.5t-99.5 -27.5q-29 0 -55.5 6.5t-49 21.5t-38.5 40t-23 63q-5 26 -4.5 54.5t-0.5 57.5q0 13 -0.5 35.5t-0.5 46v43.5v29q0 11 -5 19.5t-8 12.5q-10 11 -25 13.5t-31 2.5l-3 4v14l3 3h18q17 0 43 0.5t45 3.5l35 5l6 -9q-2 -4 -3 -14.5t-2 -22.5
t-1 -23v-17q0 -17 -0.5 -37.5l-1 -41.5t-1 -40t-0.5 -32q0 -22 1.5 -49.5t6.5 -47.5q10 -47 41 -70t72 -23q31 0 57 12.5t45.5 30.5t32 38.5t16.5 37.5v130q0 21 -0.5 35.5t-1 25.5t-1 20t-1.5 19q-2 11 -5.5 19.5t-6.5 11.5q-10 12 -25 14.5t-31 2.5l-4 4v14l4 3h18
q17 0 43 0.5t44 3.5l35 5l6 -9q-2 -4 -3 -14.5t-2 -22.5t-1 -23v-17q0 -8 -0.5 -15t-0.5 -17t-0.5 -23.5t-0.5 -35.5v-112q0 -22 0.5 -36t1 -24t1 -18.5t0.5 -18.5q2 -23 5 -33.5t10 -15.5q8 -8 23.5 -9.5t31.5 -1.5l4 -4l2 -14l-2 -4q-18 2 -39 3t-41 1q-38 0 -69 -3l-6 10
q3 13 6.5 34t5.5 43z" />
    <glyph glyph-name="uacute" unicode="&#xfa;" horiz-adv-x="599" 
d="M193 552l-5 20l3 7l180 101q17 -1 26 -11t9 -24q0 -9 -3 -19l-202 -77zM429 86q-26 -42 -66.5 -69.5t-99.5 -27.5q-29 0 -55.5 6.5t-49 21.5t-38.5 40t-23 63q-5 26 -4.5 54.5t-0.5 57.5q0 13 -0.5 35.5t-0.5 46v43.5v29q0 11 -5 19.5t-8 12.5q-10 11 -25 13.5t-31 2.5
l-3 4v14l3 3h18q17 0 43 0.5t45 3.5l35 5l6 -9q-2 -4 -3 -14.5t-2 -22.5t-1 -23v-17q0 -17 -0.5 -37.5l-1 -41.5t-1 -40t-0.5 -32q0 -22 1.5 -49.5t6.5 -47.5q10 -47 41 -70t72 -23q31 0 57 12.5t45.5 30.5t32 38.5t16.5 37.5v130q0 21 -0.5 35.5t-1 25.5t-1 20t-1.5 19
q-2 11 -5.5 19.5t-6.5 11.5q-10 12 -25 14.5t-31 2.5l-4 4v14l4 3h18q17 0 43 0.5t44 3.5l35 5l6 -9q-2 -4 -3 -14.5t-2 -22.5t-1 -23v-17q0 -8 -0.5 -15t-0.5 -17t-0.5 -23.5t-0.5 -35.5v-112q0 -22 0.5 -36t1 -24t1 -18.5t0.5 -18.5q2 -23 5 -33.5t10 -15.5
q8 -8 23.5 -9.5t31.5 -1.5l4 -4l2 -14l-2 -4q-18 2 -39 3t-41 1q-38 0 -69 -3l-6 10q3 13 6.5 34t5.5 43z" />
    <glyph glyph-name="ucircumflex" unicode="&#xfb;" horiz-adv-x="599" 
d="M292 673l111 -99l2 -7l-5 -19l-8 -3l-104 61l-103 -61l-8 3l-5 19l2 7l111 99h7zM429 86q-26 -42 -66.5 -69.5t-99.5 -27.5q-29 0 -55.5 6.5t-49 21.5t-38.5 40t-23 63q-5 26 -4.5 54.5t-0.5 57.5q0 13 -0.5 35.5t-0.5 46v43.5v29q0 11 -5 19.5t-8 12.5q-10 11 -25 13.5
t-31 2.5l-3 4v14l3 3h18q17 0 43 0.5t45 3.5l35 5l6 -9q-2 -4 -3 -14.5t-2 -22.5t-1 -23v-17q0 -17 -0.5 -37.5l-1 -41.5t-1 -40t-0.5 -32q0 -22 1.5 -49.5t6.5 -47.5q10 -47 41 -70t72 -23q31 0 57 12.5t45.5 30.5t32 38.5t16.5 37.5v130q0 21 -0.5 35.5t-1 25.5t-1 20
t-1.5 19q-2 11 -5.5 19.5t-6.5 11.5q-10 12 -25 14.5t-31 2.5l-4 4v14l4 3h18q17 0 43 0.5t44 3.5l35 5l6 -9q-2 -4 -3 -14.5t-2 -22.5t-1 -23v-17q0 -8 -0.5 -15t-0.5 -17t-0.5 -23.5t-0.5 -35.5v-112q0 -22 0.5 -36t1 -24t1 -18.5t0.5 -18.5q2 -23 5 -33.5t10 -15.5
q8 -8 23.5 -9.5t31.5 -1.5l4 -4l2 -14l-2 -4q-18 2 -39 3t-41 1q-38 0 -69 -3l-6 10q3 13 6.5 34t5.5 43z" />
    <glyph glyph-name="udieresis" unicode="&#xfc;" horiz-adv-x="599" 
d="M429 86q-26 -42 -66.5 -69.5t-99.5 -27.5q-29 0 -55.5 6.5t-49 21.5t-38.5 40t-23 63q-5 26 -4.5 54.5t-0.5 57.5q0 13 -0.5 35.5t-0.5 46v43.5v29q0 11 -5 19.5t-8 12.5q-10 11 -25 13.5t-31 2.5l-3 4v14l3 3h18q17 0 43 0.5t45 3.5l35 5l6 -9q-2 -4 -3 -14.5t-2 -22.5
t-1 -23v-17q0 -17 -0.5 -37.5l-1 -41.5t-1 -40t-0.5 -32q0 -22 1.5 -49.5t6.5 -47.5q10 -47 41 -70t72 -23q31 0 57 12.5t45.5 30.5t32 38.5t16.5 37.5v130q0 21 -0.5 35.5t-1 25.5t-1 20t-1.5 19q-2 11 -5.5 19.5t-6.5 11.5q-10 12 -25 14.5t-31 2.5l-4 4v14l4 3h18
q17 0 43 0.5t44 3.5l35 5l6 -9q-2 -4 -3 -14.5t-2 -22.5t-1 -23v-17q0 -8 -0.5 -15t-0.5 -17t-0.5 -23.5t-0.5 -35.5v-112q0 -22 0.5 -36t1 -24t1 -18.5t0.5 -18.5q2 -23 5 -33.5t10 -15.5q8 -8 23.5 -9.5t31.5 -1.5l4 -4l2 -14l-2 -4q-18 2 -39 3t-41 1q-38 0 -69 -3l-6 10
q3 13 6.5 34t5.5 43zM168 626q0 18 12 31.5t29 13.5t29.5 -13.5t12.5 -31.5q0 -19 -12.5 -31.5t-29.5 -12.5t-29 12.5t-12 31.5zM325 626q0 18 12 31.5t29 13.5t29.5 -13.5t12.5 -31.5q0 -19 -12.5 -31.5t-29.5 -12.5t-29 12.5t-12 31.5z" />
    <glyph glyph-name="ugrave" unicode="&#xf9;" horiz-adv-x="599" 
d="M355 549l-201 77q-4 9 -4 19q0 14 9 24t26 11l180 -101l3 -7l-5 -20zM429 86q-26 -42 -66.5 -69.5t-99.5 -27.5q-29 0 -55.5 6.5t-49 21.5t-38.5 40t-23 63q-5 26 -4.5 54.5t-0.5 57.5q0 13 -0.5 35.5t-0.5 46v43.5v29q0 11 -5 19.5t-8 12.5q-10 11 -25 13.5t-31 2.5
l-3 4v14l3 3h18q17 0 43 0.5t45 3.5l35 5l6 -9q-2 -4 -3 -14.5t-2 -22.5t-1 -23v-17q0 -17 -0.5 -37.5l-1 -41.5t-1 -40t-0.5 -32q0 -22 1.5 -49.5t6.5 -47.5q10 -47 41 -70t72 -23q31 0 57 12.5t45.5 30.5t32 38.5t16.5 37.5v130q0 21 -0.5 35.5t-1 25.5t-1 20t-1.5 19
q-2 11 -5.5 19.5t-6.5 11.5q-10 12 -25 14.5t-31 2.5l-4 4v14l4 3h18q17 0 43 0.5t44 3.5l35 5l6 -9q-2 -4 -3 -14.5t-2 -22.5t-1 -23v-17q0 -8 -0.5 -15t-0.5 -17t-0.5 -23.5t-0.5 -35.5v-112q0 -22 0.5 -36t1 -24t1 -18.5t0.5 -18.5q2 -23 5 -33.5t10 -15.5
q8 -8 23.5 -9.5t31.5 -1.5l4 -4l2 -14l-2 -4q-18 2 -39 3t-41 1q-38 0 -69 -3l-6 10q3 13 6.5 34t5.5 43z" />
    <glyph glyph-name="underscore" unicode="_" horiz-adv-x="463" 
d="M448 0v-52h-433v52h433z" />
    <glyph glyph-name="uni00AD" unicode="&#xad;" horiz-adv-x="471" 
d="M405 265l-10 -52h-328l9 52h329z" />
    <glyph glyph-name="v" unicode="v" horiz-adv-x="515" 
d="M230 -5l-10 5l-60 160q-3 9 -12.5 33l-21.5 53l-24.5 60.5l-22.5 55.5t-18 38q-10 16 -22.5 25t-33.5 11l-6 5v14l4 4q17 -2 36 -4t35 -2h39q16 0 38.5 2t42.5 4l4 -4v-12l-4 -4q-22 -2 -36.5 -11.5t-14.5 -27.5q0 -12 9.5 -42.5t21.5 -65l23 -64t15 -39.5l49 -130
l48 115l19 46t24 62t20.5 64.5t8.5 53.5t-16 29.5t-36 9.5l-4 4v12l4 4q39 -6 73 -6h41q17 0 33.5 2t35.5 4l4 -4v-14l-6 -5q-17 -2 -29.5 -10t-23.5 -26q-9 -16 -20.5 -40t-23 -52l-23 -57l-21 -54l-16 -43.5t-9.5 -25.5l-51 -128z" />
    <glyph glyph-name="w" unicode="w" horiz-adv-x="819" 
d="M527 0l-118 304l-21.5 -56l-19.5 -52.5l-16 -42.5t-10 -25l-51 -128l-61 -5l-10 5l-60 160q-3 8 -12.5 31.5l-21.5 53.5l-24.5 61.5l-22.5 55.5t-18 38q-10 16 -22.5 25t-33.5 11l-6 5v14l4 4q17 -2 36 -4t35 -2h39q16 0 38.5 2t42.5 4l4 -4v-12l-4 -4
q-22 -2 -36.5 -11.5t-14.5 -27.5q0 -8 4.5 -25t11.5 -38l15 -44.5t16 -44.5l14 -37t8 -22l49 -130l48 115q6 15 16.5 39t21 52t20 57t13.5 53q-5 19 -15.5 37.5t-41.5 23.5l-6 5v14l4 4q17 -2 31.5 -4t30.5 -2h39q33 0 71 6l4 -4v-12l-4 -4q-44 -5 -44 -39q0 -8 4.5 -25
t11.5 -38l15 -44.5t16 -44.5l14 -37t8 -22l49 -130l48 115l19 46t24 62t20.5 64.5t8.5 53.5t-16 29.5t-36 9.5l-4 4v12l4 4q40 -6 73 -6h41q17 0 32.5 2t35.5 4l3 -4v-14l-5 -5q-18 -2 -30.5 -10t-23.5 -26q-10 -16 -21 -40t-22.5 -52l-22.5 -57l-20.5 -54l-16.5 -43.5
t-10 -25.5l-51 -128l-61 -5z" />
    <glyph glyph-name="x" unicode="x" horiz-adv-x="525" 
d="M175 410q0 -4 7.5 -17t20.5 -32l30 -43t37 -49q19 23 35 46l28 41.5t19 32t7 17.5q0 20 -8 24.5t-31 8.5l-4 4v12l4 4q20 -3 33.5 -4.5t30.5 -1.5h41q17 0 33.5 2t36.5 4l4 -4v-14l-6 -5q-16 -2 -28.5 -5.5t-23 -10t-20 -16t-19.5 -24.5l-31.5 -43l-26 -35.5l-24 -32.5
l-24.5 -35l46 -60.5l41 -53l29.5 -38t13.5 -15.5q14 -19 31.5 -31.5t49.5 -17.5l6 -5v-14l-4 -4q-17 2 -38 4t-37 2h-39q-16 0 -37 -2l-41 -4l-4 4v12l4 4q17 1 29 8t12 15q0 5 -3.5 14t-15 26.5l-32 46.5l-53.5 74l-39.5 -49l-35.5 -46t-25.5 -36t-9.5 -19q0 -17 12.5 -23
t35.5 -10l4 -4v-12l-4 -4q-20 3 -33 3.5t-30 0.5h-41q-17 0 -34 -1t-36 -3l-4 4v14l6 5q16 3 26.5 6t19.5 8.5t17.5 14t19.5 22.5l50.5 66.5l71.5 99.5l-54.5 73.5l-69.5 90.5q-12 15 -27.5 24.5t-38.5 11.5l-6 5v14l4 4q17 -2 38 -4t37 -2h39q16 0 36.5 2l40.5 4l4 -4v-12
l-4 -4q-20 -2 -34.5 -7t-14.5 -22z" />
    <glyph glyph-name="y" unicode="y" horiz-adv-x="514" 
d="M41 -229q14 0 26.5 1t24.5 4.5t23.5 11.5t25.5 22q19 20 33 42.5t23 45.5l32 81l-69 181q-4 9 -13.5 33l-21.5 53.5l-24.5 60.5l-21.5 55q-10 24 -18 38q-10 16 -22.5 25t-33.5 11l-6 5v14l4 4q17 -2 36 -4t35 -2h39q16 0 38.5 2t42.5 4l4 -4v-12l-4 -4
q-22 -2 -36.5 -11.5t-14.5 -27.5q0 -12 9.5 -42.5t21.5 -65l23 -64.5t15 -39l50 -130l47 115l19 46t24 62t20.5 64.5t8.5 53.5t-16 29.5t-36 9.5l-4 4v12l4 4q39 -6 73 -6h41q17 0 32.5 2t34.5 4l4 -4v-14l-5 -5q-18 -2 -27.5 -10t-20.5 -26q-9 -16 -20.5 -40t-23 -52
l-23 -57l-21 -54l-16 -43.5t-9.5 -25.5l-98 -244q-26 -65 -70.5 -96.5t-96.5 -44.5q-10 -2 -18 -2.5t-18 -0.5l-8 2l-2 24z" />
    <glyph glyph-name="yacute" unicode="&#xfd;" horiz-adv-x="514" 
d="M41 -229q14 0 26.5 1t24.5 4.5t23.5 11.5t25.5 22q19 20 33 42.5t23 45.5l32 81l-69 181q-4 9 -13.5 33l-21.5 53.5l-24.5 60.5l-21.5 55q-10 24 -18 38q-10 16 -22.5 25t-33.5 11l-6 5v14l4 4q17 -2 36 -4t35 -2h39q16 0 38.5 2t42.5 4l4 -4v-12l-4 -4
q-22 -2 -36.5 -11.5t-14.5 -27.5q0 -12 9.5 -42.5t21.5 -65l23 -64.5t15 -39l50 -130l47 115l19 46t24 62t20.5 64.5t8.5 53.5t-16 29.5t-36 9.5l-4 4v12l4 4q39 -6 73 -6h41q17 0 32.5 2t34.5 4l4 -4v-14l-5 -5q-18 -2 -27.5 -10t-20.5 -26q-9 -16 -20.5 -40t-23 -52
l-23 -57l-21 -54l-16 -43.5t-9.5 -25.5l-98 -244q-26 -65 -70.5 -96.5t-96.5 -44.5q-10 -2 -18 -2.5t-18 -0.5l-8 2l-2 24zM201 552l-6 20l3 7l180 101q17 -1 26 -11t9 -24q0 -4 -0.5 -9t-2.5 -10l-202 -77z" />
    <glyph glyph-name="ydieresis" unicode="&#xff;" horiz-adv-x="514" 
d="M41 -229q14 0 26.5 1t24.5 4.5t23.5 11.5t25.5 22q19 20 33 42.5t23 45.5l32 81l-69 181q-4 9 -13.5 33l-21.5 53.5l-24.5 60.5l-21.5 55q-10 24 -18 38q-10 16 -22.5 25t-33.5 11l-6 5v14l4 4q17 -2 36 -4t35 -2h39q16 0 38.5 2t42.5 4l4 -4v-12l-4 -4
q-22 -2 -36.5 -11.5t-14.5 -27.5q0 -12 9.5 -42.5t21.5 -65l23 -64.5t15 -39l50 -130l47 115l19 46t24 62t20.5 64.5t8.5 53.5t-16 29.5t-36 9.5l-4 4v12l4 4q39 -6 73 -6h41q17 0 32.5 2t34.5 4l4 -4v-14l-5 -5q-18 -2 -27.5 -10t-20.5 -26q-9 -16 -20.5 -40t-23 -52
l-23 -57l-21 -54l-16 -43.5t-9.5 -25.5l-98 -244q-26 -65 -70.5 -96.5t-96.5 -44.5q-10 -2 -18 -2.5t-18 -0.5l-8 2l-2 24zM137 626q0 18 12 31.5t29 13.5t29.5 -13.5t12.5 -31.5q0 -19 -12.5 -31.5t-29.5 -12.5t-29 12.5t-12 31.5zM294 626q0 18 12 31.5t29 13.5
t29.5 -13.5t12.5 -31.5q0 -19 -12.5 -31.5t-29.5 -12.5t-29 12.5t-12 31.5z" />
    <glyph glyph-name="yen" unicode="&#xa5;" horiz-adv-x="702" 
d="M393 307q-4 -8 -7 -21t-3 -32h170v-44h-170v-47.5t0.5 -32t1 -23.5t1.5 -20q2 -28 9.5 -39t15.5 -18t22.5 -8.5t30.5 -1.5l5 -4l3 -18l-2 -4q-7 0 -23 1l-33 2l-33 2t-23 1h-19q-7 0 -23 -1l-33.5 -2l-33.5 -2t-23 -1l-1 4l2 18l5 4q16 0 30.5 1.5t22.5 8.5t15.5 18
t9.5 39q1 7 1.5 16.5t1 23.5t0.5 34v49h-170v44h170q-1 19 -4.5 31t-7.5 22h-158v44h133l-67.5 111.5l-72.5 114.5q-7 11 -16 21.5t-16 16.5q-11 9 -26.5 13t-35.5 6l-8 4v18l5 4l45 -5.5t44 -2.5h42q23 0 53.5 2.5t58.5 5.5l4 -4v-18l-4 -4q-20 -1 -35 -3.5t-24 -8.5
q-12 -9 -12 -17q0 -5 3.5 -12t6.5 -12l68 -125l70 -124l36.5 64.5l37.5 69l31.5 60.5t18.5 38q2 5 6 16t4 19q0 12 -7 18t-17.5 9t-23 4t-23.5 4l-4 4v18l4 4q29 -5 48.5 -5.5t43.5 -0.5h58q24 0 44 1t48 5l4 -4v-18l-4 -4q-23 -3 -39 -8t-29.5 -13.5t-25.5 -22.5t-27 -36
q-47 -70 -75.5 -117.5l-49.5 -85.5h135v-44h-160z" />
    <glyph glyph-name="z" unicode="z" horiz-adv-x="488" 
d="M50 350l8 105l3 6q44 -2 87.5 -3.5t80 -2t63 -0.5h35.5h45q9 0 27.5 1.5t30.5 4.5l6 -8l-3 -16q-13 -13 -33.5 -39.5l-45 -61l-51.5 -74l-51.5 -78.5l-46 -74.5t-34.5 -61.5l4 -4h51q60 0 94.5 2t53.5 9.5t28 23t19 42.5l3 4h22l-16 -119l-5 -10q-3 0 -20.5 0.5
t-42.5 0.5t-54.5 1t-55.5 1t-46 0.5t-26 0.5h-32q-8 0 -21.5 -0.5t-28.5 -1l-29 -1t-23 -1.5l-7 8v14q14 14 36.5 42l48.5 63.5l53 76l51.5 80t43.5 74.5t29 60l-4 4h-95q-39 0 -62 -3.5t-35.5 -12t-17.5 -21.5t-9 -32l-4 -4h-17z" />
    <glyph glyph-name="zcaron" unicode="&#x17e;" horiz-adv-x="488" 
d="M237 545l-110 99l-3 6l6 20l7 3l104 -62l104 62l7 -3l6 -20l-3 -6l-110 -99h-8zM50 350l8 105l3 6q44 -2 87.5 -3.5t80 -2t63 -0.5h35.5h45q9 0 27.5 1.5t30.5 4.5l6 -8l-3 -16q-13 -13 -33.5 -39.5l-45 -61l-51.5 -74l-51.5 -78.5l-46 -74.5t-34.5 -61.5l4 -4h51
q60 0 94.5 2t53.5 9.5t28 23t19 42.5l3 4h22l-16 -119l-5 -10q-3 0 -20.5 0.5t-42.5 0.5t-54.5 1t-55.5 1t-46 0.5t-26 0.5h-32q-8 0 -21.5 -0.5t-28.5 -1l-29 -1t-23 -1.5l-7 8v14q14 14 36.5 42l48.5 63.5l53 76l51.5 80t43.5 74.5t29 60l-4 4h-95q-39 0 -62 -3.5
t-35.5 -12t-17.5 -21.5t-9 -32l-4 -4h-17z" />
    <glyph glyph-name="zero" unicode="0" horiz-adv-x="646" 
d="M323 665q63 0 112.5 -27t83.5 -73.5t52 -107.5t18 -128q0 -66 -17.5 -127.5t-51.5 -108.5t-85 -75.5t-117 -28.5q-65 0 -113.5 27t-81 72.5t-49 106t-16.5 127.5q0 71 18 133.5t52 109t83 73.5t112 27zM322 42q45 0 80.5 22.5t59.5 61.5t37 91t13 111q0 60 -13.5 112
t-38.5 90.5t-60.5 60t-80.5 21.5t-79 -21.5t-57 -59.5t-35 -89.5t-12 -112.5q0 -67 13.5 -120t38.5 -90t59 -57t75 -20z" />
    <glyph glyph-name="fraction" unicode="&#x2044;" horiz-adv-x="547" 
d="M3 23q29 33 53 63.5l47 60.5l46.5 62l50.5 69l121 165l77 107.5t75 118.5l5 4h76l-1 -4q-56 -62 -98.5 -118.5l-78.5 -107.5l-120 -165l-50 -70l-43.5 -62l-39.5 -60l-40 -63l-4 -4h-76v4z" />
    <glyph glyph-name="uni2215" unicode="&#x2215;" horiz-adv-x="512" 
d="M-15 23q29 33 53 63.5l47 60.5l46.5 62l50.5 69l121 165l77 107.5t75 118.5l5 4h76l-1 -4q-56 -62 -98.5 -118.5l-78.5 -107.5l-120 -165l-50 -70l-43.5 -62l-39.5 -60l-40 -63l-4 -4h-76v4z" />
    <glyph glyph-name="uni2219" unicode="&#x2219;" horiz-adv-x="227" 
d="M67 243q0 19 13.5 33.5t33.5 14.5q18 0 32.5 -14.5t14.5 -33.5t-14.5 -32.5t-32.5 -13.5q-20 0 -33.5 13.5t-13.5 32.5z" />
    <glyph glyph-name="uni03BC" unicode="&#x3bc;" horiz-adv-x="608" 
d="M119 -131h-9q-47 0 -64 25v6q13 26 23.5 59t17.5 66.5t10.5 63.5t3.5 50v98q0 19 -0.5 42.5l-1 45t-1 38t-0.5 23.5q-1 11 -4.5 19.5t-6.5 12.5q-10 11 -25 13.5t-31 2.5l-3 4v14l3 3h18q17 0 43 0.5t45 3.5l35 5l6 -9q-2 -4 -3 -14.5t-2 -22.5t-1 -23v-17
q0 -17 -0.5 -37.5l-1 -41.5t-1 -40t-0.5 -32q0 -22 1.5 -49.5t6.5 -47.5q10 -47 41 -70t72 -23q31 0 57 12.5t45.5 30.5t32 38.5t16.5 37.5v130v35.5t-0.5 25.5t-1.5 20t-2 19q-2 11 -5.5 19.5t-6.5 11.5q-10 12 -25 14.5t-31 2.5l-4 4v14l4 3h18q17 0 43 0.5t44 3.5l35 5
l6 -9q-2 -4 -3 -14.5t-2 -22.5t-1 -23v-17q0 -8 -0.5 -15t-0.5 -17t-0.5 -23.5t-0.5 -35.5v-112q0 -22 0.5 -36t1 -24t1 -18.5t0.5 -18.5q2 -23 5 -33.5t10 -15.5q8 -8 23.5 -9.5t31.5 -1.5l4 -4l2 -14l-2 -4q-18 2 -39 3t-41 1q-38 0 -69 -3l-6 10q3 13 5 35l4 44
q-26 -42 -66.5 -69.5t-99.5 -27.5q-14 0 -32.5 2.5t-36.5 9t-32.5 17t-20.5 25.5l-3 -2q-6 -63 -10.5 -99.5t-12.5 -66.5z" />
    <glyph glyph-name="IJ" unicode="&#x132;" horiz-adv-x="653" 
d="M290 656l-3 -18l-4 -4q-16 0 -30.5 -1.5t-23.5 -8.5q-8 -7 -15 -18t-9 -39q-1 -14 -1.5 -26t-1 -28t-0.5 -39v-59v-184v-58.5t0.5 -37.5t1 -25.5t1.5 -22.5q2 -28 9 -39t15 -18q9 -7 23.5 -8.5t30.5 -1.5l4 -4l3 -18l-2 -4q-7 0 -23 1l-33 2l-33 2t-23 1h-19q-7 0 -23 -1
l-33 -2l-33 -2t-23 -1l-2 4l3 18l5 4q16 0 30 1.5t23 8.5q8 7 15.5 18t9.5 39q0 7 0.5 16.5t1 23.5t0.5 34v50v203v59t-0.5 41t-1 29t-1.5 24q-2 26 -9 38t-15 19q-9 7 -23 8.5t-30 1.5l-5 4l-3 18l2 4q7 0 23 -1l33 -2l33 -2t23 -1h19q7 0 23 1l33 2l33 2t23 1zM618 656
l-3 -18l-4 -4q-16 0 -30.5 -1.5t-23.5 -8.5q-8 -7 -15 -18t-9 -39q-1 -14 -1.5 -26t-1 -28t-0.5 -39v-59v-184v-60.5t-0.5 -41.5t-0.5 -29.5v-23.5q0 -40 -9 -79t-25.5 -70.5t-41 -52.5t-55.5 -27q-8 -2 -18 -2.5t-18 -0.5l-8 3l-2 22l4 5q13 0 23 0.5t20 4.5q12 7 23 18
q28 28 32.5 104t4.5 210v203v59t-0.5 41t-1 29t-1.5 24q-2 27 -9 38.5t-15 18.5q-9 7 -23 8.5t-30 1.5l-5 4l-3 18l2 4q7 0 23 -1l33 -2l33 -2t23 -1h19q7 0 23 1l33 2l33 2t23 1z" />
    <glyph glyph-name="ij" unicode="&#x133;" horiz-adv-x="525" 
d="M252 -4q-7 0 -21 1t-30 1.5t-30 1t-21 0.5h-14q-7 0 -21.5 -0.5l-30 -1t-30 -1.5t-21.5 -1l-1 4l1 14l4 4q16 0 31.5 1.5t23.5 9.5q8 7 10.5 18t4.5 31l2 32.5t1 52.5v123v35.5t-0.5 25.5t-1 20t-1.5 19q-2 11 -6 19.5t-7 11.5q-10 12 -25 14.5t-31 2.5l-4 4v14l4 3h18
q17 0 43 0.5t45 3.5l35 5l6 -9q-2 -4 -3.5 -14t-2 -21.5l-1 -22.5t-0.5 -17q0 -8 -0.5 -15.5t-0.5 -17.5t-0.5 -24t-0.5 -36v-112q0 -22 0.5 -36t1 -24t1 -18.5t1.5 -18.5q2 -21 4.5 -31.5t10.5 -17.5t22.5 -9t29.5 -2l5 -5l2 -13zM84 631q0 20 13.5 34.5t33.5 14.5
t34.5 -14.5t14.5 -34.5t-14.5 -33.5t-34.5 -13.5t-33.5 13.5t-13.5 33.5zM296 452l4 3h18q17 0 43 0.5t45 3.5l35 5l5 -9q-2 -4 -2.5 -14t-1.5 -22t-1.5 -23t-0.5 -18q0 -9 -0.5 -20t-1 -27.5t-0.5 -40.5v-58v-236q0 -47 -8.5 -89t-25 -75t-40.5 -56.5t-56 -32.5
q-10 -2 -18 -2.5t-18 -0.5l-8 2l-2 19l4 5q20 0 35.5 3.5t30.5 20.5q23 24 29.5 62t7.5 86q0 6 0.5 26.5t1 48t0.5 58t0.5 58t0.5 48v27.5v33t-0.5 50l-1 54t-1.5 44q-1 11 -5.5 20t-7.5 12q-10 12 -25 14.5t-31 2.5l-4 4v14zM346 631q0 20 13.5 34.5t33.5 14.5t34.5 -14.5
t14.5 -34.5t-14.5 -33.5t-34.5 -13.5t-33.5 13.5t-13.5 33.5z" />
    <glyph glyph-name="Dcroat" unicode="&#x110;" horiz-adv-x="735" 
d="M52 370h80v44v30.5v43.5t-0.5 45t-1.5 34q-2 25 -9 37.5t-16 19.5q-9 5 -18.5 7.5t-34.5 2.5l-5 4l-3 18l2 4q7 0 20 -1t28 -2l29.5 -2t25.5 -1h57q13 0 32.5 0.5t40 1.5t40 1.5t31.5 0.5q78 0 139.5 -26.5t103.5 -71.5t64.5 -105t22.5 -127q0 -66 -21.5 -125.5
t-63.5 -105t-105 -72.5t-146 -27q-9 0 -27 0.5t-38 0.5t-38.5 0.5t-29.5 0.5h-53q-7 0 -23 -1l-33 -2l-33 -2t-23 -1l-2 4l3 18l5 4q12 0 28 1.5t25 7.5q8 6 15 19t10 39q0 7 0.5 16.5t1 23.5t0.5 34v50v115h-88zM351 48q60 0 106 22t77.5 59.5t48 88.5t16.5 110
q0 60 -17 111t-49.5 88t-79.5 58t-107 21h-138q-2 -29 -2.5 -48.5t-1.5 -39.5t-1 -43.5v-59.5v-45h178l-8 -44h-170v-95q0 -60 0.5 -93.5t2.5 -50.5q3 -26 13 -32.5t36 -6.5h96z" />
    <glyph glyph-name="zerosuperior" unicode="&#x2070;" horiz-adv-x="387" 
d="M194 665q34 0 61 -15t46 -40t28.5 -58t9.5 -70q0 -36 -9.5 -69.5t-28 -59t-46.5 -41t-64 -15.5q-35 0 -61.5 14.5t-44.5 39t-27 57.5t-9 70q0 39 10 73t28.5 59.5t45.5 40t61 14.5zM194 335q23 0 41 11.5t30 31.5t18.5 47t6.5 57q0 31 -7 57.5t-19.5 46t-31 30.5
t-40.5 11q-23 0 -40.5 -11t-29.5 -30.5t-18 -46t-6 -57.5q0 -69 27 -108t69 -39z" />
    <glyph glyph-name="zeroinferior" unicode="&#x2080;" horiz-adv-x="401" 
d="M201 361q34 0 61 -15t46 -40t28.5 -58t9.5 -70q0 -36 -9.5 -69.5t-28 -59t-46.5 -41t-64 -15.5q-35 0 -61.5 14.5t-44.5 39t-27 57.5t-9 70q0 39 10 73t28.5 59.5t45.5 40t61 14.5zM201 31q23 0 41 11.5t30 31.5t18.5 47t6.5 57q0 31 -7 57.5t-19.5 46t-31 30.5t-40.5 11
q-23 0 -40.5 -11t-29.5 -30.5t-18 -46t-6 -57.5q0 -69 27 -108t69 -39z" />
    <glyph glyph-name="oneinferior" unicode="&#x2081;" horiz-adv-x="249" 
d="M44 301l1 4q26 13 49 26.5t46 34.5h4l14 -5q-3 -32 -3.5 -67.5t-0.5 -84.5v-55v-40.5v-26.5t0.5 -19.5t1.5 -18.5q1 -12 5.5 -18.5t9.5 -10.5t16.5 -6.5t20.5 -2.5l3 -13q-5 0 -13.5 0.5l-17.5 1t-17.5 0.5h-12.5h-34h-13.5t-18 -0.5t-18 -1t-12.5 -0.5l3 13q9 0 21 2
t18 7q5 4 8.5 10.5t5.5 18.5q1 8 1.5 15.5t0.5 17.5v23.5v34.5v67v39v25.5t-0.5 18t-1.5 17.5l-66 -17v11z" />
    <glyph glyph-name="twoinferior" unicode="&#x2082;" horiz-adv-x="340" 
d="M57 300q13 23 39.5 41t71.5 18q57 0 82 -25t25 -68q0 -35 -23.5 -71t-51.5 -67.5l-51.5 -56t-23.5 -36.5h33q33 0 52 1t30.5 5.5t17 14t10.5 26.5h14l-9 -80l-5 -5q-3 0 -17.5 0.5t-31.5 1l-33 1t-23 0.5h-54q-12 0 -27 -1l-29 -2l-5 6v12q19 24 49.5 57l59.5 67.5
t50 67.5t21 58q0 22 -12.5 39t-50.5 17q-73 0 -79 -75h-23z" />
    <glyph glyph-name="threeinferior" unicode="&#x2083;" horiz-adv-x="344" 
d="M78 99q5 -42 28 -57.5t52 -15.5q33 0 59 19.5t26 59.5q0 29 -18 52.5t-55 23.5h-15l6 21q31 1 47.5 22.5t16.5 46.5q0 30 -21 44.5t-47 14.5t-47.5 -15t-21.5 -47q0 -7 1 -10h-22l-5 44q5 10 12.5 21t19 19t28 13.5t39.5 5.5q51 0 79 -26.5t28 -61.5q0 -22 -12.5 -42.5
t-40.5 -34.5q37 -8 54 -32t17 -53q0 -21 -9 -42t-25.5 -38t-40 -27.5t-53.5 -10.5q-38 0 -63.5 16.5t-43.5 45.5l6 44h21z" />
    <glyph glyph-name="fourinferior" unicode="&#x2084;" horiz-adv-x="316" 
d="M32 122l-6 15l134 219l58 8l7 -5q-1 -8 -1.5 -18t-1 -31.5t-1 -59t-0.5 -99.5h36l-8 -32h-28q0 -32 1 -52.5t5.5 -33.5t15 -18t28.5 -5l2 -12q-8 0 -27.5 1t-27.5 1h-38q-4 0 -12.5 -0.5t-17.5 -0.5t-17.5 -0.5t-12.5 -0.5l3 12q20 0 31 5.5t16 18t6 33.5t1 52h-140z
M76 151h101q0 73 -0.5 110.5t-1.5 57.5z" />
    <glyph glyph-name="dotlessj" unicode="&#x237;" horiz-adv-x="252" 
d="M23 452l4 3h18q17 0 43 0.5t45 3.5l35 5l5 -9q-2 -4 -2.5 -14t-1.5 -22t-1.5 -23t-0.5 -18q0 -9 -0.5 -20t-1 -27.5t-0.5 -40.5v-58v-236q0 -47 -8.5 -89t-25 -75t-40.5 -56.5t-56 -32.5q-10 -2 -18 -2.5t-18 -0.5l-8 2l-2 19l4 5q20 0 35.5 3.5t30.5 20.5q23 24 29.5 62
t7.5 86q0 6 0.5 26.5t1 48t0.5 58t0.5 58t0.5 48v27.5v33t-0.5 50l-1 54t-1.5 44q-1 11 -5.5 20t-7.5 12q-10 12 -25 14.5t-31 2.5l-4 4v14z" />
    <glyph glyph-name="minus" unicode="&#x2212;" horiz-adv-x="564" 
d="M489 265l-9 -52h-405l10 52h404z" />
    <glyph glyph-name="schwa" unicode="&#x259;" horiz-adv-x="525" 
d="M45 195l16 7q54 0 111 1t112 1h118q1 7 1 13.5v12.5q0 38 -11 72.5t-34.5 60.5t-61 41.5t-89.5 15.5q-31 0 -66.5 -6.5t-65.5 -23.5l-10 6v18l10 11q24 19 68 34.5t98 15.5q52 0 96 -17.5t75.5 -49.5t49 -76t17.5 -98q0 -55 -18 -100t-49.5 -77.5t-74 -50t-91.5 -17.5
q-26 0 -58.5 7t-62.5 26.5t-54 55t-33 93.5zM245 34q32 0 57.5 10.5t45 28t32 41t17.5 49.5h-39q-54 0 -105 -1.5t-107 -4.5q-13 -1 -17.5 -7t-4.5 -14q0 -6 1 -11t3 -10q11 -38 41 -59.5t76 -21.5z" />
    <glyph glyph-name="uni00A0" unicode="&#xa0;" horiz-adv-x="240" 
 />
    <glyph glyph-name="NULL" horiz-adv-x="0" 
 />
    <glyph glyph-name="NULL" horiz-adv-x="0" 
 />
    <glyph glyph-name="nonmarkingreturn" unicode="&#xd;" horiz-adv-x="253" 
 />
    <glyph glyph-name="Ccaron" unicode="&#x10c;" horiz-adv-x="650" 
d="M551 535q-3 22 -19 37t-39.5 24t-52 12.5t-56.5 3.5q-99 0 -156 -45q-47 -38 -70.5 -101t-23.5 -138q0 -71 20.5 -124.5t56.5 -89.5t85.5 -54.5t107.5 -18.5q41 0 94.5 11.5t101.5 44.5l10 -11l-22 -45q-50 -27 -99.5 -39.5t-102.5 -12.5q-75 0 -136 24t-104.5 68.5
t-67.5 106t-24 136.5q0 70 21.5 132.5t64 108.5t105 73t145.5 27q18 0 42.5 -1.5t51.5 -5.5t55 -10.5t54 -16.5l3 -9l-13 -91h-29zM377 713l-110 99l-3 6l6 20l7 3l104 -62l104 62l7 -3l6 -20l-3 -6l-110 -99h-8z" />
    <glyph glyph-name="Dcaron" unicode="&#x10e;" horiz-adv-x="734" 
d="M129 567q-2 25 -9 37.5t-16 19.5q-9 5 -18.5 7.5t-34.5 2.5l-5 4l-3 18l2 4q7 0 20 -1t28 -2l29.5 -2t25.5 -1h57q13 0 32.5 0.5t40 1.5t40 1.5t31.5 0.5q78 0 139.5 -26.5t103.5 -71.5t64.5 -105t22.5 -127q0 -66 -21.5 -125.5t-63.5 -105t-105 -72.5t-146 -27
q-9 0 -27 0.5t-38 0.5t-38.5 0.5t-29.5 0.5h-53q-7 0 -23 -1l-33 -2l-33 -2t-23 -1l-2 4l3 18l5 4q12 0 28 1.5t25 7.5q8 6 15 19t10 39q0 7 0.5 16.5t1 23.5t0.5 34v50v203v30.5v43.5t-0.5 45t-1.5 34zM350 48q60 0 106 22t77.5 59.5t48 88.5t16.5 110q0 60 -17 111
t-49.5 88t-79.5 58t-107 21h-138q-2 -29 -2.5 -48.5t-1.5 -39.5t-1 -43.5v-59.5v-184q0 -60 0.5 -93.5t2.5 -50.5q3 -26 13 -32.5t36 -6.5h96zM350 713l-110 99l-3 6l6 20l7 3l104 -62l104 62l7 -3l6 -20l-3 -6l-110 -99h-8z" />
    <glyph glyph-name="Ecaron" unicode="&#x11a;" horiz-adv-x="571" 
d="M331 654q13 0 39.5 0.5t53.5 1.5t48.5 1.5t26.5 0.5l5 -10l-4 -109h-25l-4 4q-2 23 -5.5 36t-20 19t-49.5 7t-93 1h-96l-2 -39q-1 -14 -1.5 -26t-1 -28t-0.5 -39v-108q30 1 60 1t54.5 1t41.5 4.5t23 10.5q8 8 14 16t6 23l5 5l17 2l4 -2l-3.5 -40t-1.5 -39
q0 -24 1.5 -44.5t3.5 -44.5l-4 -2l-18 2l-4 3q0 16 -6 29.5t-14 22.5q-6 6 -23 9t-41 4t-54 1h-61v-97v-58.5t0.5 -40t1.5 -32t3 -33.5q0 -19 20 -19h85q60 0 94.5 2.5t52.5 10.5t25.5 24.5t14.5 43.5l4 4h26l-18 -127l-8 -10q-5 0 -23 0.5t-40.5 1.5t-45 1.5t-35.5 0.5
h-202q-7 0 -23 -1l-33 -2l-33 -2t-23 -1l-2 4l3 18l5 4q16 0 30 1.5t23 8.5q8 7 15.5 18t9.5 39q0 7 0.5 16.5t1 23.5t0.5 34v50v203v59v41t-0.5 29t-1.5 24q-2 27 -9.5 38.5t-15.5 18.5q-9 7 -23 8.5t-30 1.5l-5 4l-3 18l2 4q7 0 23 -1t34.5 -2l36 -2t28.5 -1h164zM277 713
l-110 99l-3 6l6 20l7 3l104 -62l104 62l7 -3l6 -20l-3 -6l-110 -99h-8z" />
    <glyph glyph-name="Nacute" unicode="&#x143;" horiz-adv-x="746" 
d="M708 656l-2 -18l-5 -4q-16 0 -30.5 -1.5t-22.5 -8.5t-14.5 -18t-8.5 -39q-1 -14 -1.5 -26t-1 -28t-0.5 -39v-59v-176q0 -56 0.5 -92t1 -61.5t2 -45.5t3.5 -44l-8 -5l-62 4l-10 12l-356 533q0 -10 -0.5 -20t-0.5 -24.5v-33.5v-47v-184v-31.5t0.5 -40.5l1 -40.5t1.5 -31.5
q2 -25 8.5 -37.5t16.5 -19.5q8 -6 21 -8t33 -2l5 -4l3 -18l-2 -4q-7 0 -21.5 1t-30.5 2t-30.5 2t-21.5 1h-19q-7 0 -23 -1l-33 -2l-33 -2t-23 -1l-2 4l3 18l5 4q18 0 30.5 1.5t22.5 8.5q7 5 14.5 16.5t10.5 40.5q1 7 1.5 16.5t0.5 23.5v34v50v203v59v41t-0.5 29t-1.5 24
q-2 21 -9 35.5t-16 21.5t-22.5 8.5t-30.5 1.5l-5 4l-3 18l2 4q7 0 20.5 -1l27.5 -2l27.5 -2t20.5 -1h35q8 0 22.5 1t23.5 3l5 -3q4 -14 16.5 -38.5t30 -54.5l38 -64l41.5 -67q76 -122 132.5 -199l72.5 -100q0 7 0.5 13t0.5 14v20v32v203v59t-0.5 41t-1 29t-1.5 24
q-2 28 -9 39t-15 18q-9 7 -23.5 8.5t-30.5 1.5l-4 4l-3 18l2 4q7 0 20 -1l26.5 -2l26.5 -2t20 -1h47q7 0 20 0.5t27 1.5l27 2t20 2zM323 721l-6 20l3 7l180 101q17 -1 26.5 -11t9.5 -24q0 -10 -4 -19l-202 -77z" />
    </font>
</defs>
</svg>
